<svg width="80" height="80" viewBox="0 0 80 80" fill="none" xmlns="http://www.w3.org/2000/svg">
<path fill-rule="evenodd" clip-rule="evenodd" d="M58.2346 47.0639C58.6244 47.4356 58.6387 48.0527 58.2667 48.4421L42.6276 64.8131L36.3374 57.5938C35.9836 57.1877 36.0262 56.572 36.4326 56.2184C36.839 55.8649 37.4552 55.9075 37.809 56.3136L42.6939 61.92L56.8553 47.0959C57.2273 46.7065 57.8449 46.6921 58.2346 47.0639Z" fill="#FF0064"/>
<path fill-rule="evenodd" clip-rule="evenodd" d="M30.9454 10.5286C31.2073 10.5592 31.3142 10.9041 31.12 11.0973L29.4222 12.7925L29.8492 15.2085C29.8976 15.4826 29.6164 15.6959 29.3834 15.5538L27.3168 14.3863L25.2598 15.5538C25.0172 15.6958 24.7456 15.4826 24.7941 15.2085L25.221 12.7925L23.5136 11.0973C23.3197 10.9045 23.4263 10.5592 23.6979 10.5286L26.0264 10.2038L27.0353 7.99075C27.1518 7.73683 27.4915 7.73683 27.6076 7.99075L28.6165 10.2038L30.9454 10.5286Z" fill="#05070F"/>
<path fill-rule="evenodd" clip-rule="evenodd" d="M43.6283 4.67955C43.8902 4.71012 43.9971 5.05507 43.8029 5.2482L42.1051 6.9434L42.5321 9.35941C42.5806 9.63349 42.2994 9.84677 42.0663 9.70469L39.9997 8.53719L37.9428 9.70469C37.7001 9.84677 37.4285 9.63349 37.477 9.35941L37.9039 6.9434L36.1965 5.2482C36.0027 5.0554 36.1092 4.71012 36.3808 4.67955L38.7094 4.35476L39.7182 2.14168C39.8348 1.88775 40.1744 1.88775 40.2906 2.14168L41.2995 4.35476L43.6283 4.67955Z" fill="#05070F"/>
<path fill-rule="evenodd" clip-rule="evenodd" d="M56.3112 10.5286C56.5732 10.5592 56.68 10.9041 56.4858 11.0973L54.7881 12.7925L55.215 15.2085C55.2635 15.4826 54.9823 15.6959 54.7492 15.5538L52.6827 14.3863L50.6257 15.5538C50.383 15.6958 50.1115 15.4826 50.1599 15.2085L50.5869 12.7925L48.8795 11.0973C48.6856 10.9045 48.7922 10.5592 49.0637 10.5286L51.3923 10.2038L52.4012 7.99075C52.5177 7.73683 52.8573 7.73683 52.9735 7.99075L53.9824 10.2038L56.3112 10.5286Z" fill="#05070F"/>
<path fill-rule="evenodd" clip-rule="evenodd" d="M40.1537 13.5588L70.2439 26.8904V27.5245C70.2439 47.6689 62.8163 60.2839 55.3283 67.8606C51.5936 71.6395 47.8575 74.1521 45.0496 75.7221C43.6452 76.5074 42.4712 77.0579 41.6431 77.4138C41.229 77.5918 40.9012 77.7212 40.674 77.8071C40.5603 77.85 40.4719 77.8821 40.4103 77.9039C40.3796 77.9149 40.3555 77.9232 40.3384 77.9291L40.3181 77.936L40.3118 77.9381L40.3097 77.9388C40.3097 77.9388 40.3083 77.9393 40 77.0144C39.655 77.9263 39.6536 77.9258 39.6536 77.9258L39.6455 77.9227L39.6255 77.9149C39.6086 77.9084 39.5848 77.8991 39.5543 77.8869C39.4932 77.8625 39.4052 77.8267 39.2921 77.7791C39.0659 77.6837 38.739 77.5406 38.326 77.3459C37.5001 76.9564 36.3285 76.3597 34.9267 75.5233C32.124 73.8512 28.3937 71.2169 24.6642 67.3593C17.1897 59.6282 9.7561 47.0191 9.7561 27.5245V26.8877L40.1537 13.5588ZM40 77.0144L39.655 77.9263L39.9793 78.0488L40.3083 77.9393L40 77.0144ZM40.0199 75.9697C40.2205 75.8933 40.5086 75.779 40.8721 75.6227C41.6447 75.2907 42.7573 74.7697 44.0968 74.0207C46.7766 72.5223 50.3576 70.1154 53.94 66.4906C61.0089 59.3379 68.1369 47.3914 68.2902 28.1575L40.1496 15.6897L11.71 28.1601C11.8691 46.7354 18.9883 58.6824 26.0675 66.0047C29.6551 69.7154 33.2418 72.2473 35.927 73.8493C37.269 74.65 38.3841 75.2174 39.1588 75.5827C39.527 75.7563 39.8181 75.8842 40.0199 75.9697Z" fill="#05070F"/>
<path fill-rule="evenodd" clip-rule="evenodd" d="M27.0759 54.2598L27.0799 54.2554C27.0851 54.2496 27.0943 54.2394 27.1076 54.2251C27.1341 54.1964 27.1766 54.1513 27.2349 54.0921C27.3515 53.9735 27.5309 53.7988 27.7709 53.5865C28.2516 53.1613 28.9725 52.5883 29.9174 52.0138C31.8064 50.8652 34.5763 49.7187 38.1155 49.7187C40.7961 49.7187 43.2426 50.2041 45.4674 51.1627C45.9621 51.3759 46.5362 51.148 46.7495 50.6536C46.9629 50.1592 46.7348 49.5856 46.24 49.3724C43.7498 48.2994 41.0374 47.769 38.1155 47.769C34.1394 47.769 31.0223 49.0597 28.9031 50.3482C27.8439 50.9923 27.0304 51.6377 26.4777 52.1265C26.2011 52.3711 25.9891 52.5772 25.8434 52.7252C25.7706 52.7993 25.7143 52.8589 25.6747 52.9016C25.655 52.923 25.6394 52.9402 25.628 52.9528L25.6141 52.9684L25.6095 52.9736L25.6078 52.9755L25.6071 52.9763C25.6071 52.9763 25.6065 52.977 26.3415 53.6181L25.6071 52.9763C25.2528 53.3819 25.294 53.9984 25.6999 54.3525C26.1056 54.7064 26.7215 54.6648 27.0759 54.2598Z" fill="#05070F"/>
<path fill-rule="evenodd" clip-rule="evenodd" d="M37.561 29.2469C33.5199 29.2469 30.2439 32.5203 30.2439 36.5583C30.2439 40.5962 33.5199 43.8696 37.561 43.8696C41.6021 43.8696 44.8781 40.5962 44.8781 36.5583C44.8781 32.5203 41.6021 29.2469 37.561 29.2469ZM28.2927 36.5583C28.2927 31.4436 32.4422 27.2972 37.561 27.2972C42.6797 27.2972 46.8293 31.4436 46.8293 36.5583C46.8293 41.673 42.6797 45.8193 37.561 45.8193C32.4422 45.8193 28.2927 41.673 28.2927 36.5583Z" fill="#05070F"/>
</svg>
