<svg width="166" height="118" viewBox="0 0 166 118" fill="none" xmlns="http://www.w3.org/2000/svg">
<path fill-rule="evenodd" clip-rule="evenodd" d="M79.0699 51.9763C47.0162 52.8311 37.7001 81.6423 36.0499 93.7394C39.4695 93.6871 43.0483 93.4602 46.1066 93.1759C48.3216 82.4221 56.1597 63.39 79.3719 62.4859C103.623 61.5425 112.766 83.0038 114.511 93.8504C117.958 94.6563 121.098 95.6889 124.216 97.082C125.713 89.2032 115.194 51.012 79.0699 51.9763Z" fill="#E7B82A"/>
<path fill-rule="evenodd" clip-rule="evenodd" d="M3.28562 70.8421C3.79114 69.4846 5.32307 67.8523 8.43621 69.126C12.7255 70.8798 29.8579 79.1888 28.7405 81.6581C28.1189 83.032 25.4798 84.4618 5.92412 76.1744C2.27801 74.6272 2.94458 71.7595 3.28562 70.8421Z" fill="#E7B82A"/>
<path fill-rule="evenodd" clip-rule="evenodd" d="M29.9736 33.3468C30.9714 32.1796 33.1513 31.1617 35.4733 33.6259C38.6722 37.02 50.9366 51.2776 48.3269 54.1438C48.0016 54.5048 45.9893 54.0017 30.2555 39.6911C27.3215 37.023 29.3001 34.1321 29.9736 33.3468Z" fill="#E7B82A"/>
<path fill-rule="evenodd" clip-rule="evenodd" d="M81.3147 13.4728C82.7905 13.418 84.933 14.7487 84.8736 18.2663C84.791 23.1115 83.3204 42.3389 79.9942 42.1329C79.6725 42.1125 78.9876 41.4485 78.4058 38.1034C77.8095 34.6823 77.5485 25.4431 77.1727 18.5402C76.9489 14.409 80.3187 13.5116 81.3147 13.4728Z" fill="#E7B82A"/>
<path fill-rule="evenodd" clip-rule="evenodd" d="M131.768 33.4884C133.042 34.684 133.774 37.2366 131.068 39.7847C127.579 43.0663 114.986 57.2379 112.776 54.738C112.563 54.4959 112.353 53.0117 113.789 49.868C115.206 46.7706 120.781 40.3428 125.938 34.2303C128.59 31.0863 130.867 32.6429 131.768 33.4884Z" fill="#E7B82A"/>
<path fill-rule="evenodd" clip-rule="evenodd" d="M157.051 70.5818C157.698 72.2845 157.183 75.0855 153.653 76.038C149.108 77.265 131.646 83.2009 130.701 79.864C130.611 79.5411 131.065 78.1414 133.96 76.4524C136.957 74.7027 144.093 71.4567 151.348 68.5101C155.081 66.9947 156.593 69.3785 157.051 70.5818Z" fill="#E7B82A"/>
</svg>
