<svg width="110" height="27" viewBox="0 0 110 27" fill="none" xmlns="http://www.w3.org/2000/svg">
<path d="M108.325 13.17L107.325 13.44C106.375 10.2 104.78 8.812 102.53 8.812C100.95 8.812 99.83 9.852 99.83 11.512C99.83 13.092 101.13 13.942 104.664 15.369C107.917 16.565 109.266 18.029 109.266 20.589C109.266 24.484 106.206 26.927 101.18 26.927C98.763 26.927 96.025 26.387 94.482 25.77L94.289 20.358L95.239 20.165C96.666 23.868 98.492 25.269 100.869 25.269C102.926 25.269 104.006 23.842 104.006 22.376C104.006 20.91 103.17 20.062 99.956 18.906C96.896 17.903 94.801 16.592 94.801 13.339C94.801 10.139 97.616 7.425 102.401 7.425C104.664 7.425 106.721 7.811 108.071 8.428L108.325 13.17ZM87.625 14.867C87.741 12.322 87.225 8.645 85.131 8.645C82.984 8.645 81.801 12.078 81.763 15.022L87.625 14.867ZM85.645 7.411C90.915 7.411 93.461 11.268 93.5 16.333H81.636C81.596 20.82 83.976 24.213 88.424 24.213C90.364 24.213 91.484 23.673 92.666 22.825L93.219 23.442C91.919 25.216 89.219 26.912 85.619 26.912C79.834 26.912 75.823 22.94 75.823 17.334C75.81 12.269 79.101 7.409 85.645 7.409V7.411ZM68.547 16.794C68.431 12.794 66.967 9.608 64.15 9.608C63.48 9.608 62.967 9.724 62.17 9.994L62.4 25.408C62.683 25.524 63.35 25.601 63.827 25.601C66.565 25.601 68.545 21.731 68.545 16.795L68.547 16.794ZM74.42 16.495C74.42 22.833 70.42 26.921 63.634 26.921C61.217 26.921 58.71 26.535 56.538 26.034C56.731 23.489 56.731 7.727 56.538 4.757C56.345 3.214 55.908 2.481 54.712 2.327L53.915 2.25V1.543L62.285 0C62.245 1.3 62.169 4.757 62.169 8.806C63.635 8.073 64.984 7.649 66.809 7.649C71.167 7.649 74.409 11.352 74.409 16.494L74.42 16.495ZM53.109 13.052C50.525 11.355 47.749 12.088 47.195 13.052C46.951 16.022 47.002 20.586 47.235 22.938C47.351 24.481 47.788 25.136 48.983 25.252L50.563 25.406V26.409H38.74V25.406L39.653 25.252C40.797 25.136 41.196 24.482 41.273 22.938C41.556 20.431 41.633 15.173 41.273 12.28C41.196 10.622 40.797 10.004 39.653 9.85L38.74 9.734V9.04L47.186 7.42L47.07 11.74C49.05 7.266 52.984 6.726 55.118 7.922L53.109 13.052ZM25.392 17.192C25.392 21.91 26.665 25.767 29.236 25.767C32.013 25.767 32.81 21.987 32.81 17.192C32.81 12.397 31.576 8.656 28.966 8.656C26.166 8.656 25.392 12.32 25.392 17.192ZM38.788 17.115C38.788 22.527 35.214 26.915 28.838 26.915C22.564 26.915 19.402 22.737 19.402 17.26C19.402 11.886 22.976 7.412 29.352 7.412C35.626 7.412 38.788 11.616 38.788 17.105V17.115ZM22.368 7.797L21.068 8.183C19.962 4.39 18.008 2.231 14.64 2.231H10.243C9.999 4.751 9.883 8.646 9.999 12.851L12.929 12.697C14.909 12.697 15.744 11.27 16.229 9.197H17.335V17.965H16.21C15.734 15.845 14.91 14.405 12.91 14.288L9.98 14.248C9.98 17.372 10.02 20.046 10.224 21.666C10.417 23.98 11.06 25.034 12.757 25.253L14.351 25.407V26.41H0V25.407L1.196 25.253C2.854 25.023 3.536 23.98 3.729 21.666C4.049 17.886 4.129 9.813 3.729 5.326C3.536 2.926 2.855 1.971 1.196 1.778L0 1.585V0.545H22.34L22.368 7.797Z" fill="#8A8A8F"/>
</svg>
