<svg width="94" height="51" viewBox="0 0 94 51" fill="none" xmlns="http://www.w3.org/2000/svg">
<g clip-path="url(#clip0_4442_43992)">
<path d="M29.1698 11.785C32.3894 11.785 35.1067 9.14658 35.1067 6.02407V5.15327H29.1215V7.55445H31.7712C31.1724 8.79891 30.2194 9.01986 29.1955 9.01986C26.8259 9.01986 26.1079 7.31726 26.1079 5.90709C26.1079 4.49692 26.7937 2.70009 29.0957 2.70009C30.3481 2.70009 31.2496 3.19073 31.6714 3.85033L31.7648 3.99329H34.73L34.5819 3.57089C33.967 1.83905 31.8485 -0.0032694 29.1343 -0.0032694C28.3572 -0.0135723 27.5858 0.13087 26.864 0.421792C26.1423 0.712715 25.4845 1.14441 24.9283 1.69217C24.3721 2.23992 23.9284 2.893 23.6225 3.61401C23.3166 4.33503 23.1547 5.10983 23.1458 5.89409C23.1458 9.14333 25.8471 11.785 29.1698 11.785Z" fill="#8A8A8F"/>
<path d="M76.6752 24.4018C79.8787 24.4018 82.5864 21.8381 82.5864 18.8033V17.9585H76.6269V20.2882H79.2541C78.6617 21.497 77.7119 21.7147 76.6785 21.7147C74.3217 21.7147 73.6037 20.0576 73.6037 18.6896C73.6037 17.3217 74.2895 15.5736 76.5786 15.5736C77.8246 15.5736 78.7229 16.048 79.1543 16.6881L79.2477 16.8278H82.2001L82.052 16.4184C81.437 14.7386 79.3314 12.9515 76.6269 12.9515C73.3526 12.9515 70.6867 15.5184 70.6867 18.6734C70.6867 21.8284 73.3687 24.4018 76.6752 24.4018Z" fill="#8A8A8F"/>
<path d="M41.4751 11.785C42.631 11.7798 43.7594 11.4286 44.7174 10.7758C45.6754 10.123 46.42 9.19796 46.8567 8.11786C47.2934 7.03777 47.4027 5.85117 47.1708 4.70833C46.9389 3.56548 46.3761 2.5178 45.5538 1.69794C44.7315 0.878077 43.6866 0.322914 42.5514 0.10275C41.4163 -0.117414 40.2419 0.00732298 39.177 0.461165C38.1122 0.915006 37.2047 1.67754 36.5695 2.65221C35.9344 3.62688 35.6001 4.76984 35.609 5.93637C35.6226 7.49567 36.2472 8.98613 37.3464 10.082C38.4456 11.178 39.93 11.7902 41.4751 11.785ZM41.4751 2.74887C42.0946 2.73014 42.7056 2.89824 43.2299 3.23168C43.7543 3.56512 44.1682 4.04877 44.4189 4.62082C44.6695 5.19287 44.7454 5.82734 44.637 6.44316C44.5285 7.05898 44.2406 7.62818 43.8099 8.07803C43.3793 8.52787 42.8256 8.83793 42.2195 8.96859C41.6134 9.09925 40.9825 9.04457 40.4073 8.81154C39.8322 8.57851 39.3389 8.17771 38.9906 7.66036C38.6423 7.14301 38.4547 6.5326 38.4519 5.90713C38.4373 5.08295 38.7475 4.28662 39.3144 3.69318C39.8813 3.09974 40.6585 2.75775 41.4751 2.74238V2.74887Z" fill="#8A8A8F"/>
<path d="M53.8513 11.785C55.0073 11.7798 56.1357 11.4286 57.0937 10.7758C58.0517 10.123 58.7962 9.19796 59.2329 8.11786C59.6696 7.03776 59.779 5.85117 59.547 4.70833C59.3151 3.56548 58.7524 2.5178 57.93 1.69794C57.1077 0.878076 56.0628 0.322914 54.9277 0.10275C53.7925 -0.117414 52.6181 0.00732298 51.5533 0.461165C50.4884 0.915006 49.5809 1.67754 48.9458 2.65221C48.3106 3.62688 47.9763 4.76984 47.9852 5.93637C47.998 7.49594 48.6224 8.9869 49.7217 10.083C50.8211 11.1791 52.306 11.7911 53.8513 11.785ZM53.8513 2.74887C54.471 2.72949 55.0822 2.89703 55.607 3.23006C56.1318 3.56309 56.5462 4.04649 56.7973 4.61847C57.0484 5.19044 57.1248 5.825 57.0168 6.44102C56.9087 7.05705 56.621 7.62655 56.1905 8.07672C55.7601 8.5269 55.2064 8.83729 54.6002 8.96822C53.994 9.09916 53.3629 9.04469 52.7876 8.81177C52.2122 8.57885 51.7188 8.17807 51.3703 7.66067C51.0219 7.14326 50.8342 6.53273 50.8313 5.90713C50.8167 5.08406 51.126 4.2887 51.6915 3.69544C52.2571 3.10218 53.0326 2.75945 53.8481 2.74237L53.8513 2.74887Z" fill="#8A8A8F"/>
<path d="M67.3866 10.833C68.2673 10.359 69.0027 9.65106 69.5134 8.78571C70.0242 7.92037 70.2907 6.93056 70.2843 5.92337C70.2845 5.08974 70.1052 4.26601 69.7589 3.50919C69.4126 2.75237 68.9074 2.08053 68.2785 1.54015C67.5734 0.971535 66.2984 0.217712 63.3557 0.217712H60.4258V11.5673H63.4104C65.12 11.5673 66.4562 11.3203 67.3866 10.833ZM63.2913 2.70988C64.5791 2.70988 65.5997 2.84634 66.3982 3.52868C66.7451 3.82327 67.0239 4.19083 67.2152 4.60561C67.4065 5.02038 67.5057 5.47235 67.5058 5.92987C67.5151 6.47525 67.3766 7.01285 67.1054 7.48468C66.8342 7.9565 66.4405 8.34464 65.9668 8.60724C65.1426 9.01664 64.4632 9.09137 63.3396 9.09137H63.2269V2.70338L63.2913 2.70988Z" fill="#8A8A8F"/>
<path d="M20.3641 18.5467V24.3823H23.2972V13.2277H19.3692L17.0801 19.6676L14.762 13.2277H10.8372V24.3823H13.7671V18.5792L16.0015 24.3823H18.1297L20.3641 18.5467Z" fill="#8A8A8F"/>
<path d="M29.6463 13.0164C28.0986 12.9991 26.6074 13.6021 25.4997 14.6931C24.3921 15.7841 23.7586 17.274 23.7383 18.8358C23.7383 22.0135 26.388 24.5967 29.6463 24.5967C32.9045 24.5967 35.5543 22.0135 35.5543 18.8358C35.5339 17.274 34.9004 15.7841 33.7928 14.6931C32.6852 13.6021 31.1939 12.9991 29.6463 13.0164ZM29.6463 21.8283C29.0519 21.8322 28.4699 21.6577 27.9741 21.3269C27.4782 20.9961 27.0911 20.5241 26.8617 19.9707C26.6323 19.4174 26.5712 18.8077 26.6859 18.2192C26.8007 17.6307 27.0863 17.0899 27.5063 16.6655C27.9263 16.2411 28.4619 15.9524 29.0449 15.8359C29.628 15.7194 30.2322 15.7805 30.7807 16.0114C31.3293 16.2423 31.7974 16.6325 32.1257 17.1325C32.454 17.6325 32.6276 18.2197 32.6244 18.8196C32.6236 19.6167 32.3096 20.381 31.7514 20.945C31.1931 21.509 30.4361 21.8266 29.6463 21.8283Z" fill="#8A8A8F"/>
<path d="M43.2813 19.5409C43.9959 18.8096 44.3991 17.8256 44.405 16.7986C44.4019 16.2588 44.2764 15.7269 44.0381 15.2436C43.7998 14.7604 43.455 14.3386 43.0302 14.0107C42.3444 13.4616 41.5073 13.2309 40.2291 13.2309H36.3141V24.3823H39.2439V20.9933L41.6265 24.3823H44.8139L41.8132 20.3727C42.3622 20.2197 42.866 19.9342 43.2813 19.5409ZM39.2439 15.6711H40.2098C41.7295 15.6711 41.8196 16.7401 41.8196 16.9708C41.8196 17.3672 41.6619 18.2705 40.2098 18.2705H39.2439V15.6711Z" fill="#8A8A8F"/>
<path d="M59.3988 13.2277H56.7909V24.3823H59.3988V13.2277Z" fill="#8A8A8F"/>
<path d="M48.481 18.1568L52.483 24.3823H55.5127V13.2277H52.5796V19.4467L48.6259 13.2277H45.6445V24.3823H48.481V18.1568Z" fill="#8A8A8F"/>
<path d="M63.4233 18.1568L67.422 24.3823H70.4517V13.2277H67.5219V19.4467L63.5649 13.2277H60.5836V24.3823H63.4233V18.1568Z" fill="#8A8A8F"/>
<path d="M84.4313 26.0784L78.2367 40.9924H82.6025L83.5684 38.5164H88.5138L89.4958 40.9924H93.8616L87.9342 26.0784H84.4313ZM87.6026 35.7091H84.4474L86.025 30.9327L87.6026 35.7091Z" fill="#8A8A8F"/>
<path d="M6.19455 26.0784L0 40.9924H4.3658L5.33169 38.5164H10.2899L11.2558 40.9924H15.6377L9.71037 26.0784H6.19455ZM9.36587 35.7091H6.21065L7.78826 30.9327L9.36587 35.7091Z" fill="#8A8A8F"/>
<path d="M24.218 34.8838L21.0692 26.0784H16.024V40.9924H19.762V32.6353L22.7949 40.9924H25.6024L28.6353 32.5866V40.9924H32.3733V26.0784H27.3281L24.218 34.8838Z" fill="#8A8A8F"/>
<path d="M34.2954 40.9924H43.3393V37.5872H38.1621V34.8416H43.1075V31.7613H38.1621V29.1554H43.3393V26.0784H34.2954V40.9924Z" fill="#8A8A8F"/>
<path d="M55.1328 34.7668C56.3111 33.7271 56.7426 31.8425 56.7426 30.8093C56.7267 30.049 56.543 29.3019 56.2049 28.6224C55.8669 27.9428 55.3829 27.3479 54.7883 26.8809C53.8224 26.1563 52.615 26.0784 50.7863 26.0784H45.49V40.9924H49.2087V36.1185L52.512 40.9924H56.9937L53.1302 35.8683C53.8843 35.6911 54.5765 35.3103 55.1328 34.7668ZM49.2087 29.1586H50.7348C53.0658 29.1586 53.1849 30.7118 53.1849 31.0205C53.1849 31.5923 52.9466 32.9245 50.7348 32.9245H49.2087V29.1586Z" fill="#8A8A8F"/>
<path d="M62.5186 26.0784H58.9738V40.9924H62.5186V26.0784Z" fill="#8A8A8F"/>
<path d="M79.9528 35.2607H75.5773C75.5773 35.2607 74.6115 37.6684 72.303 37.6684C69.9945 37.6684 67.8535 36.0145 67.8535 33.5159C67.8535 30.7345 70.046 29.4901 72.1967 29.4901C74.3474 29.4901 75.5226 31.6865 75.5226 31.6865H79.9464C80.0066 31.5144 80.0178 31.3286 79.9786 31.1504C79.457 29.724 77.3159 25.7892 72.5734 25.7892C66.8039 25.7892 63.9062 29.3114 63.9062 33.4769C63.9062 37.7821 67.3705 41.275 72.5734 41.275C77.6958 41.275 79.8787 36.034 79.927 35.8066C79.9562 35.6262 79.9649 35.4431 79.9528 35.2607Z" fill="#8A8A8F"/>
<path d="M72.1613 37.4409C71.6401 37.456 71.1211 37.3655 70.6352 37.1746C70.1493 36.9838 69.7062 36.6965 69.3322 36.3297C68.9582 35.963 68.6609 35.5243 68.4579 35.0396C68.2549 34.5549 68.1503 34.034 68.1503 33.5077C68.1503 32.9815 68.2549 32.4606 68.4579 31.9758C68.6609 31.4911 68.9582 31.0524 69.3322 30.6857C69.7062 30.319 70.1493 30.0317 70.6352 29.8408C71.1211 29.6499 71.6401 29.5594 72.1613 29.5745C72.8729 29.571 73.5727 29.7576 74.1897 30.1154C74.8066 30.4733 75.3187 30.9895 75.6739 31.6118H79.9464C79.4881 29.8866 78.4747 28.3641 77.0654 27.2836C75.6562 26.2031 73.931 25.626 72.1613 25.6429C67.7311 25.6429 64.1413 29.1651 64.1413 33.5093C64.1413 37.8536 67.7311 41.3757 72.1613 41.3757C73.9501 41.3928 75.6927 40.8027 77.1092 39.7002C78.5257 38.5977 79.534 37.0468 79.9721 35.2964H75.7287C75.3836 35.9476 74.8691 36.4914 74.2405 36.8693C73.6119 37.2472 72.893 37.4448 72.1613 37.4409Z" fill="#8A8A8F"/>
</g>
<defs>
<clipPath id="clip0_4442_43992">
<rect width="94" height="51" fill="white"/>
</clipPath>
</defs>
</svg>
