<svg width="80" height="80" viewBox="0 0 80 80" fill="none" xmlns="http://www.w3.org/2000/svg">
<path fill-rule="evenodd" clip-rule="evenodd" d="M77.9747 39.8084C78.3232 40.1464 78.3318 40.703 77.9938 41.0515L61.9884 57.5572L55.6053 50.3401C55.2836 49.9764 55.3177 49.4208 55.6814 49.0991C56.045 48.7775 56.6006 48.8115 56.9223 49.1752L62.0477 54.9703L76.7316 39.8275C77.0696 39.479 77.6261 39.4704 77.9747 39.8084Z" fill="#FF0064"/>
<path fill-rule="evenodd" clip-rule="evenodd" d="M16.2193 39.7978L15.3732 40.0364C12.9721 40.7134 11.5369 42.0878 10.9136 44.1684C10.7668 44.6583 10.6368 45.5762 10.5479 46.9905L10.4928 47.8679L8.73798 47.7576L8.79311 46.8802C8.88245 45.4586 9.01968 44.3637 9.22933 43.6638C10.045 40.941 11.9852 39.1648 14.896 38.3441L15.7421 38.1055L16.2193 39.7978ZM22.6723 38.0542L23.5236 38.2734C26.4756 39.0337 28.4826 40.7399 29.3712 43.4071C29.6204 44.1552 29.7827 45.3375 29.8882 46.8751L29.9484 47.7522L28.1943 47.8726L28.1341 46.9956C28.029 45.4642 27.8752 44.4796 27.7031 43.9629C27.0307 41.9448 25.5492 40.6107 23.0851 39.9761L22.2338 39.7569L22.6723 38.0542Z" fill="#05070F"/>
<path fill-rule="evenodd" clip-rule="evenodd" d="M19.3407 30.7692C16.913 30.7692 14.9451 32.7372 14.9451 35.1648C14.9451 37.5925 16.913 39.5604 19.3407 39.5604C21.7683 39.5604 23.7363 37.5925 23.7363 35.1648C23.7363 32.7372 21.7683 30.7692 19.3407 30.7692ZM13.1868 35.1648C13.1868 31.7662 15.942 29.011 19.3407 29.011C22.7393 29.011 25.4945 31.7662 25.4945 35.1648C25.4945 38.5635 22.7393 41.3187 19.3407 41.3187C15.942 41.3187 13.1868 38.5635 13.1868 35.1648Z" fill="#05070F"/>
<path fill-rule="evenodd" clip-rule="evenodd" d="M6.15384 20.2198C4.69727 20.2198 3.51648 21.4006 3.51648 22.8572V56.2637C3.51648 57.7203 4.69727 58.9011 6.15384 58.9011H58.9011C59.3866 58.9011 59.7802 59.2947 59.7802 59.7802C59.7802 60.2658 59.3866 60.6593 58.9011 60.6593H6.15384C3.72622 60.6593 1.75824 58.6914 1.75824 56.2637V22.8572C1.75824 20.4295 3.72622 18.4615 6.15384 18.4615H64.1758C66.6034 18.4615 68.5714 20.4295 68.5714 22.8572V42.0879C68.5714 42.5734 68.1778 42.967 67.6923 42.967C67.2068 42.967 66.8132 42.5734 66.8132 42.0879V22.8572C66.8132 21.4006 65.6324 20.2198 64.1758 20.2198H6.15384Z" fill="#05070F"/>
<path fill-rule="evenodd" clip-rule="evenodd" d="M28.1319 27.2528H10.5494V48.3517H28.1319V27.2528ZM8.79121 25.4945V50.1099H29.8901V25.4945H8.79121Z" fill="#05070F"/>
<path fill-rule="evenodd" clip-rule="evenodd" d="M34.2857 27.2528H60.6593V30.7692H34.2857V27.2528Z" fill="#05070F"/>
<path fill-rule="evenodd" clip-rule="evenodd" d="M34.2857 33.4066H50.1099V35.1648H34.2857V33.4066Z" fill="#05070F"/>
<path fill-rule="evenodd" clip-rule="evenodd" d="M34.2857 37.8022H53.6264V39.5604H34.2857V37.8022Z" fill="#05070F"/>
<path fill-rule="evenodd" clip-rule="evenodd" d="M34.2857 46.5934H51.8681V48.3517H34.2857V46.5934Z" fill="#05070F"/>
<path fill-rule="evenodd" clip-rule="evenodd" d="M34.2857 42.1978H48.3516V43.9561H34.2857V42.1978Z" fill="#05070F"/>
</svg>
