<svg width="88" height="88" viewBox="0 0 88 88" fill="none" xmlns="http://www.w3.org/2000/svg">
<path fill-rule="evenodd" clip-rule="evenodd" d="M50.1974 4.88955L22.2674 16.044L33.4218 43.974L61.3518 32.8196L50.1974 4.88955ZM21.3608 13.7739C20.107 14.2746 19.4966 15.6968 19.9973 16.9506L31.1517 44.8806C31.6524 46.1343 33.0747 46.7448 34.3284 46.2441L62.2584 35.0897C63.5121 34.589 64.1226 33.1667 63.6219 31.913L52.4675 3.98294C51.9668 2.7292 50.5445 2.11874 49.2908 2.61945L21.3608 13.7739Z" fill="#05070F"/>
<path fill-rule="evenodd" clip-rule="evenodd" d="M80.8865 51.9411L51.8363 44.1571L44.0523 73.2073L73.1026 80.9913L80.8865 51.9411ZM52.469 41.7959C51.165 41.4465 49.8246 42.2204 49.4752 43.5244L41.6912 72.5746C41.3418 73.8787 42.1156 75.219 43.4197 75.5685L72.4699 83.3524C73.7739 83.7019 75.1143 82.928 75.4637 81.624L83.2477 52.5737C83.5971 51.2697 82.8232 49.9293 81.5192 49.5799L52.469 41.7959Z" fill="#05070F"/>
<path d="M69.4477 59.8937C68.936 59.7566 68.6326 59.3539 68.5374 58.6857C68.4506 58.114 68.3263 57.7465 68.1644 57.5831C68.0201 57.4502 67.6161 57.2948 66.9525 57.117C65.7932 56.8063 64.2681 57.3489 62.3773 58.7447C59.82 60.6132 58.2553 62.6148 57.6833 64.7495C57.407 65.7809 57.501 66.7573 57.9653 67.6787C58.4393 68.6284 59.156 69.2318 60.1154 69.4888C60.9389 69.7095 61.8232 69.7194 62.7683 69.5184C63.2963 69.4028 64.1343 69.1218 65.2823 68.6752C65.828 68.4615 66.2168 68.3858 66.4486 68.4479C66.7925 68.54 67.0449 68.7491 67.2061 69.075C67.3694 69.393 67.4082 69.7119 67.3225 70.0317C67.2261 70.3915 66.9896 70.6666 66.6129 70.8571C64.0008 72.1624 61.6154 72.5259 59.4566 71.9474C57.8016 71.504 56.5727 70.4934 55.77 68.9158C54.9966 67.3889 54.8348 65.7859 55.2847 64.1068C56.011 61.3964 57.8908 58.9222 60.9241 56.6843C63.4553 54.8174 65.6844 54.1421 67.6113 54.6584C68.003 54.7634 68.3495 54.8776 68.6506 55.0012C68.9538 55.1167 69.2147 55.2466 69.4331 55.3908C69.8222 55.058 70.2406 54.9516 70.6884 55.0716C71.2401 55.2194 71.4904 55.6764 71.4393 56.4425C71.3937 57.1244 71.2445 57.9371 70.9917 58.8806C70.9039 59.2084 70.7388 59.4727 70.4965 59.6734C70.1971 59.9274 69.8475 60.0008 69.4477 59.8937Z" fill="#05070F"/>
<path fill-rule="evenodd" clip-rule="evenodd" d="M36.1861 52.3045H6.11112V82.3796L36.1861 82.3795L36.1861 52.3045ZM6.11112 49.8601C4.76109 49.8601 3.66667 50.9545 3.66667 52.3045V82.3796C3.66667 83.7296 4.76109 84.824 6.11112 84.824H36.1861C37.5362 84.824 38.6306 83.7296 38.6306 82.3795V52.3045C38.6306 50.9545 37.5362 49.8601 36.1861 49.8601H6.11112Z" fill="#05070F"/>
<path d="M24.9224 76.381C23.06 77.1094 20.6803 77.4736 17.7832 77.4736C17.4272 77.4736 17.0879 77.3039 16.765 76.9646C16.4505 76.6335 16.2932 76.29 16.2932 75.934V72.3209C16.2932 71.1372 16.3677 69.4486 16.5167 67.2551C16.6823 64.8878 16.7733 63.1744 16.7899 62.1148C16.7816 61.3533 16.8271 60.2193 16.9264 58.7128C16.9844 58.2989 17.121 58.0258 17.3362 57.8933C18.4619 57.5457 19.7408 57.3719 21.1728 57.3719C22.6296 57.3719 24.0285 57.8685 25.3694 58.8618C26.9173 60.0041 27.6912 61.4154 27.6912 63.0957C27.6912 65.223 26.8635 66.8992 25.208 68.1243C26.4496 68.654 27.3767 69.2417 27.9892 69.8874C28.61 70.533 28.9204 71.2366 28.9204 71.9981C28.9204 72.9997 28.3783 73.9681 27.2939 74.9035C26.5407 75.5657 25.7502 76.0582 24.9224 76.381ZM21.1728 59.9048C20.2705 59.9048 19.6373 59.9337 19.2731 59.9917L19.2483 62.1645L18.9999 66.9696C20.1753 67.0689 20.8044 67.1144 20.8872 67.1061C22.1371 67.0068 23.1594 66.6178 23.954 65.939C24.8066 65.2023 25.2329 64.2546 25.2329 63.0957C25.2329 62.3094 24.7983 61.5809 23.9292 60.9105C23.06 60.24 22.1412 59.9048 21.1728 59.9048ZM22.5634 69.8501L21.2473 69.639C21.1397 69.639 20.9741 69.6473 20.7506 69.6639C20.5354 69.6721 20.3699 69.6763 20.254 69.6763C19.807 69.6763 19.331 69.639 18.8261 69.5645C18.7764 70.6075 18.7516 71.5387 18.7516 72.3582V74.9283C20.9203 74.8538 22.6875 74.5476 24.0533 74.0095C24.6327 73.786 25.1873 73.4384 25.7171 72.9666C26.222 72.5361 26.4745 72.2133 26.4745 71.9981C26.4745 71.6091 25.9447 71.1704 24.8852 70.682C24.0906 70.3095 23.3166 70.0322 22.5634 69.8501Z" fill="#05070F"/>
<path d="M50.6724 29.8502C49.9652 30.1326 48.9879 29.4712 47.7407 27.8658C47.2645 27.2537 46.5312 26.1428 45.5406 24.5329C44.7995 24.9537 43.8501 25.5557 42.6922 26.339L39.8783 28.1981C39.8962 29.3586 39.8268 31.0932 39.6703 33.4018C39.5962 33.9305 39.3478 34.2793 38.925 34.4481C38.6175 34.5709 38.2963 34.57 37.9613 34.4453C37.634 34.3175 37.4043 34.0884 37.2723 33.7579C37.1249 33.3889 37.145 31.7542 37.3326 28.8538C37.1221 28.7062 36.9646 28.5016 36.8603 28.2403C36.6116 27.6176 36.8286 27.0675 37.5113 26.5898C37.7307 24.5948 38.0824 22.2617 38.5665 19.5905C39.2248 15.9495 39.7769 14.04 40.2228 13.8619C40.83 13.6194 41.414 13.8764 41.9746 14.633L44.2483 18.2171L49.1668 25.5448L50.5517 27.1041C51.0233 27.6377 51.3005 28.0083 51.3834 28.2159C51.5154 28.5464 51.5068 28.8708 51.3575 29.1888C51.2082 29.5069 50.9799 29.7274 50.6724 29.8502ZM41.3386 18.2962L40.1637 24.9289C40.9987 24.3191 42.2941 23.4675 44.0501 22.3741L41.3386 18.2962Z" fill="#FF0064"/>
</svg>
