<svg width="88" height="88" viewBox="0 0 88 88" fill="none" xmlns="http://www.w3.org/2000/svg">
<path fill-rule="evenodd" clip-rule="evenodd" d="M57.7408 5.21324C57.7408 4.4782 58.3367 3.88232 59.0718 3.88232C71.6809 3.88232 81.9919 14.1953 81.9919 26.8056C81.9919 39.4144 71.6808 49.7273 59.0718 49.7273H42.9388C30.4087 49.7273 20.147 39.5456 20.0168 27.0463C20.0025 26.9682 19.9951 26.8878 19.9951 26.8056C19.9951 26.0706 20.591 25.4747 21.326 25.4747H57.7408V5.21324ZM22.721 28.1365H59.0718C59.8068 28.1365 60.4027 27.5407 60.4027 26.8056V6.58778C70.9278 7.27953 79.3301 16.1121 79.3301 26.8056C79.3301 37.9446 70.2105 47.0655 59.0718 47.0655H42.9388C32.2454 47.0655 23.4127 38.6619 22.721 28.1365Z" fill="#05070F"/>
<path fill-rule="evenodd" clip-rule="evenodd" d="M5.5663 11.0454C6.08606 10.5257 6.92875 10.5257 7.4485 11.0454L22.2677 25.8646C22.7874 26.3844 22.7874 27.227 22.2677 27.7468C21.7479 28.2666 20.9052 28.2666 20.3855 27.7468L5.5663 12.9276C5.04654 12.4079 5.04654 11.5652 5.5663 11.0454Z" fill="#05070F"/>
<path fill-rule="evenodd" clip-rule="evenodd" d="M37.2314 46.884C37.7511 46.3642 38.5938 46.3642 39.1136 46.884L62.0579 69.8284C62.5777 70.3481 62.5777 71.1908 62.0579 71.7106C61.5382 72.2303 60.6955 72.2303 60.1757 71.7106L37.2314 48.7662C36.7116 48.2464 36.7116 47.4038 37.2314 46.884Z" fill="#05070F"/>
<path fill-rule="evenodd" clip-rule="evenodd" d="M68.7672 67.7644C64.9866 67.7644 61.9215 70.8283 61.9215 74.6101C61.9215 78.3905 64.9868 81.4558 68.7672 81.4558C72.5476 81.4558 75.6129 78.3905 75.6129 74.6101C75.6129 70.8283 72.5478 67.7644 68.7672 67.7644ZM59.2597 74.6101C59.2597 69.3579 63.5169 65.1026 68.7672 65.1026C74.0175 65.1026 78.2747 69.3579 78.2747 74.6101C78.2747 79.8606 74.0177 84.1176 68.7672 84.1176C63.5167 84.1176 59.2597 79.8606 59.2597 74.6101Z" fill="#05070F"/>
<path fill-rule="evenodd" clip-rule="evenodd" d="M65.3936 46.6796C65.9134 47.1993 65.9134 48.042 65.3936 48.5618L44.193 69.7624C43.6733 70.2821 42.8306 70.2821 42.3108 69.7624C41.7911 69.2426 41.7911 68.3999 42.3108 67.8802L63.5114 46.6796C64.0312 46.1598 64.8739 46.1598 65.3936 46.6796Z" fill="#05070F"/>
<path fill-rule="evenodd" clip-rule="evenodd" d="M35.9913 67.7644C32.2107 67.7644 29.1456 70.8283 29.1456 74.6101C29.1456 78.3905 32.2108 81.4558 35.9913 81.4558C39.7717 81.4558 42.8369 78.3905 42.8369 74.6101C42.8369 70.8283 39.7718 67.7644 35.9913 67.7644ZM26.4837 74.6101C26.4837 69.3579 30.7409 65.1026 35.9913 65.1026C41.2416 65.1026 45.4988 69.3579 45.4988 74.6101C45.4988 79.8606 41.2418 84.1176 35.9913 84.1176C30.7408 84.1176 26.4837 79.8606 26.4837 74.6101Z" fill="#05070F"/>
<path fill-rule="evenodd" clip-rule="evenodd" d="M68.7681 71.5518C70.4578 71.5518 71.8266 72.9206 71.8266 74.6103C71.8266 76.2985 70.4578 77.6673 68.7681 77.6673C67.0799 77.6673 65.7111 76.2985 65.7111 74.6103C65.7111 72.9206 67.0799 71.5518 68.7681 71.5518Z" fill="#FF0064"/>
<path fill-rule="evenodd" clip-rule="evenodd" d="M35.9891 71.5518C37.6788 71.5518 39.0476 72.9206 39.0476 74.6103C39.0476 76.2985 37.6788 77.6673 35.9891 77.6673C34.3009 77.6673 32.9321 76.2985 32.9321 74.6103C32.9321 72.9206 34.3009 71.5518 35.9891 71.5518Z" fill="#FF0064"/>
</svg>
