<svg width="88" height="88" viewBox="0 0 88 88" fill="none" xmlns="http://www.w3.org/2000/svg">
<path fill-rule="evenodd" clip-rule="evenodd" d="M45.3276 84.002C45.5844 83.8957 45.8072 83.7969 45.9917 83.7116C46.0897 83.7592 46.1984 83.8106 46.3172 83.8648C46.8943 84.1281 47.7171 84.4601 48.7157 84.7437C50.7016 85.3076 53.4568 85.7002 56.3713 84.9C59.4498 84.0549 61.5749 81.6839 63.1094 79.0526C64.6468 76.4164 65.7031 73.3245 66.5523 70.7563C67.0389 69.285 67.4903 67.7856 67.9432 66.2815C69.1256 62.3543 70.3179 58.3946 72.1702 54.8162C73.4221 52.3975 75.5803 49.4535 77.7193 46.7034C78.4182 45.8048 79.1207 44.9203 79.7831 44.0862C81.0978 42.4309 82.2546 40.9744 82.9119 40.0014C83.8628 38.5937 84.9188 36.919 85.3171 35.1906C85.5222 34.3009 85.5644 33.3559 85.3075 32.403C85.0489 31.4436 84.5086 30.5569 83.6717 29.7588C82.7765 28.905 81.7704 28.4864 80.7201 28.4738C79.7078 28.4617 78.7889 28.8281 78.0249 29.2874C76.5795 30.1564 75.3543 31.5715 74.6398 32.3969L74.5667 32.4813C73.8205 33.3422 73.0313 34.4381 72.2162 35.57L72.1138 35.7121C71.2476 36.9146 70.3297 38.1823 69.3195 39.3954C68.9204 39.8745 68.4731 40.453 68.0158 41.0443C67.856 41.251 67.6949 41.4592 67.5343 41.6654C66.8992 42.4804 66.2511 43.2884 65.6184 43.9725C64.9706 44.6728 64.4127 45.1609 63.9699 45.408C63.8762 45.4603 63.7996 45.495 63.7389 45.5178C63.7399 45.3031 63.7764 44.9888 63.8726 44.5599C64.11 43.5021 64.6307 42.0832 65.32 40.4475C65.9958 38.8442 66.8039 37.1005 67.602 35.3787L67.6297 35.319C68.4312 33.5896 69.2237 31.8783 69.8319 30.4052C71.0239 27.518 72.7518 23.1322 73.6225 19.2504C74.0549 17.3227 74.3035 15.405 74.1095 13.8154C73.9145 12.2184 73.2124 10.634 71.467 10.0264C70.1463 9.56676 68.9164 9.54415 67.8037 9.89709C66.7071 10.2449 65.8243 10.9254 65.1227 11.7098C63.7465 13.2485 62.9119 15.3657 62.405 16.9189C61.5975 19.3934 58.7503 25.7064 56.8686 29.8784C56.4968 30.7029 56.1626 31.4438 55.8894 32.0549C55.5032 32.9186 55.1366 33.8345 54.7906 34.6991L54.7023 34.9196C54.3248 35.8621 53.9742 36.7266 53.6289 37.4521C53.3651 38.0065 53.1339 38.4145 52.9365 38.6904C52.8748 38.2958 52.8723 37.7354 52.9336 37.0156C53.0251 35.9404 53.2306 34.7502 53.438 33.5498C53.5385 32.9675 53.6395 32.3828 53.7281 31.8076C53.9991 30.048 54.0971 26.9179 54.1708 23.6796C54.1846 23.0712 54.1976 22.4566 54.2105 21.8428C54.2677 19.1346 54.3247 16.44 54.4534 14.3389C54.6157 11.6889 54.5474 8.89043 53.9087 6.70711C53.588 5.6106 53.096 4.57177 52.3278 3.79362C51.5268 2.98223 50.4814 2.51428 49.227 2.51428C46.871 2.51428 45.1702 3.80389 44.1156 5.50298C43.0834 7.16595 42.6223 9.27072 42.6223 11.2137C42.6223 12.8098 42.4806 15.5588 42.3355 18.3743L42.2997 19.0695C42.1458 22.0659 41.9984 25.0741 42.054 26.5389C42.105 27.8834 42.0783 30.7535 41.7103 33.2572C41.5245 34.5211 41.2646 35.5975 40.9338 36.3255C40.6737 36.8979 40.488 37.0195 40.4407 37.0411C40.2482 37.0364 40.0468 36.9599 39.787 36.6242C39.4893 36.2394 39.2066 35.6166 38.9489 34.7472C38.5795 33.501 38.3369 32.044 38.0888 30.5542C37.9861 29.9376 37.8825 29.3155 37.7686 28.7004C37.0306 24.7151 36.1681 20.344 35.2134 15.7486C34.722 13.3833 33.9584 11.2737 32.761 9.82619C32.1495 9.0869 31.4041 8.49571 30.5064 8.15596C29.6029 7.81404 28.6227 7.75644 27.5951 7.96776C25.6353 8.3708 24.3373 9.33722 23.5936 10.7326C22.8968 12.04 22.7693 13.5799 22.7693 14.9807C22.7693 16.4891 23.1457 18.5476 23.5737 20.6589C23.681 21.1884 23.7924 21.7252 23.9046 22.2652C24.252 23.9379 24.6059 25.6424 24.864 27.2625C25.2642 29.7757 25.436 31.4289 25.7121 34.0868C25.9117 36.0076 26.1657 38.453 26.5999 42.1269C27.1109 46.4503 27.3956 49.9509 27.4126 52.4934C27.4212 53.7681 27.3617 54.7585 27.2437 55.4726C27.1331 56.1424 26.9982 56.3844 26.973 56.4295L26.9698 56.4353C26.9458 56.4473 26.8725 56.4728 26.7065 56.4679C26.439 56.46 26.0516 56.3716 25.5677 56.1635C24.6028 55.7487 23.5128 54.9701 22.679 54.068C21.6597 52.965 18.1436 49.8334 14.4831 47.4661C12.6582 46.2859 10.7029 45.2327 8.94582 44.7477C7.25182 44.2802 5.22461 44.2217 3.96496 45.8495C3.09432 46.9746 2.60868 48.0848 2.5267 49.2067C2.44416 50.3361 2.78169 51.3263 3.2842 52.1843C3.77548 53.0231 4.45198 53.7816 5.11244 54.4682C5.37254 54.7386 5.62389 54.992 5.86963 55.2397C6.28722 55.6606 6.68863 56.0653 7.08928 56.5094C8.00949 57.5294 9.25732 58.8908 10.6154 60.3726C13.1284 63.1143 16.0189 66.2679 17.91 68.4328C18.5903 69.2117 19.4173 70.358 20.4128 71.7535L20.6112 72.0318C21.5428 73.3386 22.5939 74.8129 23.736 76.2778C26.1559 79.3819 29.1222 82.6309 32.4881 84.2365C35.9228 85.8749 39.4882 85.6303 42.1098 85.0294C43.4301 84.7268 44.5428 84.327 45.3276 84.002ZM46.2519 6.82893C45.5233 8.0027 45.1366 9.61907 45.1366 11.2137C45.1366 12.879 44.9915 15.6926 44.848 18.4731L44.8107 19.1984C44.6535 22.2596 44.5163 25.1213 44.5665 26.4436C44.6212 27.8861 44.5951 30.9197 44.1978 33.6228C44.0009 34.9624 43.7001 36.3152 43.2228 37.3656C42.7856 38.3278 41.9498 39.5556 40.4606 39.5556C39.2873 39.5556 38.4086 38.9512 37.7985 38.1629C37.2175 37.412 36.8277 36.4378 36.5383 35.4618C36.1219 34.0569 35.8373 32.3484 35.5793 30.8C35.4831 30.2225 35.3906 29.6672 35.2963 29.1582C34.5621 25.1934 33.7032 20.8404 32.7517 16.2601C32.2899 14.0376 31.6322 12.4061 30.8237 11.4288C30.4323 10.9556 30.0285 10.6634 29.6165 10.5075C29.2102 10.3537 28.7198 10.3034 28.1016 10.4305C26.7699 10.7044 26.1569 11.2689 25.8125 11.9152C25.4212 12.6494 25.2835 13.6618 25.2835 14.9807C25.2835 16.192 25.5997 17.9976 26.0378 20.1594C26.1397 20.662 26.2475 21.181 26.3574 21.7101C26.7074 23.3954 27.0787 25.1829 27.3469 26.867C27.7559 29.4345 27.9378 31.1812 28.2224 33.9151C28.4237 35.8477 28.6763 38.2737 29.0968 41.8318C29.6111 46.1831 29.9089 49.7932 29.9269 52.4765C29.9358 53.8147 29.8758 54.9661 29.7244 55.8825C29.5855 56.7231 29.3302 57.6474 28.7259 58.2365C28.1149 58.8321 27.3293 59.0015 26.6327 58.9811C25.9427 58.9608 25.2328 58.7564 24.5745 58.4733C23.2548 57.9059 21.8811 56.9091 20.8325 55.7745C19.9695 54.8406 16.619 51.8417 13.1177 49.5773C11.3617 48.4417 9.66229 47.5538 8.2769 47.1714C6.82845 46.7716 6.22551 47.0366 5.95339 47.3883C5.29226 48.2426 5.07057 48.8936 5.0343 49.3899C4.99857 49.8788 5.13184 50.3639 5.45378 50.9136C5.78695 51.4825 6.28857 52.0641 6.92448 52.7252C7.12851 52.9373 7.354 53.1649 7.58891 53.4021C8.03823 53.8556 8.52204 54.344 8.95615 54.8252C9.84837 55.8142 11.0775 57.1554 12.4244 58.6249L12.4256 58.6262C14.9536 61.3845 17.8961 64.595 19.8036 66.7788C20.5825 67.6705 21.4867 68.9293 22.4597 70.2934L22.6532 70.5648C23.5895 71.8781 24.6113 73.3113 25.7188 74.7319C28.1154 77.8059 30.7762 80.6342 33.5706 81.9672C36.2964 83.2674 39.2204 83.1122 41.5481 82.5787C42.7025 82.3141 43.6795 81.9631 44.3657 81.679C44.7079 81.5373 44.9754 81.4132 45.1537 81.3266C45.2428 81.2833 45.3094 81.2494 45.3518 81.2274L45.3968 81.2038L45.4046 81.1996C45.9015 81.0877 46.1714 81.0743 46.6458 81.2188L46.6482 81.2202L46.6767 81.2363C46.7043 81.2518 46.7492 81.2764 46.8102 81.3085C46.9323 81.3729 47.1186 81.4669 47.3606 81.5772C47.8456 81.7985 48.5482 82.0824 49.4025 82.325C51.1221 82.8133 53.382 83.1134 55.7057 82.4755C57.8654 81.8826 59.5478 80.1689 60.9375 77.7859C62.3244 75.4078 63.3091 72.5556 64.1652 69.9669C64.6059 68.6342 65.0311 67.2219 65.4685 65.769C66.6725 61.7697 67.9692 57.4626 69.9373 53.6604C71.3078 51.0127 73.5999 47.9044 75.7346 45.1598C76.4987 44.1774 77.2373 43.2477 77.9145 42.3954C79.1763 40.8072 80.225 39.4872 80.8284 38.594C81.7931 37.1658 82.5863 35.844 82.8671 34.6259C83.0016 34.0423 83.0064 33.5266 82.8799 33.0574C82.7552 32.5948 82.4818 32.0983 81.9365 31.5783C81.4496 31.114 81.0366 30.9921 80.6901 30.9879C80.3055 30.9833 79.8497 31.1241 79.3203 31.4423C78.2296 32.098 77.228 33.2497 76.4666 34.1282C75.7963 34.9014 75.066 35.9154 74.215 37.0968L74.154 37.1816C73.2916 38.3788 72.3258 39.7144 71.2515 41.0044C70.884 41.4457 70.4788 41.9696 70.0319 42.5475L70.0304 42.5494C69.8652 42.763 69.6943 42.9839 69.5175 43.2108C68.8767 44.0332 68.1738 44.9125 67.4642 45.6797C66.7697 46.4306 65.994 47.1577 65.1954 47.6034C64.3977 48.0487 63.2709 48.3641 62.212 47.6705C61.5103 47.2109 61.2924 46.4646 61.2401 45.8854C61.1872 45.2988 61.2761 44.6478 61.4193 44.0094C61.7087 42.7197 62.3049 41.1276 63.0031 39.471C63.6961 37.8267 64.52 36.0492 65.3107 34.3432L65.3485 34.2617C66.1563 32.5189 66.9242 30.8595 67.5079 29.4457C68.6997 26.5592 70.3505 22.3503 71.1692 18.7002C71.5815 16.8619 71.7552 15.2794 71.6137 14.12C71.4731 12.968 71.0818 12.5546 70.6405 12.401C69.7743 12.0995 69.1034 12.1226 68.5639 12.2937C68.0083 12.4699 67.4875 12.8372 66.9967 13.3859C65.9881 14.5137 65.2827 16.2053 64.7953 17.6989C63.9392 20.3222 60.9976 26.8416 59.1267 30.9882L59.1258 30.9902C58.7646 31.7906 58.4432 32.5029 58.1847 33.0812C57.8199 33.8969 57.4715 34.7675 57.1215 35.6418L57.0363 35.8545C56.6633 36.7857 56.2842 37.7237 55.8993 38.5325C55.5256 39.3178 55.0919 40.1022 54.574 40.6539C54.0481 41.2141 53.1364 41.8117 52.0209 41.368C51.0202 40.9699 50.6395 40.029 50.492 39.3006C50.3394 38.5464 50.3552 37.6618 50.4284 36.8024C50.5291 35.6187 50.7675 34.2351 50.9842 32.9779L50.9847 32.9748C51.0795 32.4248 51.1701 31.899 51.2431 31.4249C51.4833 29.865 51.582 26.9269 51.6571 23.6225C51.6707 23.0269 51.6834 22.4213 51.6963 21.8132C51.7534 19.1031 51.8117 16.3419 51.9438 14.1852C52.1011 11.6174 52.0097 9.17051 51.4956 7.41299C51.2399 6.53906 50.9073 5.93358 50.5385 5.56003C50.2026 5.21972 49.7985 5.02857 49.227 5.02857C47.9309 5.02857 46.958 5.69129 46.2519 6.82893Z" fill="#05070F"/>
<path fill-rule="evenodd" clip-rule="evenodd" d="M56.242 51.95C55.2196 51.2716 53.9909 51.0794 52.8669 51.2075C51.7428 51.3356 50.6165 51.7944 49.7579 52.5593C49.1875 53.0676 48.658 53.6179 48.1749 54.2037C47.8113 53.229 47.3044 52.2668 46.5509 51.4288C45.7784 50.5697 44.7217 49.9125 43.5953 49.5954C42.4678 49.2779 41.1737 49.2784 40.0145 49.8902C37.7759 51.0717 36.7407 52.8968 36.6731 54.9863C36.6093 56.9549 37.4044 59.0331 38.4764 60.9172C40.6275 64.6981 44.255 68.3167 46.4748 69.8606L46.4781 69.8631C46.5232 69.8975 46.9916 70.2534 47.6125 70.1745C48.171 70.1034 48.5172 69.7195 48.5553 69.6773L48.5585 69.6738C49.5867 68.6195 50.6484 67.5947 51.726 66.5584L51.9385 66.3541C52.9431 65.3883 53.9606 64.4102 54.9545 63.4059C55.1439 63.2148 55.5044 62.7681 55.7845 62.4209L55.912 62.2628C56.1808 61.9292 56.3948 61.6637 56.4797 61.5699L56.6418 61.3501C56.6729 61.3021 56.7158 61.2346 56.7678 61.1496C56.8716 60.98 57.0126 60.7391 57.1684 60.4436C57.477 59.8583 57.8585 59.0308 58.1168 58.0998C58.3725 57.1784 58.531 56.0725 58.3073 54.9695C58.0748 53.8231 57.4398 52.7448 56.242 51.95ZM54.8519 54.045C54.4233 53.7606 53.8193 53.6295 53.1516 53.7056C52.7755 53.7485 52.4132 53.8537 52.0917 54.0058C51.8424 54.1237 51.6178 54.2697 51.4304 54.4366C50.3542 55.3956 49.4572 56.5308 48.7897 57.7758C48.5395 58.2423 48.0239 58.5021 47.5001 58.4256C47.2902 58.395 47.0969 58.3129 46.9339 58.1922C46.6902 58.0117 46.5139 57.7449 46.4502 57.4341C46.094 55.6962 45.6587 54.1969 44.6812 53.1099C44.229 52.6069 43.5853 52.2046 42.914 52.0156C42.2438 51.8269 41.6429 51.8738 41.1881 52.1138C39.7312 52.8827 39.2238 53.9002 39.186 55.0677C39.1443 56.3563 39.6807 57.9497 40.6617 59.6738C42.4279 62.778 45.3443 65.8078 47.3145 67.3539L47.4453 67.2225C47.8943 66.7728 48.3469 66.3286 48.7998 65.8885C49.1946 65.5049 49.5898 65.1244 49.9832 64.7461L50.191 64.5464C51.2006 63.5758 52.1973 62.6175 53.1685 61.6363C53.1685 61.6363 53.1756 61.6289 53.188 61.6153C53.2016 61.6003 53.2191 61.5805 53.2408 61.5555C53.2845 61.5052 53.3383 61.4415 53.4009 61.3661C53.5261 61.2152 53.6745 61.0321 53.8275 60.8424L53.9513 60.6888C54.1672 60.4206 54.3953 60.1374 54.5434 59.9648C54.5632 59.934 54.5903 59.8911 54.6232 59.8373C54.7034 59.7063 54.8171 59.5123 54.9443 59.271C55.2018 58.7826 55.4996 58.1284 55.6941 57.4275C55.8912 56.7171 55.9592 56.0408 55.8432 55.4692C55.7361 54.941 55.4654 54.4521 54.8519 54.045Z" fill="#FF0064"/>
</svg>
