<svg width="88" height="88" viewBox="0 0 88 88" fill="none" xmlns="http://www.w3.org/2000/svg">
<path fill-rule="evenodd" clip-rule="evenodd" d="M1.02295 68.9762C1.02295 68.4226 1.47175 67.9738 2.02537 67.9738H67.6131C68.1667 67.9738 68.6155 68.4226 68.6155 68.9762C68.6155 69.5298 68.1667 69.9786 67.6131 69.9786H2.02537C1.47175 69.9786 1.02295 69.5298 1.02295 68.9762ZM77.763 68.9762C77.763 68.4226 78.2118 67.9738 78.7655 67.9738H86.9976C87.5513 67.9738 88.0001 68.4226 88.0001 68.9762C88.0001 69.5298 87.5513 69.9786 86.9976 69.9786H78.7655C78.2118 69.9786 77.763 69.5298 77.763 68.9762Z" fill="#05070F"/>
<path fill-rule="evenodd" clip-rule="evenodd" d="M3.02779 12.2347V67.6235C9.76807 65.6369 16.5158 64.6415 23.2684 64.6415C30.021 64.6415 36.7688 65.6369 43.5091 67.6235V12.2347C36.7552 10.1868 30.0092 9.16512 23.2684 9.16512C16.5276 9.16512 9.78171 10.1868 3.02779 12.2347ZM1.7253 10.5385C8.89874 8.288 16.0808 7.16028 23.2684 7.16028C30.456 7.16028 37.6381 8.288 44.8116 10.5385C45.2295 10.6696 45.5139 11.0569 45.5139 11.4949V68.9762C45.5139 69.2953 45.362 69.5953 45.1048 69.7842C44.8476 69.973 44.5159 70.0282 44.2114 69.9326C37.2228 67.7401 30.2429 66.6464 23.2684 66.6464C16.294 66.6464 9.31404 67.7401 2.32543 69.9326C2.02098 70.0282 1.68924 69.973 1.43205 69.7842C1.17486 69.5953 1.02295 69.2953 1.02295 68.9762V11.4949C1.02295 11.0569 1.30736 10.6696 1.7253 10.5385Z" fill="#05070F"/>
<path fill-rule="evenodd" clip-rule="evenodd" d="M68.6703 65.4746C69.2239 65.4746 69.6727 65.9234 69.6727 66.477V77.3504L72.9526 74.0025C73.1411 73.81 73.3992 73.7016 73.6686 73.7016C73.9381 73.7016 74.1961 73.81 74.3847 74.0025L77.6646 77.3504V67.8801C77.6646 67.3264 78.1134 66.8776 78.667 66.8776C79.2206 66.8776 79.6694 67.3264 79.6694 67.8801V79.806C79.6694 80.2133 79.423 80.5801 79.0459 80.7341C78.6688 80.888 78.236 80.7984 77.951 80.5075L73.6686 76.1364L69.3863 80.5075C69.1013 80.7984 68.6685 80.888 68.2914 80.7341C67.9143 80.5801 67.6679 80.2133 67.6679 79.806V66.477C67.6679 65.9234 68.1167 65.4746 68.6703 65.4746Z" fill="#05070F"/>
<path fill-rule="evenodd" clip-rule="evenodd" d="M45.5139 12.2347V67.6235C52.2542 65.6369 59.0019 64.6415 65.7546 64.6415C72.5072 64.6415 79.2549 65.6369 85.9952 67.6235V12.2347C79.2413 10.1868 72.4953 9.16512 65.7546 9.16512C59.0138 9.16512 52.2678 10.1868 45.5139 12.2347ZM44.2114 10.5385C51.3849 8.288 58.567 7.16028 65.7546 7.16028C72.9422 7.16028 80.1243 8.288 87.2977 10.5385C87.7156 10.6696 88 11.0569 88 11.4949L88.0001 68.9762C88.0001 69.2953 87.8481 69.5953 87.591 69.7842C87.3338 69.973 87.002 70.0282 86.6976 69.9326C79.709 67.7401 72.729 66.6464 65.7546 66.6464C58.7801 66.6464 51.8002 67.7401 44.8116 69.9326C44.5071 70.0282 44.1754 69.973 43.9182 69.7842C43.661 69.5953 43.5091 69.2953 43.5091 68.9762V11.4949C43.5091 11.0569 43.7935 10.6696 44.2114 10.5385Z" fill="#05070F"/>
<path fill-rule="evenodd" clip-rule="evenodd" d="M10.0046 22.2194C14.5524 20.5139 19.1144 19.6564 23.6856 19.6564C28.2567 19.6564 32.8187 20.5139 37.3665 22.2194C37.8849 22.4138 38.1475 22.9916 37.9531 23.5099C37.7587 24.0283 37.1809 24.291 36.6626 24.0966C32.3244 22.4698 28.0004 21.6612 23.6856 21.6612C19.3707 21.6612 15.0467 22.4698 10.7085 24.0966C10.1902 24.291 9.61237 24.0283 9.41798 23.5099C9.22359 22.9916 9.48623 22.4138 10.0046 22.2194Z" fill="#FF0064"/>
<path fill-rule="evenodd" clip-rule="evenodd" d="M10.0046 31.3831C14.5524 29.6777 19.1144 28.8201 23.6856 28.8201C28.2567 28.8201 32.8187 29.6777 37.3665 31.3831C37.8849 31.5775 38.1475 32.1553 37.9531 32.6737C37.7587 33.192 37.1809 33.4547 36.6626 33.2603C32.3244 31.6335 28.0004 30.8249 23.6856 30.8249C19.3707 30.8249 15.0467 31.6335 10.7085 33.2603C10.1902 33.4547 9.61237 33.192 9.41798 32.6737C9.22359 32.1553 9.48623 31.5775 10.0046 31.3831Z" fill="#FF0064"/>
<path fill-rule="evenodd" clip-rule="evenodd" d="M10.0046 40.5467C14.5524 38.8413 19.1144 37.9837 23.6856 37.9837C28.2567 37.9837 32.8187 38.8413 37.3665 40.5467C37.8849 40.7411 38.1475 41.3189 37.9531 41.8373C37.7587 42.3557 37.1809 42.6183 36.6626 42.4239C32.3244 40.7971 28.0004 39.9886 23.6856 39.9886C19.3707 39.9886 15.0467 40.7971 10.7085 42.4239C10.1902 42.6183 9.61237 42.3557 9.41798 41.8373C9.22359 41.3189 9.48623 40.7411 10.0046 40.5467Z" fill="#FF0064"/>
<path fill-rule="evenodd" clip-rule="evenodd" d="M52.4907 22.2194C57.0386 20.5139 61.6005 19.6564 66.1717 19.6564C70.7429 19.6564 75.3048 20.5139 79.8527 22.2194C80.371 22.4138 80.6337 22.9916 80.4393 23.5099C80.2449 24.0283 79.6671 24.291 79.1487 24.0966C74.8106 22.4698 70.4865 21.6612 66.1717 21.6612C61.8569 21.6612 57.5328 22.4698 53.1947 24.0966C52.6763 24.291 52.0985 24.0283 51.9041 23.5099C51.7097 22.9916 51.9724 22.4138 52.4907 22.2194Z" fill="#FF0064"/>
<path fill-rule="evenodd" clip-rule="evenodd" d="M52.4907 31.3831C57.0386 29.6777 61.6005 28.8201 66.1717 28.8201C70.7429 28.8201 75.3048 29.6777 79.8527 31.3831C80.371 31.5775 80.6337 32.1553 80.4393 32.6737C80.2449 33.192 79.6671 33.4547 79.1487 33.2603C74.8106 31.6335 70.4865 30.8249 66.1717 30.8249C61.8569 30.8249 57.5328 31.6335 53.1947 33.2603C52.6763 33.4547 52.0985 33.192 51.9041 32.6737C51.7097 32.1553 51.9724 31.5775 52.4907 31.3831Z" fill="#FF0064"/>
<path fill-rule="evenodd" clip-rule="evenodd" d="M52.4907 40.5467C57.0386 38.8413 61.6005 37.9837 66.1717 37.9837C70.7429 37.9837 75.3048 38.8413 79.8527 40.5467C80.371 40.7411 80.6337 41.3189 80.4393 41.8373C80.2449 42.3557 79.6671 42.6183 79.1487 42.4239C74.8106 40.7971 70.4865 39.9886 66.1717 39.9886C61.8569 39.9886 57.5328 40.7971 53.1947 42.4239C52.6763 42.6183 52.0985 42.3557 51.9041 41.8373C51.7097 41.3189 51.9724 40.7411 52.4907 40.5467Z" fill="#FF0064"/>
</svg>
