<svg width="80" height="80" viewBox="0 0 80 80" fill="none" xmlns="http://www.w3.org/2000/svg">
<path fill-rule="evenodd" clip-rule="evenodd" d="M74.1667 16.6667C75.5474 16.6667 76.6667 17.786 76.6667 19.1667V47.5127L76.6666 47.5261C76.6592 48.9068 75.534 50.0201 74.1533 50.0127L70.2084 49.9915V56.0529C70.2084 56.2303 70.1518 56.403 70.0468 56.546C69.7745 56.917 69.253 56.9971 68.8819 56.7247L59.7614 50.0306H54.2188C53.7585 50.0306 53.3854 50.4037 53.3854 50.8639C53.3854 51.3242 53.7585 51.6973 54.2188 51.6973H59.2154L67.8958 58.0683C69.0089 58.8853 70.5735 58.6452 71.3904 57.5322C71.7053 57.1032 71.875 56.585 71.875 56.0529V51.6671L74.1444 51.6793C76.4455 51.6916 78.321 49.8362 78.3333 47.535L78.3334 47.5127V19.1667C78.3334 16.8655 76.4679 15 74.1667 15H29.1667C26.8655 15 25 16.8655 25 19.1667C25 19.6269 25.3731 20 25.8334 20C26.2936 20 26.6667 19.6269 26.6667 19.1667C26.6667 17.786 27.786 16.6667 29.1667 16.6667H74.1667Z" fill="#05070F"/>
<path fill-rule="evenodd" clip-rule="evenodd" d="M50 29.1667H70.4065V32.5H50V29.1667Z" fill="#05070F"/>
<path fill-rule="evenodd" clip-rule="evenodd" d="M51.6667 35.8333H70.4065V37.5H51.6667V35.8333Z" fill="#05070F"/>
<path fill-rule="evenodd" clip-rule="evenodd" d="M18.4875 55.8853H48.3334C49.2538 55.8853 50 55.1391 50 54.2186V25C50 24.0795 49.2538 23.3333 48.3334 23.3333H5.00002C4.07955 23.3333 3.33335 24.0795 3.33335 25V54.2186C3.33335 55.1391 4.07955 55.8853 5.00002 55.8853H9.92179L9.92179 62.5934L18.4875 55.8853ZM19.0624 57.552H48.3334C50.1743 57.552 51.6667 56.0596 51.6667 54.2186V25C51.6667 23.1591 50.1743 21.6667 48.3334 21.6667H5.00002C3.15907 21.6667 1.66669 23.1591 1.66669 25V54.2186C1.66669 56.0596 3.15907 57.552 5.00002 57.552H8.25513V62.5934C8.25513 63.9829 9.85545 64.7623 10.9494 63.9055L19.0624 57.552Z" fill="#05070F"/>
<path fill-rule="evenodd" clip-rule="evenodd" d="M36.6667 36.6667H18.3334V48.3333H36.6667V36.6667ZM18.3334 35C17.4129 35 16.6667 35.7462 16.6667 36.6667V48.3333C16.6667 49.2538 17.4129 50 18.3334 50H36.6667C37.5872 50 38.3334 49.2538 38.3334 48.3333V36.6667C38.3334 35.7462 37.5872 35 36.6667 35H18.3334Z" fill="#05070F"/>
<path fill-rule="evenodd" clip-rule="evenodd" d="M22.5 35.8338V36.6667H20.8334V35.8333H21.6667C20.8334 35.8333 20.8334 35.8333 20.8334 35.8333L20.8334 35.8318L20.8334 35.8295L20.8334 35.8227L20.8336 35.8C20.8338 35.781 20.8342 35.7543 20.835 35.7203C20.8366 35.6524 20.8397 35.5555 20.8458 35.4336C20.858 35.1902 20.8821 34.8462 20.9301 34.4347C21.0256 33.616 21.2179 32.5096 21.6093 31.3914C21.9989 30.2783 22.6031 29.1032 23.5529 28.1986C24.522 27.2757 25.8194 26.6667 27.5 26.6667C29.1806 26.6667 30.4779 27.2755 31.4471 28.1983C32.3969 29.1026 33.0011 30.2776 33.3907 31.3904C33.7821 32.5084 33.9744 33.6145 34.0699 34.4331C34.1179 34.8445 34.1421 35.1885 34.1543 35.4318C34.1603 35.5536 34.1635 35.6505 34.165 35.7184C34.1658 35.7524 34.1662 35.7791 34.1665 35.7981L34.1667 35.8208L34.1667 35.8276L34.1667 35.8299V35.8308C34.1667 35.8308 34.1667 35.8314 33.3334 35.8314L34.1667 35.8308V36.6648H32.5V35.8322L32.5 35.83L32.4999 35.8169C32.4998 35.8044 32.4995 35.7844 32.4988 35.7573C32.4976 35.7032 32.495 35.6211 32.4897 35.5151C32.4791 35.3028 32.4576 34.9959 32.4145 34.6262C32.3277 33.8826 32.1554 32.9059 31.8177 31.9411C31.4781 30.971 30.9886 30.0631 30.2978 29.4053C29.6263 28.7659 28.7361 28.3333 27.5 28.3333C26.264 28.3333 25.3738 28.766 24.7023 29.4055C24.0115 30.0635 23.522 30.9717 23.1824 31.942C22.8446 32.9071 22.6723 33.884 22.5856 34.6278C22.5424 34.9976 22.521 35.3045 22.5104 35.5169C22.5051 35.6229 22.5025 35.705 22.5012 35.7592C22.5006 35.7863 22.5003 35.8063 22.5001 35.8188L22.5 35.8319L22.5 35.8338Z" fill="#05070F"/>
<path fill-rule="evenodd" clip-rule="evenodd" d="M27.5 40.8333C27.0398 40.8333 26.6667 41.2064 26.6667 41.6667C26.6667 42.1269 27.0398 42.5 27.5 42.5C27.9602 42.5 28.3333 42.1269 28.3333 41.6667C28.3333 41.2064 27.9602 40.8333 27.5 40.8333ZM25 41.6667C25 40.2859 26.1193 39.1667 27.5 39.1667C28.8807 39.1667 30 40.2859 30 41.6667C30 43.0474 28.8807 44.1667 27.5 44.1667C26.1193 44.1667 25 43.0474 25 41.6667Z" fill="#FF0064"/>
<path fill-rule="evenodd" clip-rule="evenodd" d="M27.5 43.3333C27.9602 43.3333 28.3333 43.7064 28.3333 44.1667V45.8333C28.3333 46.2936 27.9602 46.6667 27.5 46.6667C27.0398 46.6667 26.6667 46.2936 26.6667 45.8333V44.1667C26.6667 43.7064 27.0398 43.3333 27.5 43.3333Z" fill="#FF0064"/>
</svg>
