<svg width="106" height="24" viewBox="0 0 106 24" fill="none" xmlns="http://www.w3.org/2000/svg">
<path fill-rule="evenodd" clip-rule="evenodd" d="M5.89504 6C6.74522 6 7.82211 6.288 7.82211 7.44C7.82211 8.5344 6.97193 9.1104 6.12176 9.1104V10.896L7.02861 11.6448V11.7024L6.12176 12.4512V14.8128C6.74522 14.4672 7.25532 13.776 7.59539 13.0272H7.70875C7.70875 14.928 6.23511 16.7712 3.96798 16.7712C1.87088 16.7712 0.000488281 15.0432 0.000488281 12.7392C0.000488281 10.7808 1.53081 9.168 3.23116 8.7072L3.28784 8.88C2.66437 9.2256 2.04091 9.744 1.8142 10.4928L4.64812 9.2256V13.2L2.3243 14.352C2.94777 15.0432 3.68458 15.2736 4.53476 15.2736C4.98819 15.2736 5.49829 15.216 5.95172 14.928V12.4512L5.10154 11.7024V11.6448L5.95172 10.896V9.1104C5.49829 9.0528 4.64812 8.88 3.85462 8.6496L3.64935 8.58424C2.84414 8.32752 2.22839 8.1312 1.75752 8.1312C1.19073 8.1312 0.964021 8.5344 0.964021 8.7648C0.964021 9.06847 1.0953 9.19426 1.20406 9.29846L1.20406 9.29847L1.20408 9.29848C1.21909 9.31286 1.23367 9.32683 1.24741 9.3408L1.19073 9.456L1.16942 9.44522C0.927393 9.32311 0.340559 9.02704 0.340559 8.1888C0.340559 7.2096 1.13406 6.3456 2.26762 6.3456C2.83441 6.3456 3.51455 6.576 4.25137 6.864C4.87483 7.0944 5.72501 7.3248 6.12176 7.3248C6.63186 7.3248 6.8019 6.9792 6.8019 6.7488C6.8019 6.3456 6.40515 6.1728 5.89504 6.1728V6ZM2.21071 14.1219L2.89085 13.7763V10.2051L1.70061 10.7235C1.58725 11.0691 1.58725 11.5299 1.58725 11.9331C1.58725 12.9123 1.81396 13.6035 2.21071 14.1219ZM8.89916 15.1009L8.16234 15.6769L8.27569 15.7921L8.61577 15.5041L9.86269 16.6561L11.563 15.5041L11.5064 15.3889L11.0529 15.6769L10.4862 15.1009V11.1841L10.9396 10.8385L11.9031 11.6449V15.1585C11.9031 17.3473 11.4497 17.6929 10.4862 18.0385V18.2113C12.0731 18.2689 13.5468 17.7505 13.5468 14.9281V11.1265L14.0569 10.7233L13.9435 10.6081L13.4901 10.9537L12.0731 9.74407L10.4862 10.9537V6.23047H10.3728L8.38905 7.61287V7.72807C8.40605 7.73671 8.42369 7.74534 8.44177 7.7542C8.66485 7.86346 8.95584 8.00597 8.95584 8.59207L8.89916 15.1009ZM17.8538 15.5617L19.2707 14.4673L19.3274 14.6977L16.7769 16.7713L14.8498 15.3313L14.3397 15.7345L14.2263 15.6193L14.7931 15.1585V11.3569L17.7404 9.74414L19.1007 11.8177V11.8753L16.4368 13.7185V14.4097L17.8538 15.5617ZM16.4374 13.4874V10.665L16.5508 10.6074L17.7977 12.6234L16.4374 13.4874ZM29.9836 6.40234C30.0403 6.57514 30.097 6.74794 30.097 6.92074C30.097 7.89994 29.3035 8.59114 28.4533 8.64874V16.7127H28.1133L23.579 8.64874V14.4087C24.3158 14.5239 24.6559 14.6967 25.2793 15.2727L25.6761 14.8119L25.7894 14.9271L24.1458 16.7703C23.8624 16.4247 23.4656 16.1367 23.0122 16.1367C22.5588 16.1367 22.2187 16.3671 22.2187 16.8855C22.2187 17.2887 22.5021 17.5767 23.1256 17.6343V17.7495C22.1053 17.8071 21.1985 17.2887 21.1985 16.1943C21.1985 15.0423 22.162 14.3511 23.3523 14.3511V11.9319H23.0689C22.6721 11.9319 22.4454 12.1623 22.4454 12.4503C22.4454 12.6231 22.5021 12.7383 22.6154 12.8535V12.9687C21.9353 12.7959 21.7086 12.1047 21.7086 11.6439C21.7086 10.7799 22.3887 10.3191 23.4089 10.3191V8.41834C23.2389 8.13034 22.9555 7.84234 22.6721 7.84234C22.2754 7.84234 22.1053 8.24554 22.0487 8.59114H21.8786C21.7653 7.32394 22.5588 6.51754 23.4656 6.51754C24.2591 6.51754 24.6559 7.15114 24.9393 7.61194L28.2833 13.4295V8.64874C27.4898 8.59114 27.2064 8.36074 26.8663 8.07274L26.2995 8.59114L26.1862 8.47594L27.8299 6.57514C28.0566 6.80554 28.3966 7.09354 28.9067 7.09354C29.4735 7.09354 29.7002 6.86314 29.8703 6.40234H29.9836ZM34.2341 14.4673L32.8171 15.5617L31.4002 14.4097V13.7185L34.0641 11.8753V11.8177L32.7038 9.74414L29.7565 11.3569V15.1585L29.1897 15.6193L29.3031 15.7345L29.8132 15.3313L31.7403 16.7713L34.2908 14.6977L34.2341 14.4673ZM31.4 10.665V13.4874L32.7603 12.6234L31.5134 10.6074L31.4 10.665ZM43.4731 10.3783L43.0763 10.6663L41.9995 9.74472L40.7525 10.8967L41.2626 11.4151V15.7351L39.9024 14.8711V11.2999L40.3558 11.0119L39.0522 9.74472L37.8053 10.8967L38.3154 11.4151V15.5623L38.1453 15.6775L36.9551 14.8135V11.3575C36.9551 10.5717 36.5783 10.3329 36.1395 10.0547L36.1049 10.0327C35.7082 9.74472 35.4814 9.57192 35.4814 9.16872C35.4814 8.86339 35.7469 8.69293 35.926 8.57792L35.9261 8.57782L35.9264 8.57768C35.9498 8.5626 35.9718 8.54847 35.9915 8.53512V8.41992C35.5381 8.41992 34.3479 8.88072 34.3479 9.97512C34.3479 10.5028 34.5857 10.7404 34.8435 10.998C34.8671 11.0216 34.8909 11.0454 34.9147 11.0695C34.9406 11.0959 34.9666 11.1218 34.9924 11.1475C35.2476 11.4022 35.4814 11.6354 35.4814 12.1063V15.4471L34.858 15.9079L34.9713 16.0231L35.5381 15.5623L36.8417 16.7143L38.2587 15.7351L39.8457 16.7143L42.8496 14.9287V11.0695L43.5864 10.4935L43.4731 10.3783ZM53.4483 7.72817L54.0151 7.20977L54.1284 7.32497L53.4483 7.90097V14.9858C53.4483 16.1954 52.7114 16.4834 51.8613 16.4834C51.342 16.4834 50.7753 16.3384 50.1609 16.1812L49.9909 16.1378C49.3674 15.965 48.744 15.9074 48.2339 15.9074C47.2703 15.9074 46.8736 16.3106 46.8736 16.7714C46.8736 17.3474 47.327 17.5202 47.7237 17.5202C47.9505 17.5202 48.744 17.405 49.5375 17.2322L49.743 17.1972C50.4 17.085 51.2252 16.9442 51.6346 16.9442C52.5414 16.9442 53.3916 17.4626 53.3916 18.3266C53.3916 19.1906 52.8248 19.7666 51.9179 19.9394V19.8242C52.1447 19.7666 52.3147 19.5938 52.3147 19.1906C52.3147 18.9026 52.1447 18.6722 51.6912 18.6722C51.4179 18.6722 50.8882 18.7838 50.3965 18.8875C50.2765 18.9128 50.1587 18.9376 50.0476 18.9602C49.3674 19.133 48.6873 19.2482 47.8938 19.2482C46.7602 19.2482 46.0234 18.557 46.0234 17.5778C46.0234 16.8866 46.3635 16.253 47.2136 15.965V12.3938H46.9869C46.5335 12.3938 46.2501 12.509 46.2501 12.8546C46.2501 12.9698 46.3068 13.1426 46.5335 13.2578V13.373C45.8534 13.373 45.6266 12.6818 45.6266 12.221C45.6266 11.4722 46.2501 10.8962 47.2703 10.8386V8.59217C47.2703 7.84337 46.9869 7.61297 46.6469 7.61297C46.3068 7.61297 46.1368 7.90097 46.0801 8.24657H45.91C45.91 7.44017 46.5902 6.63377 47.6104 6.63377C48.6306 6.63377 49.0274 7.44017 49.0274 8.01617L49.1407 15.7922C49.5375 15.9074 50.0476 16.0226 50.2176 16.0226L50.1609 6.69137H50.331V7.95857L52.2013 6.57617L53.4483 7.72817ZM51.6906 10.7228C51.5206 10.8956 51.2939 11.0684 51.0105 11.0684C50.7271 11.0684 50.4437 10.8956 50.3304 10.7228V8.18836L50.8971 7.78516L51.6906 8.53396V10.7228ZM51.0105 12.1627C51.2939 12.1627 51.5773 12.3355 51.6906 12.4507V10.9531C51.5773 11.0683 51.2939 11.2411 51.0105 11.2411C50.7271 11.2411 50.4437 11.0683 50.3304 10.9531V12.4507C50.4437 12.3355 50.7271 12.1627 51.0105 12.1627ZM51.6906 15.1593C51.6906 15.6201 51.4072 16.0809 50.7838 16.0809H50.3304V12.6825C50.4437 12.5673 50.7271 12.3945 51.0105 12.3945C51.2709 12.3945 51.4834 12.5404 51.6481 12.6535L51.6906 12.6825V15.1593ZM58.6025 10.4451L59.4565 11.0689V14.9857L58.6701 15.4653L58.6468 15.4456L58.5037 15.5667L58.278 15.7044L58.1933 15.6184L58.9302 15.0424V11.4136L58.3634 10.78L57.91 11.068L57.8533 10.9528L58.6025 10.4451ZM58.6025 10.4451L57.6428 9.74414L54.8656 11.3569V15.1009L54.2988 15.5617L54.3555 15.6769L54.8089 15.3313L56.6226 16.7137L58.278 15.7044L58.3067 15.7336L58.5037 15.5667L58.6701 15.4653L60.007 16.5976L61.7641 15.388L61.7074 15.2728L61.1973 15.5608L60.5172 14.9848V10.9528C60.8005 11.2408 61.1406 11.5288 61.5374 11.5288C62.3309 11.5864 62.7843 10.78 62.841 9.85838H62.7276C62.5576 9.97358 62.3875 10.0888 62.2175 10.0888C61.9908 10.0888 61.7074 9.97358 61.594 9.80078H61.4807L60.5172 10.8952L59.5536 9.80078L58.6025 10.4451ZM56.3951 14.698V10.5508L57.8121 11.5876V15.6772L56.3951 14.698ZM71.642 15.3889L69.715 16.7137L67.1077 12.6817L68.9781 9.74414H69.0915C69.3182 9.97454 69.6583 10.2049 70.055 10.2049C70.4518 10.2049 70.7352 9.97454 70.9052 9.74414H71.0186C70.9619 10.8961 70.1684 11.5873 69.6016 11.5873C69.1737 11.5873 68.9073 11.4232 68.6561 11.2684C68.5746 11.2181 68.4947 11.1689 68.4113 11.1265L68.2413 11.4145L71.0752 15.6769L71.642 15.3313V15.3889ZM64.6702 15.6769L65.407 15.1009V8.59207C65.407 7.98472 65.1445 7.86657 64.9269 7.76869L64.9268 7.76864C64.8968 7.75514 64.8677 7.74203 64.8402 7.72807V7.61287L66.8807 6.23047H66.9373V15.1009L67.5041 15.6769L67.9575 15.3889L68.0709 15.5041L66.3706 16.6561L65.1236 15.5041L64.7836 15.7921L64.6702 15.6769ZM81.05 7.44C81.05 6.288 79.9732 6 79.123 6V6.1728C79.6331 6.1728 80.0298 6.3456 80.0298 6.7488C80.0298 6.9792 79.8598 7.3248 79.3497 7.3248C78.9529 7.3248 78.1028 7.0944 77.4793 6.864L77.2951 6.80614C76.6291 6.59656 76.0148 6.4032 75.4956 6.4032C74.362 6.4032 73.5685 7.2672 73.5685 8.2464C73.5685 9.08464 74.1553 9.38071 74.3974 9.50282L74.4187 9.5136L74.4754 9.3984C74.3053 9.2832 74.1353 9.168 74.1353 8.8224C74.1353 8.592 74.362 8.1888 74.9288 8.1888C75.3996 8.1888 76.0154 8.38511 76.8206 8.64183L77.0259 8.7072C77.8194 8.9376 78.6696 9.1104 79.123 9.168V10.9536L78.2728 11.7024V11.76L79.123 12.5088V14.9856C78.6696 15.2736 78.1595 15.3312 77.706 15.3312C76.8559 15.3312 76.119 15.1008 75.4956 14.4096L77.8194 13.2576V9.2256L74.9855 10.4928C75.2689 9.744 75.8923 9.2256 76.4591 8.8224L76.4024 8.7072C74.7021 9.168 73.1718 10.7232 73.1718 12.6816C73.1718 14.9856 75.0421 16.7136 77.1392 16.7136C79.4064 16.7136 80.88 14.8704 80.88 12.9696H80.7667C80.4266 13.7184 79.9165 14.4096 79.293 14.7552V12.3936L80.1999 11.6448V11.5872L79.3497 10.8384V9.1104C80.1999 9.1104 81.05 8.5344 81.05 7.44ZM75.4401 14.1219L76.1203 13.7763L76.1769 10.2051L74.9867 10.7235C74.8733 11.0691 74.8167 11.5299 74.8167 11.9331C74.8167 12.9123 75.0434 13.6035 75.4401 14.1219ZM83.0341 6.86328H82.9775L81.8439 7.84248V7.90008L82.8074 8.99448H82.9208L84.0544 8.01528V7.95768L83.0341 6.86328ZM84.2819 15.6769L84.7353 15.3889L84.792 15.5617L83.0916 16.7137L81.8447 15.5617L81.448 15.8497L81.3913 15.7345L82.1281 15.1585V11.4145L81.618 10.7809L81.2213 11.0689L81.1079 10.8961L82.7516 9.74414L83.7718 10.9537L84.1685 10.6081L84.2819 10.7233L83.7151 11.1265V15.1009L84.2819 15.6769ZM94.1998 15.3313L93.803 15.6193L93.1796 15.0433V11.1265L93.7464 10.6657L93.633 10.5505L93.1796 10.9537L91.876 9.74414L90.1756 10.9537L88.872 9.74414L87.285 10.9537L86.2648 9.74414L84.6211 10.8961L84.6778 11.0689L85.0746 10.7809L85.6413 11.4145V15.1585L85.1879 15.6193L86.4915 16.7137L87.7384 15.5617L87.2283 15.0433V11.1265L87.7384 10.7809L88.5886 11.5873V15.0433L88.1352 15.5041L89.4388 16.5985L90.6857 15.4465L90.1756 14.9281V11.1265L90.6291 10.8385L91.5359 11.6449V15.1009L91.1392 15.5041L92.4428 16.7137L94.1998 15.5041V15.3313ZM97.7142 15.5617L99.1312 14.4673L99.1879 14.6401L96.6373 16.7137L94.6536 15.2737V11.3569L97.6009 9.74414L98.9612 11.8177V11.8753L96.2973 13.7185V14.4097L97.7142 15.5617ZM96.2977 13.4874V10.665L96.4111 10.6074L97.658 12.6234L96.2977 13.4874ZM103.212 12.1047L104.289 12.9687H104.346V15.0423L101.908 16.5399C101.895 16.5266 101.881 16.5119 101.866 16.4961C101.684 16.3073 101.354 15.9639 100.831 15.9639C100.378 15.9639 100.151 16.2519 100.151 16.4247C100.151 16.6707 100.234 16.7486 100.329 16.8379C100.345 16.8532 100.361 16.8687 100.378 16.8855L100.321 17.0007C99.8679 16.8279 99.5845 16.4247 99.5845 15.8487C99.5845 15.3879 99.7546 14.8119 100.718 13.9479L99.7546 13.1991V11.1255L102.305 9.68555C102.588 10.0311 102.872 10.2615 103.325 10.2615C103.779 10.2615 104.005 9.97355 104.119 9.68555H104.232V10.0311C104.232 10.6071 103.949 11.4711 103.212 12.1047ZM103.665 11.2419C103.268 11.9331 102.418 12.6243 101.908 12.9699L101.285 12.4515V10.4355C101.511 11.0115 102.135 11.4723 102.758 11.4723C103.155 11.4723 103.382 11.4147 103.665 11.2419ZM101.058 14.7544C101.739 14.7544 102.419 15.2152 102.702 15.8488L102.645 13.7752L101.965 13.1992C101.002 13.7752 100.265 14.5816 99.9816 15.0424C100.435 14.7544 100.888 14.7544 101.058 14.7544Z" fill="#8A8A8F"/>
</svg>
