<svg width="149" height="145" viewBox="0 0 149 145" fill="none" xmlns="http://www.w3.org/2000/svg">
<rect x="30.4053" y="-38" width="215" height="43" transform="rotate(45 30.4053 -38)" fill="#FF6E16"/>
<path d="M63.2807 38.0083L65.6764 40.404L76.5263 29.5541L72.0517 46.7792L74.7839 49.5115L88.9402 35.3552L86.5445 32.9596L76.3085 43.1956L80.5851 27.0001L77.437 23.852L63.2807 38.0083ZM78.1389 52.8665L87.3256 62.0532L89.4045 59.9743L82.8511 53.4208L86.989 49.2828L91.9784 54.2722L93.9583 52.2923L88.9689 47.3029L92.8495 43.4223L99.0664 49.6392L101.145 47.5603L92.2952 38.7102L78.1389 52.8665ZM92.2223 66.9498L94.7367 69.4643L107.923 62.0199L100.399 75.1268L103.033 77.7601L120.733 67.1478L118.278 64.6927L105.29 72.6123L112.932 59.347L110.754 57.1691L97.6076 64.8115L105.547 51.962L102.854 49.2693L92.2223 66.9498Z" fill="white"/>
</svg>
