<svg width="118" height="35" viewBox="0 0 118 35" fill="none" xmlns="http://www.w3.org/2000/svg">
<path fill-rule="evenodd" clip-rule="evenodd" d="M56.3332 0.0492544C56.2727 0.115959 56.1818 0.372517 56.1316 0.619178C56.081 0.86584 56.0051 1.1224 55.9626 1.18947C55.9205 1.25691 55.8508 1.61425 55.8083 1.9837C55.7137 2.80688 55.5283 3.80379 55.4161 4.09113C55.3703 4.20878 55.2948 4.42649 55.2483 4.57529C55.1874 4.76917 55.1083 4.8762 54.9686 4.95353L54.774 5.06165L54.5105 4.82085C54.3657 4.68818 54.2188 4.57969 54.1843 4.57969C54.107 4.57969 53.7276 4.2392 53.7276 4.16993C53.7276 4.14244 53.6217 4.0739 53.492 4.01783C53.3622 3.96139 53.1152 3.7763 52.9433 3.60624C52.3386 3.00773 52.1293 3.19575 52.0182 4.43858C51.9303 5.42083 51.8533 5.63047 51.5535 5.70597C51.368 5.75252 50.6336 5.43842 50.5756 5.28815C50.5562 5.23758 50.4422 5.16427 50.3216 5.12432C50.0534 5.03563 49.696 4.82965 49.696 4.76294C49.696 4.67462 49.2654 4.45764 49.0894 4.45764C48.8919 4.45764 48.7116 4.62184 48.8289 4.69477C48.8684 4.71896 48.9722 4.91615 49.0598 5.13275C49.147 5.34936 49.2676 5.58173 49.3277 5.6488C49.4794 5.81923 49.5685 6.00432 49.6751 6.37119C49.7253 6.54492 49.8005 6.71461 49.8423 6.74833C49.9405 6.82786 50.1472 7.23359 50.2469 7.54256C50.2905 7.6767 50.4052 7.88525 50.502 8.00583C50.5987 8.12641 50.7072 8.33202 50.7435 8.46287C50.7798 8.59371 50.8923 8.82168 50.9942 8.96938C51.0957 9.11709 51.217 9.36522 51.2632 9.52025C51.3098 9.67565 51.4333 9.92194 51.5374 10.0674C51.6418 10.213 51.765 10.4589 51.8115 10.6136C51.909 10.9364 52.0519 11.1769 52.1465 11.1769C52.1824 11.1769 52.2799 11.2304 52.3627 11.2956C52.6024 11.4844 52.6816 11.4023 52.7018 10.9445C52.719 10.556 52.7285 10.5344 52.9338 10.405C53.0511 10.331 53.2024 10.217 53.2695 10.1521C53.4168 10.0092 53.673 9.8765 54.0025 9.77204C54.137 9.72953 54.2957 9.64376 54.3555 9.58146C54.4152 9.51915 54.5391 9.45025 54.6303 9.42826C54.722 9.40663 54.8242 9.36851 54.858 9.34396C54.8913 9.3194 55.1046 9.26516 55.3311 9.22338C55.558 9.18159 55.7434 9.12625 55.7434 9.10023C55.7434 9.013 56.3815 8.79932 56.91 8.7099C57.1989 8.66078 57.6101 8.54716 57.8234 8.45737C58.0953 8.34302 58.4399 8.26788 58.9779 8.20558C59.3997 8.15647 60.0884 8.03588 60.5081 7.93692C62.0331 7.57811 63.5604 7.60816 64.0119 8.00583C64.1615 8.13741 64.307 8.24479 64.3355 8.24479C64.3641 8.24479 64.4682 8.33019 64.5664 8.43465C64.7237 8.60104 64.7545 8.61277 64.816 8.52811C64.897 8.41742 64.9674 5.68289 64.9674 2.64158C64.9674 0.358956 64.9168 0.132819 64.5734 0.883065C64.4909 1.06339 64.3865 1.23345 64.341 1.2613C64.2956 1.28916 64.1816 1.46289 64.0874 1.64761C63.9932 1.83233 63.8356 2.06836 63.7374 2.17208C63.6388 2.2758 63.5303 2.46126 63.4962 2.58477C63.317 3.23423 62.4238 3.09092 62.186 2.37476C62.1328 2.21423 62.0078 1.9804 61.9081 1.85505C61.8085 1.73007 61.7106 1.55635 61.6908 1.46948C61.6252 1.18507 61.494 1.0282 61.3749 1.09161C61.2041 1.18324 60.8211 1.78395 60.7229 2.11454C60.673 2.28204 60.5392 2.54116 60.4256 2.69033C60.3116 2.83913 60.2009 3.05684 60.1789 3.17376C60.0107 4.07281 59.1743 4.08747 58.8247 3.19758C58.7705 3.05867 58.6612 2.91097 58.5824 2.86882C58.5036 2.82667 58.4054 2.70646 58.3636 2.60163C58.3218 2.49681 58.202 2.32895 58.0972 2.22816C57.992 2.12737 57.8402 1.93495 57.76 1.80044C57.6797 1.66593 57.5089 1.4354 57.381 1.28806C57.2531 1.14036 57.1486 0.984589 57.1486 0.941707C57.1486 0.898825 57.0387 0.749289 56.9042 0.609282C56.7697 0.469275 56.6597 0.319006 56.6597 0.275024C56.6597 0.0639145 56.4508 -0.0804903 56.3332 0.0492544ZM57.5042 3.217C57.7193 3.34052 57.8025 3.44351 57.9542 3.77557C58.0565 3.9995 58.1932 4.24067 58.2581 4.31177C58.5036 4.58115 58.5634 6.07395 58.3534 6.68712C58.2082 7.11081 57.6295 7.29773 57.4111 6.99133C57.3506 6.90703 57.2531 6.77912 57.1945 6.70728C57.1354 6.63545 57.0874 6.55005 57.0874 6.51743C57.0874 6.48444 56.9936 6.35397 56.8793 6.22715C56.7286 6.06039 56.6513 5.89803 56.5996 5.63964C56.56 5.44319 56.493 5.14375 56.4504 4.97479C56.3724 4.66509 56.3881 4.41952 56.5314 3.72462C56.6352 3.2225 56.6542 3.18182 56.832 3.08579C57.0211 2.9839 57.138 3.00699 57.5042 3.217ZM61.4698 5.04809C61.6439 5.23611 61.6424 5.29622 61.4551 5.63121C61.0721 6.31658 60.4791 6.15788 60.378 5.3435C60.3069 4.77321 61.0329 4.57676 61.4698 5.04809ZM105.542 4.88829C104.709 4.94437 104.372 5.01877 103.695 5.29732C103.41 5.4146 103.072 5.55351 102.944 5.60555C102.817 5.65796 102.693 5.73163 102.669 5.76938C102.646 5.80713 102.49 5.91709 102.323 6.01348C102.049 6.17144 101.191 6.96457 101.191 7.0595C101.191 7.08076 101.072 7.25668 100.926 7.45057C100.498 8.01976 100.211 9.91938 100.501 10.2694C100.538 10.3152 100.589 10.46 100.614 10.5912C100.644 10.7539 100.744 10.9178 100.925 11.1039C101.071 11.2546 101.191 11.399 101.191 11.4243C101.191 11.4499 101.322 11.546 101.481 11.6376C101.64 11.7292 101.826 11.852 101.893 11.9103C102.122 12.1089 102.917 12.2321 103.359 12.1375C103.816 12.04 103.879 11.9623 103.879 11.4932C103.879 10.7422 103.981 10.3687 104.282 10.015C104.431 9.84058 104.581 9.6456 104.615 9.58219C104.649 9.51878 104.715 9.46674 104.762 9.46674C104.809 9.46674 104.976 9.36742 105.135 9.24647C106.002 8.58492 108.648 8.54973 109.999 9.18196C110.244 9.29704 110.554 9.42569 110.686 9.46821C110.819 9.51035 110.997 9.61004 111.083 9.68921C111.168 9.76838 111.332 9.8776 111.447 9.93221C111.562 9.98682 111.714 10.0909 111.784 10.1635C111.854 10.2364 112.035 10.3892 112.186 10.5036C112.521 10.7569 113.18 11.4353 113.373 11.7266C113.451 11.8443 113.586 12.0162 113.672 12.1085C113.759 12.2013 113.877 12.3798 113.934 12.5058C113.991 12.6316 114.1 12.8192 114.176 12.9222C114.252 13.0256 114.387 13.3279 114.476 13.5944C114.566 13.8605 114.689 14.161 114.751 14.2618C115.426 15.3683 115.4 20.0721 114.711 21.3721C114.632 21.5198 114.568 21.6789 114.568 21.7258C114.568 21.8881 114.304 22.6307 114.224 22.6915C114.18 22.7253 114.062 22.954 113.961 23.1999C113.86 23.4462 113.707 23.7313 113.621 23.8336C113.535 23.9358 113.426 24.1118 113.379 24.2246C113.332 24.3372 113.234 24.4922 113.161 24.5684C113.089 24.6447 112.946 24.8309 112.844 24.9822C112.742 25.1332 112.581 25.3396 112.485 25.4404C111.905 26.0539 111.425 26.5201 111.311 26.5809C111.239 26.6194 111.132 26.7125 111.073 26.788C111.014 26.8632 110.807 27.0142 110.613 27.123C110.42 27.2319 110.157 27.4111 110.028 27.521C109.732 27.7739 109.144 27.6222 109.361 27.3491C109.394 27.3074 109.467 26.9966 109.523 26.659C109.579 26.3211 109.704 25.8483 109.802 25.6082C109.9 25.3678 110.012 24.9478 110.052 24.6744C110.092 24.4009 110.193 23.9941 110.275 23.7702C110.358 23.5466 110.464 23.1849 110.511 22.9664C110.724 21.9699 110.859 21.4362 110.906 21.4073C110.934 21.3901 111 21.1632 111.054 20.9037C111.285 19.7862 111.353 19.5058 111.431 19.3501C111.529 19.1551 111.664 18.6152 111.793 17.8998C111.844 17.6161 111.909 17.3548 111.937 17.3196C112.076 17.144 112.351 15.9521 112.38 15.3994C112.418 14.6694 110.564 14.4689 109.723 15.1125C109.65 15.1689 109.583 15.3665 109.522 15.7069C109.363 16.5943 109.298 16.8801 109.181 17.2023C109.118 17.3749 109.028 17.7462 108.98 18.027C108.85 18.7856 108.715 19.3673 108.65 19.4457C108.591 19.5183 108.461 20.079 108.305 20.9407C108.254 21.2211 108.171 21.5326 108.119 21.6334C108.021 21.8211 107.913 22.2689 107.761 23.1075C107.714 23.3699 107.62 23.7273 107.555 23.9018C107.367 24.3987 107.313 24.6106 107.24 25.1351C107.155 25.7468 107.1 25.8552 106.741 26.1188C106.073 26.6088 105.039 26.2929 105.039 25.5991C105.039 25.3348 105.212 24.6322 105.339 24.3775C105.4 24.2565 105.51 23.8827 105.584 23.5466C105.658 23.2109 105.761 22.826 105.813 22.6915C105.864 22.557 105.956 22.3173 106.017 22.1583C106.077 21.9996 106.161 21.6697 106.201 21.4252C106.242 21.1811 106.296 20.9535 106.322 20.9202C106.424 20.7882 106.687 19.8558 106.753 19.3929C106.79 19.1243 106.872 18.712 106.935 18.4767C107.204 17.4596 107.228 16.562 106.996 16.1376C106.965 16.0804 106.854 15.8481 106.75 15.6215C106.607 15.3096 106.491 15.1583 106.273 14.9963C106.115 14.879 105.955 14.7573 105.918 14.7265C105.399 14.294 104.395 14.2812 103.955 14.7009C103.856 14.7954 103.715 14.9131 103.643 14.9626C103.422 15.1139 103.424 15.2495 103.65 15.5134C104.032 15.9598 104.268 17.1448 104.124 17.8965C104.095 18.0475 104.017 18.4899 103.951 18.8795C103.884 19.2694 103.757 19.7642 103.668 19.979C103.58 20.1941 103.455 20.6372 103.391 20.9631C103.327 21.2893 103.193 21.7426 103.094 21.971C102.995 22.1993 102.895 22.5097 102.871 22.6611C102.81 23.0492 102.611 23.7595 102.539 23.8471C102.236 24.2118 102.075 26.5949 102.313 27.1934C102.464 27.5745 103.093 28.073 103.499 28.1338C103.903 28.1943 104.686 28.1254 104.911 28.0092C105.018 27.9535 105.385 27.8278 105.724 27.73C106.065 27.6325 106.364 27.5177 106.39 27.4752C106.461 27.3609 106.534 27.5833 106.535 27.9143C106.536 28.0939 106.492 28.2526 106.409 28.3724C106.339 28.4732 106.246 28.6521 106.201 28.7694C106.061 29.1359 105.921 29.2414 105.476 29.3155C104.963 29.4009 104.601 29.4804 103.909 29.6596C103.607 29.7381 103.153 29.8334 102.901 29.8715C102.292 29.9642 101.842 30.095 101.669 30.2303C101.591 30.2911 101.458 30.3626 101.374 30.3886C101.138 30.463 100.796 30.6965 100.691 30.8556C100.638 30.9344 100.5 31.1029 100.383 31.2301C100.047 31.5952 99.8834 32.6064 100.079 33.1067C100.149 33.2855 100.694 33.9005 100.782 33.9005C100.816 33.9005 100.93 33.9669 101.036 34.0475C101.652 34.517 103.411 34.5214 104.3 34.0556C104.455 33.9746 104.7 33.851 104.845 33.781C104.99 33.711 105.257 33.5443 105.438 33.4105C105.619 33.2771 105.781 33.1675 105.797 33.1675C105.908 33.1675 107.097 31.8613 107.368 31.442C107.471 31.2825 107.578 31.1517 107.605 31.1517C107.632 31.1517 107.73 31.0212 107.822 30.8618C108.075 30.4253 108.592 29.9547 108.871 29.9067C108.997 29.8847 109.266 29.785 109.466 29.6849C109.667 29.5845 109.878 29.5024 109.936 29.5024C109.994 29.5024 110.056 29.4786 110.073 29.4496C110.091 29.4207 110.205 29.3807 110.326 29.3613C110.447 29.3415 110.688 29.2319 110.862 29.1172C111.036 29.0025 111.279 28.876 111.402 28.8361C111.526 28.7961 111.661 28.7221 111.703 28.6715C111.745 28.6209 111.96 28.4732 112.181 28.3428C112.402 28.2126 112.674 28.0217 112.786 27.9187C112.897 27.8153 113.011 27.731 113.038 27.731C113.066 27.731 113.21 27.6141 113.359 27.4716C113.507 27.3286 113.695 27.1545 113.777 27.0845C113.86 27.0145 114.001 26.8771 114.093 26.7792C114.184 26.681 114.285 26.5736 114.318 26.5399C114.659 26.1972 115.057 25.7504 115.057 25.7108C115.057 25.6837 115.168 25.5338 115.303 25.3773C115.438 25.2212 115.601 24.9929 115.664 24.8697C115.727 24.7469 115.85 24.5637 115.937 24.4629C116.025 24.3621 116.127 24.1836 116.166 24.0659C116.204 23.9483 116.253 23.8383 116.275 23.8215C116.362 23.7537 116.707 23.1841 116.707 23.1079C116.707 23.0628 116.732 22.9781 116.762 22.9199C116.793 22.8616 116.852 22.7245 116.892 22.6153C116.932 22.5061 116.987 22.4167 117.013 22.4167C117.075 22.4167 117.114 22.3093 117.296 21.6261C117.38 21.3091 117.501 20.948 117.564 20.8242C118.148 19.6785 118.144 13.8641 117.559 13.1586C117.523 13.1154 117.415 12.7961 117.32 12.449C117.119 11.7171 117.078 11.6046 117.01 11.6046C116.982 11.6046 116.873 11.3785 116.766 11.1025C116.659 10.8261 116.507 10.5227 116.427 10.4277C116.347 10.3328 116.23 10.1397 116.167 9.99855C116.103 9.85707 115.979 9.66392 115.89 9.56936C115.801 9.4748 115.673 9.29008 115.606 9.1585C115.539 9.02729 115.401 8.85906 115.301 8.78466C115.201 8.71026 115.118 8.62047 115.118 8.58455C115.118 8.52261 114.44 7.85226 113.927 7.40768C113.539 7.07123 113.15 6.78865 112.919 6.67503C112.801 6.61712 112.595 6.48444 112.461 6.37999C112.327 6.2759 112.038 6.126 111.82 6.0472C111.601 5.9684 111.381 5.86944 111.331 5.82656C111.173 5.69278 110.677 5.50476 110.304 5.43696C110.106 5.40141 109.837 5.32114 109.706 5.25883C109.237 5.03563 107.327 4.7886 106.415 4.83331C106.313 4.83808 105.921 4.863 105.542 4.88829ZM63.9265 5.01877C64.1211 5.22805 64.1039 5.8152 63.8968 6.02227C63.7011 6.21836 63.1253 6.18134 62.9413 5.96107C62.4374 5.35816 63.3921 4.44555 63.9265 5.01877ZM54.9184 6.37596C55.2292 6.66403 55.2212 7.2116 54.9038 7.3813C54.678 7.50224 54.1048 7.39302 53.9699 7.20354C53.5609 6.62885 54.4005 5.8962 54.9184 6.37596ZM52.6519 7.50921C53.1441 7.69649 52.9968 8.67508 52.4771 8.67104C51.7694 8.66591 51.3244 7.68477 51.9677 7.54696C52.4749 7.4381 52.4661 7.43884 52.6519 7.50921ZM10.571 10.7891C10.4032 10.8386 10.0565 10.9287 9.80063 10.9892C9.3282 11.1006 8.76927 11.3407 8.76927 11.4323C8.76927 11.4598 8.73995 11.4825 8.7044 11.4825C8.59554 11.4825 7.97504 11.804 7.97504 11.8601C7.97504 11.889 7.85776 11.9876 7.71445 12.0792C7.50481 12.2137 7.135 12.5352 6.80111 12.8735C6.42727 13.2521 6.14249 13.5761 6.14249 13.623C6.14249 13.6552 6.05086 13.771 5.93871 13.8803C5.82656 13.9891 5.69791 14.1746 5.6521 14.2922C5.60665 14.4099 5.47911 14.6261 5.36879 14.7727C5.25847 14.9193 5.14998 15.1392 5.12799 15.2613C5.106 15.3833 5.06825 15.5109 5.04369 15.5446C5.01913 15.5783 4.98175 15.697 4.96049 15.8092C4.93924 15.921 4.87363 16.1134 4.81462 16.2366C4.68378 16.5089 4.65446 18.1805 4.77761 18.3297C4.84138 18.407 4.90588 18.6093 5.11736 19.3929C5.15364 19.5274 5.26873 19.7609 5.37318 19.9123C5.47764 20.0633 5.61252 20.285 5.67299 20.4045C5.7331 20.524 5.8775 20.7281 5.99295 20.8582C6.10877 20.9884 6.2037 21.1163 6.2037 21.1419C6.2037 21.168 6.33417 21.3226 6.49361 21.4857C8.23306 23.264 8.87812 23.9787 8.99577 24.2587C9.04195 24.3691 9.10059 24.4735 9.12588 24.4915C9.2538 24.5816 9.44841 24.9423 9.52721 25.2344C9.64889 25.687 9.81419 26.1595 9.8798 26.2438C9.96959 26.3588 10.0304 27.4104 9.98498 28.0671C9.9454 28.6422 9.88126 28.8669 9.62214 29.3338C9.58989 29.3921 9.56313 29.4896 9.56313 29.5508C9.56313 29.7219 9.09436 30.3981 8.7077 30.7848C8.18139 31.3115 7.77786 31.5435 7.1306 31.6927C6.11243 31.9269 5.24381 31.7344 4.58812 31.1297C4.45544 31.0077 4.32753 30.9076 4.30371 30.9076C4.2469 30.9076 3.88222 30.2603 3.88222 30.1592C3.88222 30.1163 3.82614 29.9763 3.75761 29.848C3.60331 29.5607 3.58132 28.7631 3.71876 28.4505C3.76714 28.3406 3.88039 28.0404 3.97018 27.7842C4.05998 27.528 4.19962 27.2561 4.28025 27.1806C4.36088 27.1047 4.50052 26.9365 4.59032 26.8067C4.68048 26.6766 4.78823 26.5703 4.83038 26.5703C4.87216 26.5703 4.98578 26.4893 5.08254 26.39C5.17967 26.291 5.41387 26.1411 5.60335 26.0572C6.12856 25.8252 6.13039 25.764 5.62314 25.3612C4.98505 24.8539 2.97841 24.7458 2.42937 25.1886C2.33811 25.2622 2.138 25.385 1.98406 25.4616C1.52116 25.6929 0.70934 26.5256 0.587659 26.8943C0.546609 27.0186 0.493099 27.1201 0.468176 27.1201C-0.048237 27.1201 -0.184213 30.4069 0.298481 31.2246C0.383878 31.3694 0.523519 31.6263 0.608549 31.7956C0.805732 32.1871 1.64357 33.0535 2.02951 33.2654C2.19187 33.3544 2.37953 33.475 2.44697 33.5329C2.60933 33.6737 2.91866 33.8199 3.16386 33.8719C3.27345 33.8954 3.50911 33.9804 3.68724 34.0611C4.44774 34.4048 6.45695 34.4206 7.2138 34.0885C7.34904 34.0288 7.60706 33.9449 7.78665 33.902C8.08243 33.8309 9.48946 33.1561 9.56313 33.0498C9.57999 33.0257 9.76434 32.8908 9.97252 32.7504C10.5238 32.3791 11.6324 31.266 11.8458 30.8695C11.8978 30.7727 12.0242 30.6005 12.1261 30.4868C12.2284 30.3732 12.312 30.234 12.312 30.1775C12.312 30.1211 12.4186 29.8982 12.5487 29.682C12.7016 29.4284 12.8416 29.0714 12.9431 28.6777C13.0296 28.342 13.1472 27.9433 13.2044 27.7923C13.2839 27.5815 13.3144 27.2535 13.3342 26.3871C13.3609 25.2164 13.3298 24.9016 13.1099 24.1272C12.8196 23.105 12.7192 22.8172 12.6132 22.7036C12.552 22.638 12.4336 22.4397 12.3501 22.2627C12.2661 22.0857 12.1177 21.8489 12.0202 21.736C11.9227 21.6232 11.8175 21.4846 11.7871 21.4282C11.7156 21.2962 11.3689 20.9015 10.7543 20.2528C9.49349 18.922 9.12002 18.5042 8.80409 18.0702C8.6168 17.8129 8.4636 17.5838 8.4636 17.5608C8.4636 17.5377 8.36574 17.2958 8.24553 17.0231C7.88451 16.2014 8.18029 14.5554 8.80079 13.9349C8.91771 13.818 9.01337 13.7036 9.01337 13.6805C9.01337 13.6134 9.21128 13.4181 9.44108 13.2576C9.55873 13.1758 9.68994 13.0604 9.73246 13.001C9.82445 12.8738 11.4554 12.3376 11.7505 12.3376C12.095 12.3376 13.1425 12.7602 13.2572 12.9457C13.3466 13.0904 13.3118 13.6948 13.2103 13.7512C13.1524 13.7839 13.0391 13.9396 12.9592 14.0972C12.8793 14.2548 12.6873 14.5469 12.5322 14.746C12.3776 14.945 12.2511 15.1359 12.2511 15.1707C12.2511 15.2052 12.1701 15.317 12.0712 15.4196C11.6581 15.8477 11.259 16.8226 11.256 17.4109C11.2527 18.142 11.852 19.1122 12.4952 19.4168C12.6129 19.4725 12.8328 19.5986 12.9841 19.6968C13.723 20.1769 14.3487 19.8166 14.573 18.782C14.6096 18.6141 14.7056 18.3755 14.7866 18.2524C14.9219 18.0467 15.1832 17.3724 15.1832 17.2291C15.1832 17.1957 15.2642 17.0311 15.3632 16.8629C15.4625 16.6947 15.5743 16.4392 15.6117 16.2952C15.6487 16.1512 15.7671 15.7857 15.8741 15.4834C16.1273 14.7687 16.1581 13.7186 15.9393 13.2539C15.7007 12.7466 15.6106 12.5333 15.6106 12.4758C15.6106 12.4443 15.5024 12.3182 15.3698 12.1954C15.2374 12.073 15.1066 11.9341 15.0795 11.8868C15.0245 11.7911 14.0661 11.1377 13.9096 11.0889C13.8539 11.0721 13.6299 11.0174 13.4115 10.968C13.1931 10.9185 12.8496 10.8357 12.648 10.784C12.1738 10.6627 10.9907 10.6656 10.571 10.7891ZM56.836 10.7935C56.7895 10.8587 56.674 10.9621 56.5791 11.0237C56.3808 11.1527 56.2302 11.4613 56.0799 12.0481C56.0216 12.2753 55.9502 12.4758 55.9216 12.4937C55.8571 12.5333 55.7024 13.0252 55.5862 13.5592C55.5386 13.7776 55.418 14.1489 55.3183 14.3838C55.2186 14.6191 55.0951 15.0263 55.0438 15.2884C54.9925 15.5508 54.8719 15.9631 54.7751 16.2047C54.6787 16.4466 54.5666 16.8365 54.5259 17.0718C54.4508 17.5083 54.2371 18.2447 54.1539 18.3546C54.1282 18.388 54.0754 18.5804 54.0366 18.782C53.9083 19.4461 53.7782 19.939 53.6661 20.1872C53.6056 20.3213 53.4854 20.7787 53.3996 21.2035C53.3138 21.6283 53.2028 22.0681 53.1533 22.181C53.0137 22.4984 52.8843 23.0031 52.7802 23.6346C52.7282 23.9516 52.6618 24.24 52.6325 24.276C52.5482 24.38 52.3393 25.1563 52.2616 25.654C52.2224 25.9062 52.111 26.346 52.0138 26.6315C51.9167 26.917 51.7961 27.4118 51.7455 27.731C51.6953 28.0503 51.5971 28.5176 51.5271 28.7694C50.9326 30.9087 51.0382 31.1502 52.5673 31.1477C53.6899 31.1458 53.9666 31.0443 54.0648 30.5979C54.0861 30.5 54.1293 30.4044 54.1608 30.385C54.2569 30.3256 54.4669 29.8707 54.5556 29.5302C54.6018 29.3532 54.7205 29.0805 54.8198 28.924C54.9192 28.7675 55.0339 28.4989 55.0753 28.3266C55.1442 28.0393 55.3421 27.6218 55.4444 27.5478C55.4675 27.5309 55.5177 27.3935 55.5554 27.2425C55.5932 27.0911 55.7313 26.7477 55.8622 26.4787C55.993 26.21 56.1605 25.7977 56.2342 25.5624C56.3079 25.3275 56.4175 25.0801 56.4772 25.0126C56.5369 24.9456 56.6615 24.6568 56.7539 24.3712C56.8463 24.0857 56.9555 23.8109 56.9969 23.7606C57.1039 23.6298 57.2527 23.2834 57.329 22.988C57.3649 22.8488 57.4858 22.5823 57.5983 22.3958C57.7105 22.2096 57.8325 21.9057 57.8696 21.7206C57.9073 21.5337 58.0312 21.2405 58.1485 21.0606C58.2647 20.8824 58.3787 20.6167 58.4021 20.4701C58.4498 20.1692 58.6554 19.6678 58.7312 19.6678C58.78 19.6678 58.9984 19.018 59.0703 18.6577C59.0904 18.5558 59.1817 18.4019 59.2733 18.3154C59.3679 18.226 59.4727 18.0303 59.5174 17.8595C59.7373 17.0172 59.8392 16.89 60.0096 17.2456C60.1177 17.471 59.9587 18.5122 59.7784 18.7585C59.6669 18.911 59.6101 19.1254 59.4668 19.9354C59.432 20.1333 59.3396 20.4492 59.2616 20.638C59.1835 20.8267 59.0747 21.1874 59.0197 21.4392C58.8309 22.2997 58.7444 22.6303 58.6117 22.9968C58.5388 23.1984 58.4395 23.6107 58.3915 23.9131C58.3123 24.4079 58.1518 24.9859 58.0015 25.3183C57.9711 25.3854 57.9044 25.7152 57.8534 26.0513C57.8025 26.3871 57.7208 26.8408 57.6716 27.0592L57.583 27.4562L57.7508 27.6662C58.1016 28.1034 58.773 28.268 59.5863 28.1159C59.9799 28.0422 60.4575 27.3349 60.6602 26.5249C60.7126 26.3152 60.8244 26.0425 60.9083 25.919C60.9919 25.7955 61.1048 25.5423 61.1586 25.3568C61.2462 25.0566 61.4119 24.6993 61.5449 24.5241C61.5706 24.4904 61.6644 24.2576 61.7535 24.0066C61.8425 23.7555 61.9811 23.4531 62.061 23.3344C62.1409 23.216 62.2252 23.0503 62.2479 22.9664C62.3172 22.7113 62.4737 22.395 62.6133 22.2268C62.6862 22.1392 62.8079 21.8713 62.8834 21.6312C62.9593 21.3912 63.044 21.1951 63.0722 21.1951C63.1565 21.1951 63.3745 20.7791 63.4504 20.4738C63.4893 20.3162 63.6099 20.0831 63.7176 19.9559C63.8521 19.7972 63.936 19.6125 63.9837 19.3691C64.0357 19.106 64.1002 18.9722 64.2329 18.8542C64.337 18.7614 64.4396 18.5855 64.4785 18.433C64.5899 17.9969 64.6705 17.8375 64.8399 17.7169C64.9575 17.633 65.04 17.4746 65.1411 17.1382C65.2896 16.6437 65.4036 16.5532 65.5289 16.8292C65.6363 17.0649 65.5109 17.755 65.3039 18.0676C65.2031 18.2201 65.1041 18.4957 65.0532 18.7647C65.0066 19.0096 64.886 19.3746 64.7853 19.5762C64.6841 19.7778 64.5569 20.1626 64.5027 20.4313C64.4481 20.7003 64.3282 21.087 64.2362 21.2907C64.1442 21.4945 64.0493 21.7694 64.0255 21.9017C63.9316 22.424 63.7293 23.1922 63.6252 23.4242C63.5648 23.5587 63.4816 23.875 63.4409 24.1272C63.4002 24.3789 63.2991 24.8327 63.2166 25.1351C63.033 25.8054 62.9168 26.3412 62.8321 26.9064C62.7969 27.1417 62.7288 27.5951 62.6811 27.9143C62.6335 28.2335 62.5653 28.6184 62.5294 28.7694C62.3575 29.4943 62.3912 31.3632 62.5803 31.6087C62.6067 31.6432 62.6749 31.8605 62.7317 32.0925C62.8717 32.6621 62.9699 32.8809 63.2243 33.1917C63.343 33.3365 63.4402 33.4867 63.4402 33.5256C63.4402 33.6267 64.2762 34.1494 64.6009 34.2513C65.2445 34.4529 66.3862 34.1824 66.7285 33.7473C66.8736 33.563 66.8344 33.387 66.5452 32.9234C66.2905 32.5144 66.2733 32.4664 66.0941 31.671C66.0032 31.2679 65.8983 30.8995 65.8606 30.8523C65.7407 30.702 65.769 27.3022 65.8939 26.8148C65.95 26.5963 66.0548 25.9641 66.1267 25.4099C66.3088 24.0014 66.3433 23.8065 66.5232 23.1497C66.6105 22.8304 66.7226 22.2946 66.7721 21.9585C66.8212 21.6224 66.8872 21.2926 66.918 21.2255C67.0774 20.8806 67.2222 20.3807 67.287 19.953C67.3585 19.4824 67.5418 18.86 67.6477 18.7277C67.6778 18.6903 67.7214 18.5635 67.7448 18.4462C67.8801 17.7697 68.0439 17.1708 68.1374 17.0099C68.1964 16.9091 68.307 16.5653 68.3836 16.2464C68.4599 15.9276 68.5882 15.5351 68.6681 15.3738C68.748 15.2129 68.8861 14.8145 68.9748 14.4883C69.0639 14.1621 69.1881 13.8297 69.2508 13.7498C69.3139 13.6695 69.3655 13.5544 69.3655 13.4936C69.3655 13.4327 69.389 13.3686 69.4176 13.351C69.7496 13.1458 69.5484 11.6046 69.1896 11.6046C69.1599 11.6046 69.0624 11.5082 68.9726 11.3906C68.8828 11.2733 68.7216 11.1325 68.6142 11.0783C68.5068 11.024 68.358 10.924 68.284 10.8562C67.9185 10.5227 66.929 11.1662 66.7571 11.8491C66.7168 12.0085 66.4448 12.5289 66.3741 12.5821C66.3517 12.5986 66.2572 12.8049 66.1644 13.0402C66.0713 13.2751 65.9592 13.509 65.9152 13.5592C65.8712 13.6098 65.7752 13.7883 65.7015 13.9565C65.4849 14.4531 65.4058 14.6147 65.2537 14.8728C65.1745 15.0069 65.0601 15.2752 64.9997 15.4683C64.9392 15.6615 64.8684 15.8195 64.8428 15.8195C64.7633 15.8195 64.5576 16.216 64.4558 16.5657C64.4026 16.7489 64.2791 17 64.1812 17.1228C64.0837 17.2456 63.9852 17.4442 63.9628 17.5644C63.9232 17.7755 63.8697 17.8815 63.578 18.3279C63.5025 18.4433 63.4405 18.5822 63.4405 18.6368C63.4402 18.8183 63.2606 19.2489 63.1118 19.4259C63.0311 19.5216 62.9182 19.7598 62.8611 19.9548C62.6994 20.5071 62.6639 20.5716 62.4685 20.6728C62.2966 20.7619 62.1629 21.0375 62.1559 21.3171C62.1548 21.3673 62.1167 21.4571 62.0716 21.5165C61.8345 21.8291 61.8235 20.6878 62.0602 20.3264C62.1134 20.2451 62.1977 19.9192 62.2472 19.6026C62.3564 18.9033 62.5074 18.2648 62.5858 18.1703C62.6478 18.0959 62.7716 17.5706 62.9226 16.7442C62.9736 16.4634 63.0447 16.179 63.0806 16.1123C63.2016 15.8862 63.3672 15.3016 63.4402 14.842C63.4805 14.5902 63.5541 14.3014 63.6047 14.2006C64.1545 13.1003 64.1669 12.0162 63.6344 11.6548C63.3881 11.4877 63.1887 11.34 62.9175 11.1237C62.882 11.0951 62.7445 11.0369 62.6122 10.994C62.4795 10.9507 62.2919 10.8598 62.1948 10.7917L62.0185 10.6678L61.6373 10.8672C61.3008 11.0435 61.2374 11.1069 61.0923 11.4122C61.0018 11.602 60.8764 11.8535 60.8134 11.9711C60.7503 12.0888 60.6411 12.375 60.5704 12.607C60.4996 12.839 60.3908 13.1003 60.3285 13.1879C60.2662 13.2751 60.1837 13.4701 60.1452 13.6211C60.0514 13.9869 59.8282 14.5499 59.7424 14.6378C59.7047 14.6763 59.609 14.9512 59.5299 15.2484C59.4511 15.5457 59.3268 15.8715 59.2539 15.9723C59.1172 16.1607 58.9632 16.5965 58.8947 16.989C58.8731 17.1118 58.8053 17.2767 58.7437 17.3555C58.5505 17.6036 58.4501 17.8521 58.3713 18.2795C58.3141 18.5888 58.2489 18.7417 58.1129 18.8875C57.9887 19.0206 57.9055 19.1998 57.8512 19.4516C57.7116 20.0977 57.6203 20.3074 57.469 20.3286C57.285 20.355 57.2227 20.4895 57.1739 20.966C57.1072 21.6177 56.9306 21.706 56.8998 21.1034C56.8734 20.5918 56.8972 20.4822 57.0768 20.2898C57.2289 20.1271 57.2575 20.0325 57.3158 19.4974C57.359 19.0983 57.4331 18.7768 57.5316 18.561C57.7534 18.075 57.8047 17.91 57.8817 17.4387C57.9201 17.2034 58.0305 16.86 58.1272 16.6749C58.2236 16.4902 58.3347 16.16 58.3739 15.9415C58.46 15.4621 58.5656 15.1242 58.729 14.8057C58.7961 14.6745 58.8698 14.4571 58.8921 14.323C58.9691 13.8671 59.1677 13.181 59.2949 12.9317C59.5167 12.497 59.439 12.0118 59.0985 11.7069C58.7466 11.3917 58.2482 11.0721 58.0268 11.0193C57.93 10.9962 57.7307 10.924 57.5833 10.8584C57.1677 10.6729 56.9361 10.6531 56.836 10.7935ZM35.7466 13.6677C35.7261 13.701 35.6121 13.7468 35.4937 13.7692C35.1239 13.8385 34.5822 14.47 34.4833 14.9472C34.3708 15.4881 34.4888 15.951 34.8582 16.4209C35.066 16.6848 35.0594 17.6165 34.8479 17.8712C34.7812 17.9515 34.5789 18.712 34.4565 19.3416C34.41 19.5824 34.3194 19.8848 34.2553 20.0138C34.1248 20.2759 34.035 20.5936 33.9122 21.2255C33.8664 21.4608 33.7568 21.8456 33.6682 22.0806C33.5798 22.3159 33.4783 22.6868 33.4424 22.9052C33.3647 23.378 33.2375 23.7984 33.0414 24.2301C32.9626 24.4042 32.8974 24.5967 32.897 24.6575C32.8963 24.8246 32.6273 25.3638 32.4788 25.4957C32.407 25.5595 32.3476 25.6419 32.3469 25.679C32.3454 25.7629 32.0969 25.9762 31.7278 26.2104L31.4434 26.3907L31.1861 26.2881C30.7434 26.1107 30.6694 25.5866 30.9772 24.8041C31.0245 24.6839 31.1044 24.324 31.155 24.0047C31.2895 23.1522 31.3533 22.8763 31.4823 22.586C31.5461 22.4423 31.6307 22.1462 31.6707 21.9281C31.7891 21.2801 31.9947 20.4364 32.0529 20.362C32.1087 20.2905 32.2406 19.7345 32.3557 19.0876C32.3916 18.8861 32.5114 18.4462 32.6229 18.1102C32.7339 17.7741 32.8578 17.2804 32.8981 17.0128C32.9388 16.7453 33.0389 16.3751 33.1206 16.19C33.2357 15.9298 33.2654 15.7704 33.2514 15.4852L33.2338 15.1169L32.9282 15.015C32.5646 14.8937 31.6205 14.8706 31.199 14.9728C30.8336 15.0619 30.7144 15.1674 30.6309 15.4779C30.5733 15.6916 30.4234 16.0423 30.3578 16.1171C30.2867 16.1977 29.7619 15.7443 29.5493 15.4185C29.2682 14.9879 29.2359 14.9754 28.2914 14.9237C27.3019 14.8698 26.56 15.1165 26.1957 15.6212C26.1356 15.704 25.9865 15.8953 25.864 16.0463C25.7416 16.1977 25.6262 16.3938 25.6079 16.4825C25.5895 16.5715 25.4671 16.809 25.3363 17.0106C25.2051 17.2122 25.0779 17.4581 25.0537 17.5575C25.0291 17.6564 24.9163 17.8965 24.8026 18.0904C24.6886 18.2846 24.564 18.561 24.5255 18.7043C24.4867 18.8479 24.3632 19.1441 24.2507 19.3625C24.1381 19.5806 24.0165 19.8969 23.9798 20.0648C23.9028 20.421 23.7449 20.8674 23.6342 21.043C23.5917 21.1108 23.5261 21.3168 23.4883 21.5011C23.3967 21.9508 23.2505 22.3466 23.0936 22.5695C23.0225 22.6703 22.9001 22.8957 22.8216 23.0701C22.7428 23.245 22.6446 23.4007 22.6032 23.4169C22.5614 23.4326 22.4416 23.5961 22.3364 23.7801C22.2312 23.9641 22.0424 24.2243 21.9167 24.3584C21.7914 24.4926 21.6536 24.6399 21.6111 24.6853C21.3666 24.9467 20.9272 25.3451 20.7417 25.4737C20.5167 25.6298 20.3499 25.7603 20.226 25.8772C20.185 25.9161 20.0211 25.992 19.8617 26.0462C19.7023 26.1004 19.4926 26.1855 19.3962 26.2353C18.9319 26.4758 18.0369 26.1496 17.8815 25.6834C17.7239 25.2113 17.6835 24.7561 17.7447 24.1433C17.8265 23.3278 17.9921 22.2781 18.0511 22.2033C18.1248 22.1099 18.3392 21.4513 18.4188 21.0727C18.4979 20.6992 18.6489 20.2964 18.7622 20.1564C18.8032 20.1062 18.8685 19.9412 18.9073 19.7899C19.0184 19.3563 19.1668 18.978 19.2881 18.8183C19.3497 18.7373 19.441 18.5313 19.4908 18.3601C19.541 18.189 19.6297 17.9767 19.6883 17.8884C20.3114 16.9494 20.3459 16.9124 20.7017 16.798C20.8601 16.7471 20.9565 16.7427 20.9983 16.7845C21.0771 16.8633 21.003 17.3211 20.8938 17.4303C20.8495 17.4746 20.7391 17.7286 20.649 17.994C20.5592 18.2593 20.4162 18.6262 20.3316 18.8091C20.1436 19.2144 20.1531 19.876 20.351 20.1872C20.8025 20.896 21.0587 21.0818 21.702 21.1647C22.0974 21.216 22.2711 21.0639 22.4247 20.5321C22.4793 20.3422 22.5618 20.145 22.6072 20.0941C22.653 20.0428 22.7736 19.7562 22.8755 19.4571C22.977 19.158 23.0848 18.8974 23.1149 18.878C23.1944 18.8267 23.4143 18.3495 23.4627 18.123C23.4858 18.0152 23.5602 17.803 23.6287 17.652C23.8193 17.2298 23.8391 16.8853 23.6851 16.6767C23.6148 16.5814 23.5404 16.4363 23.5195 16.3538C23.499 16.2717 23.2809 16.0144 23.0353 15.7828C22.2481 15.0395 22.141 14.9761 21.3967 14.8079C20.7102 14.6525 20.5705 14.64 20.2957 14.7089C20.1549 14.7441 19.8606 14.8064 19.6422 14.8475C19.257 14.9197 18.8373 15.0894 18.694 15.2308C18.6555 15.269 18.5441 15.3551 18.4462 15.4225C18.1365 15.6351 17.4724 16.3271 17.273 16.6441C17.1675 16.812 17.0297 17.0044 16.9666 17.0718C16.9036 17.1389 16.8032 17.3038 16.7431 17.4383C16.6833 17.5725 16.5441 17.8206 16.4341 17.9888C16.3241 18.1574 16.2017 18.4188 16.1621 18.5694C16.1226 18.72 16.0298 18.9392 15.9562 19.0569C15.7506 19.3852 15.6846 19.5476 15.6128 19.9064C15.5765 20.0878 15.4669 20.4041 15.3694 20.6087C15.2719 20.8135 15.1502 21.2149 15.0993 21.5004C15.0483 21.7859 14.9494 22.2257 14.8797 22.4779C14.8097 22.7297 14.7262 23.032 14.6939 23.1497C14.5788 23.5719 14.5055 25.0064 14.5627 25.7218C14.6554 26.8796 15.1696 27.7365 16.0342 28.1749C16.713 28.5187 18.9513 28.3805 19.6077 27.9535C19.6774 27.9084 19.8437 27.8359 19.9783 27.7919C20.1128 27.7483 20.3187 27.6479 20.4364 27.5691C20.554 27.4903 20.76 27.3532 20.8945 27.2641C21.5055 26.8591 22.332 26.0664 22.4566 25.7655C22.6146 25.3839 22.8814 25.7215 22.9715 26.4178C22.9935 26.5857 23.0606 26.8078 23.1207 26.9115C23.1808 27.0149 23.2626 27.1985 23.3025 27.3198C23.6705 28.434 25.6856 28.7829 26.7774 27.9209C27.1018 27.6647 27.8278 26.9595 27.8278 26.8998C27.8285 26.7811 28.117 26.49 28.202 26.5227C28.2504 26.5414 28.3768 26.7316 28.4831 26.9453C29.0864 28.161 29.774 28.5311 31.0839 28.3461C31.38 28.3039 31.6963 28.231 31.7869 28.1841C31.877 28.1368 31.9745 28.0983 32.0031 28.0979C32.0321 28.0976 32.1372 28.029 32.2369 27.9447C32.3366 27.8608 32.4554 27.7923 32.5008 27.7923C32.5774 27.7923 33.0121 27.429 33.2679 27.1509C33.7173 26.6623 33.9269 26.397 33.9669 26.265C34.0149 26.107 34.2362 25.7596 34.3092 25.7277C34.3323 25.7174 34.4408 25.4565 34.5503 25.1472C34.6599 24.8382 34.7878 24.5402 34.8348 24.4852C34.8817 24.4303 35.0037 24.0729 35.1063 23.691C35.209 23.3095 35.3193 22.9642 35.3523 22.9239C35.4245 22.8352 35.5648 22.3474 35.6792 21.7859C35.7261 21.5565 35.8463 21.1581 35.9467 20.9C36.0472 20.6424 36.1751 20.1978 36.2308 19.9123C36.2865 19.6264 36.4115 19.2174 36.5086 19.0026C36.6057 18.7882 36.6849 18.58 36.6849 18.5408C36.6849 18.5012 36.7655 18.3916 36.8641 18.2974L37.0433 18.1255L37.3571 18.2384C37.5293 18.3004 37.772 18.4481 37.8955 18.5665C38.0194 18.6852 38.2008 18.8234 38.299 18.8736C38.7154 19.0873 38.932 19.696 38.6978 19.994C38.6289 20.0816 38.5068 20.3407 38.4269 20.5698C38.3467 20.7989 38.1869 21.1643 38.0714 21.382C37.956 21.5997 37.8416 21.8731 37.817 21.99C37.7925 22.1073 37.6693 22.4229 37.5429 22.6915C37.4165 22.9602 37.2786 23.345 37.2365 23.5466C37.1947 23.7482 37.1394 23.9406 37.1141 23.9743C36.7428 24.4654 36.6065 27.2421 36.9279 27.7615C37.2563 28.2925 37.7023 28.7261 38.0091 28.8134C38.8026 29.0377 39.0826 29.0567 39.6393 28.924C40.1231 28.8082 40.3086 28.6099 40.17 28.3563C40.1385 28.298 40.0381 28.099 39.9476 27.9143C39.857 27.7296 39.7394 27.4958 39.6863 27.395C39.5052 27.0504 39.5572 25.0277 39.7651 24.3408C39.8567 24.0385 39.9831 23.5162 40.0462 23.1801C40.1858 22.4372 40.2661 22.1535 40.4149 21.8757C40.4775 21.7588 40.5596 21.5095 40.5974 21.3223C40.685 20.8857 40.8092 20.5115 40.9599 20.2282C41.0258 20.1047 41.1369 19.7976 41.2073 19.5458C41.2776 19.2936 41.3883 18.9744 41.4536 18.8366C41.595 18.5364 41.5987 18.4833 41.484 18.3883C41.436 18.3484 41.3792 18.2362 41.3575 18.1391C41.3363 18.042 41.2179 17.876 41.094 17.7697C40.9705 17.6637 40.7755 17.4962 40.6608 17.3973C40.5465 17.2983 40.376 17.1778 40.2826 17.1294C40.1887 17.081 40.0352 16.9699 39.941 16.8823C39.8468 16.7947 39.6734 16.6738 39.5561 16.6137C39.4385 16.5532 39.271 16.4392 39.1841 16.3601C38.9745 16.1698 38.656 15.9415 38.5999 15.9415C38.575 15.9415 38.4782 15.8682 38.3848 15.7788C38.2913 15.6894 38.1205 15.5585 38.0054 15.4885C37.4154 15.1297 36.7461 14.4183 36.7461 14.1493C36.7461 13.8341 35.8969 13.4247 35.7466 13.6677ZM73.1223 14.7932C72.5454 14.9325 72.2056 15.0648 71.9824 15.2363C71.893 15.3052 71.757 15.4093 71.6797 15.4683C71.6027 15.527 71.5169 15.575 71.4891 15.575C71.4257 15.575 70.5871 16.4172 70.5871 16.4806C70.5871 16.5063 70.4981 16.6232 70.3888 16.7409C70.2796 16.8582 70.1114 17.1045 70.015 17.2881C69.9186 17.4713 69.7892 17.6696 69.7273 17.7286C69.6653 17.7873 69.5807 17.9522 69.5389 18.0951C69.4975 18.2377 69.4088 18.4506 69.3424 18.5683C69.0991 18.9978 68.999 19.2068 68.999 19.2845C68.999 19.3284 68.9737 19.4116 68.9426 19.4703C68.9114 19.5285 68.8528 19.7067 68.8125 19.8665C68.7718 20.0259 68.7186 20.1564 68.6941 20.1564C68.6391 20.1564 68.4214 20.8549 68.3257 21.338C68.2869 21.5345 68.2125 21.7958 68.1604 21.9186C68.0223 22.2451 67.8581 22.9389 67.8112 23.3941C67.7888 23.6122 67.7287 24.1283 67.6781 24.5398C67.5539 25.5503 67.706 26.71 68.016 27.1116C68.1033 27.2245 68.2315 27.3957 68.3016 27.4921C68.5394 27.8194 69.1984 28.2515 69.5873 28.3343C69.7845 28.3768 70.0377 28.4351 70.1502 28.4644C70.3467 28.5154 71.1028 28.4326 71.731 28.2914C72.0916 28.2104 73.0699 27.6116 73.3873 27.2769C73.5331 27.1237 73.6742 26.998 73.701 26.998C73.7274 26.998 73.8655 26.8195 74.0081 26.6011C74.1503 26.3827 74.2841 26.2038 74.3054 26.2038C74.3266 26.2038 74.4109 26.0733 74.4926 25.9139C74.5744 25.7541 74.7016 25.5551 74.7752 25.4708C74.9112 25.3161 75.0618 25.0156 75.1421 24.7378C75.1663 24.6538 75.2455 24.5028 75.318 24.402C75.498 24.1517 75.5728 23.9784 75.693 23.5316C75.7494 23.3216 75.8128 23.1497 75.8337 23.1497C75.914 23.1497 76.168 22.4199 76.2376 21.9889C76.2618 21.8379 76.3017 21.6866 76.3259 21.6532C76.4286 21.5099 76.6334 20.8267 76.6921 20.4313C76.7489 20.0483 76.8423 19.5036 76.9138 19.1386C76.9303 19.0543 77.0776 18.9264 77.3217 18.7845C77.5318 18.6621 77.7934 18.5056 77.9034 18.4367C78.1416 18.2872 78.4073 18.3979 78.4048 18.646C78.4029 18.8512 78.1717 19.8569 78.1083 19.9354C78.0782 19.9731 78.0207 20.1688 77.9807 20.3704C77.9411 20.572 77.8843 20.833 77.8546 20.9506C77.825 21.0683 77.7678 21.3567 77.7275 21.592C77.6868 21.8273 77.616 22.1099 77.5699 22.2206C77.4786 22.4394 77.2942 23.3304 77.1836 24.0854C77.1451 24.3478 77.0754 24.6542 77.0289 24.766C76.7525 25.4272 76.5279 27.7354 76.7023 28.1185C76.8141 28.3636 77.4881 28.596 77.7231 28.4699C77.792 28.4333 77.9166 28.4029 77.9998 28.4029C78.1922 28.4029 78.4488 28.1053 78.5023 27.8201C78.5243 27.7032 78.5668 27.5921 78.5972 27.5735C78.6965 27.5122 78.879 27.097 78.9791 26.7041C79.0333 26.4919 79.155 26.2034 79.2496 26.0627C79.3441 25.922 79.4563 25.683 79.4984 25.532C79.5406 25.3806 79.6659 25.1057 79.777 24.921C79.8877 24.7363 80.013 24.4753 80.0555 24.3408C80.1508 24.0392 80.289 23.7628 80.3986 23.6529C80.4444 23.6071 80.5247 23.4224 80.5771 23.242C80.6295 23.0621 80.7391 22.8231 80.8212 22.7113C80.9982 22.4698 81.2159 22.0153 81.2159 21.8885C81.2159 21.7698 81.3189 21.5806 81.5267 21.3171C81.6194 21.1995 81.7272 20.9821 81.766 20.8341C81.8639 20.4621 81.9896 20.2847 82.13 20.3213C82.4148 20.3961 82.3187 21.4447 81.9625 22.1473C81.8962 22.2788 81.8086 22.5922 81.7682 22.8444C81.6872 23.3465 81.478 24.1202 81.3951 24.2224C81.3662 24.258 81.2991 24.519 81.246 24.8026C81.1932 25.0863 81.1089 25.5342 81.0594 25.7981C81.0096 26.062 80.9381 26.3357 80.9003 26.4061C80.6159 26.9376 80.5258 28.0019 80.7479 28.2101C81.228 28.6613 82.7105 28.3574 82.837 27.782C82.8898 27.5427 83.0987 27.0435 83.165 26.9991C83.191 26.9819 83.2871 26.7499 83.3783 26.4838C83.5477 25.989 83.6455 25.7695 83.7195 25.7152C83.7426 25.6984 83.8409 25.4785 83.938 25.2267C84.0347 24.9745 84.1898 24.6476 84.2818 24.4999C84.3741 24.3522 84.4962 24.0912 84.553 23.9197C84.6098 23.7482 84.7315 23.5114 84.8238 23.3941C84.9158 23.2765 85.0342 23.0284 85.0866 22.8425C85.1456 22.6336 85.2519 22.4379 85.3652 22.3294C85.4909 22.2092 85.5722 22.0479 85.6239 21.8174C85.6763 21.5817 85.7592 21.4208 85.8988 21.2808C86.0084 21.1712 86.1169 21.0038 86.1396 20.9092C86.1623 20.8143 86.2008 20.7094 86.2254 20.6757C86.2499 20.642 86.302 20.5156 86.3412 20.3942C86.4017 20.2059 86.4336 20.1784 86.5629 20.2029C86.799 20.248 86.7465 21.2585 86.4896 21.6103C86.358 21.7903 86.1979 22.2455 86.1308 22.6303C86.1074 22.7648 85.9967 23.0533 85.8853 23.2717C85.7738 23.4902 85.6426 23.875 85.5939 24.1272C85.5451 24.3789 85.4443 24.7777 85.3703 25.0126C84.9888 26.224 85.0635 27.9605 85.5052 28.1485C85.5316 28.1595 85.5532 28.1984 85.5532 28.2343C85.5532 28.2702 85.6247 28.3933 85.7119 28.5081C86.232 29.1898 88.287 29.0344 87.9923 28.3354C87.8252 27.9392 87.8758 25.8655 88.0686 25.1959C88.254 24.553 88.3376 24.1576 88.4288 23.4858C88.4655 23.2167 88.5747 22.7494 88.6718 22.4471C88.7686 22.1447 88.8774 21.6913 88.9134 21.4392C88.9878 20.9173 89.2051 20.0354 89.2832 19.9394C89.3121 19.9039 89.3774 19.6429 89.4287 19.3589C89.5987 18.4195 89.7149 17.9284 89.7989 17.7983C89.8443 17.7272 89.9242 17.4662 89.9762 17.2177C90.0279 16.9696 90.0987 16.6701 90.1331 16.5529C90.3222 15.9067 90.1045 15.4302 89.4404 15.0384C88.7836 14.651 88.1741 14.857 87.8113 15.5889C87.7072 15.7997 87.573 16.0273 87.514 16.0943C87.4547 16.1614 87.3451 16.3813 87.2707 16.5829C87.1959 16.7845 87.064 17.0524 86.9775 17.1785C86.8906 17.3042 86.7682 17.5626 86.7055 17.7528C86.6428 17.943 86.5244 18.1868 86.4423 18.2941C86.3606 18.4015 86.2345 18.6716 86.1627 18.8941C86.0909 19.1166 85.9542 19.3823 85.8589 19.4842C85.7526 19.5978 85.6697 19.7697 85.6448 19.9284C85.5957 20.2381 85.4092 20.624 85.2424 20.76C85.1761 20.8146 85.0852 20.9972 85.0412 21.1657C84.903 21.6921 84.8022 21.8401 84.6706 21.7089C84.4903 21.5286 84.564 20.6677 84.804 20.1564C84.9063 19.9379 85.0335 19.5256 85.0863 19.2401C85.139 18.9546 85.2615 18.5562 85.3582 18.3546C85.455 18.153 85.5668 17.8177 85.6071 17.6095C85.647 17.4013 85.7768 17.0377 85.8952 16.801C86.2631 16.0658 86.0832 15.7099 84.9888 15.0087C84.4075 14.636 83.7672 14.8849 83.412 15.6212C83.3032 15.8473 83.1386 16.1288 83.0463 16.2464C82.9543 16.3645 82.8443 16.5708 82.8025 16.7053C82.7322 16.93 82.5335 17.2734 82.4316 17.3467C82.4082 17.3632 82.3437 17.5329 82.2883 17.7231C82.233 17.9133 82.1087 18.1783 82.012 18.3121C81.9148 18.4455 81.8034 18.6749 81.7642 18.8212C81.681 19.1305 81.5483 19.4032 81.397 19.5762C81.338 19.6433 81.2152 19.9251 81.1243 20.2022C81.033 20.4796 80.933 20.7061 80.9014 20.7061C80.7878 20.7061 80.5441 21.0092 80.5441 21.1507C80.5441 21.2299 80.499 21.4443 80.4437 21.6268L80.3432 21.9585L80.2634 21.7753C80.1157 21.4373 80.1937 20.6908 80.3916 20.5456C80.4539 20.5005 80.5217 20.2843 80.5749 19.964C80.6731 19.3684 80.8172 18.8703 80.9066 18.8153C80.9656 18.7787 81.2771 17.6582 81.2771 17.482C81.2771 17.4376 81.3292 17.2855 81.3929 17.1448C81.6524 16.5704 81.7048 16.4033 81.7048 16.1457C81.7048 15.8704 81.5652 15.575 81.4347 15.575C81.3948 15.575 81.2588 15.4804 81.1327 15.365C80.3814 14.6767 79.6912 14.7203 79.5032 15.4683C79.4633 15.6267 79.35 15.829 79.2346 15.9488C79.1246 16.0625 78.9886 16.2446 78.9326 16.3538C78.8765 16.4631 78.809 16.5525 78.7826 16.5525C78.7563 16.5525 78.5924 16.6738 78.4187 16.8222C78.245 16.9707 78.0199 17.1103 77.9192 17.1323C77.818 17.1547 77.7198 17.1983 77.7007 17.2291C77.6817 17.2602 77.5068 17.2855 77.3129 17.2855C76.8948 17.2855 76.8519 17.2287 76.724 16.5085C76.6437 16.057 76.5719 15.921 76.1086 15.3434C75.6666 14.7921 74.2255 14.5264 73.1223 14.7932ZM92.382 15.0102C92.2952 15.1026 92.2039 15.2737 92.1793 15.391C92.1544 15.5079 92.0983 15.6593 92.0544 15.7271C91.9294 15.9195 91.7963 16.3604 91.7223 16.8266C91.6512 17.2756 91.5291 17.7187 91.3767 18.0852C91.3261 18.2062 91.2352 18.6185 91.174 19.0015C91.0571 19.7338 90.8991 20.38 90.8101 20.4888C90.7811 20.5244 90.7254 20.7736 90.6862 21.0422C90.5799 21.7723 90.3886 22.7117 90.3197 22.8403C90.2489 22.973 90.1027 23.8079 89.9773 24.799C89.9282 25.1853 89.863 25.5701 89.8322 25.654C89.6204 26.2284 89.502 27.9282 89.6581 28.1511C90.191 28.9123 91.6406 28.6213 91.752 27.731C91.8029 27.3235 91.9129 26.9284 92.0756 26.5663C92.1427 26.4175 92.2164 26.1994 92.2398 26.0818C92.3021 25.7636 92.4626 25.3399 92.5909 25.153C92.6536 25.0621 92.7339 24.8972 92.7694 24.7865C92.8559 24.5179 92.9974 24.1788 93.0703 24.0659C93.1711 23.9091 93.494 23.2244 93.494 23.1673C93.494 23.1372 93.579 22.9972 93.6831 22.8557C93.7869 22.7146 93.9082 22.4621 93.9522 22.2946C93.9965 22.1275 94.1273 21.8596 94.2428 21.6998C94.3586 21.5396 94.4869 21.2713 94.5283 21.1034C94.6078 20.7776 94.7314 20.5991 94.9304 20.5229C95.0044 20.4947 95.0982 20.351 95.1664 20.1608C95.2895 19.8181 95.3845 19.7884 95.46 20.0688C95.5168 20.2806 95.4919 20.3891 95.2914 20.8007C95.2089 20.97 95.1001 21.3688 95.0495 21.6862C94.9641 22.2239 94.8915 22.4727 94.6852 22.936C94.6405 23.0368 94.5734 23.3117 94.536 23.5466C94.4378 24.1704 94.3535 24.5318 94.1944 25.0126C94.1167 25.2479 94.0097 25.7427 93.9566 26.1122C93.8627 26.7675 93.7271 27.5456 93.6538 27.8531C93.5266 28.3838 94.7973 28.7701 95.4406 28.3959C95.8181 28.1764 95.9797 27.9231 96.149 27.2868C96.2348 26.9647 96.3968 26.5271 96.5086 26.3149C96.6204 26.1026 96.745 25.7951 96.7856 25.6317C96.826 25.4682 96.9275 25.2344 97.0107 25.1123C97.0939 24.9903 97.2192 24.6982 97.2889 24.4629C97.3585 24.2279 97.4868 23.9413 97.5733 23.8262C97.6601 23.7115 97.7807 23.4388 97.8412 23.2204C97.913 22.9613 98.0131 22.7634 98.1289 22.6498C98.2282 22.5526 98.325 22.3774 98.3484 22.2525C98.4067 21.942 98.6226 21.5004 98.7161 21.5004C98.844 21.5004 98.9195 21.3633 99.0353 20.922C99.0958 20.6911 99.1793 20.491 99.2207 20.4771C99.4604 20.3975 99.4307 21.4872 99.1885 21.6565C99.0778 21.7342 99.0118 21.9574 98.8641 22.7527C98.8267 22.9543 98.7432 23.2065 98.6779 23.3131C98.5482 23.5261 98.4177 23.9893 98.3539 24.4629C98.3312 24.6311 98.2553 24.9745 98.1853 25.2267C97.7921 26.6447 97.8991 27.7838 98.5039 28.6202C98.8619 29.1154 100.222 29.1813 100.71 28.7276L100.87 28.5781L100.75 28.2005C100.564 27.6152 100.623 25.911 100.857 25.1351C100.948 24.8327 101.071 24.2829 101.13 23.9131C101.269 23.0514 101.369 22.6083 101.468 22.4145C101.542 22.2689 101.644 21.8416 101.836 20.8747C101.881 20.6486 101.96 20.373 102.013 20.2627C102.065 20.152 102.147 19.8701 102.195 19.6359C102.377 18.7475 102.468 18.3902 102.554 18.2223C102.683 17.9712 103.031 16.6243 103.033 16.3692C103.036 16.0654 102.813 15.6776 102.545 15.5219C102.394 15.4335 102.222 15.3151 102.163 15.2591C101.639 14.7599 100.912 15.0032 100.542 15.8019C100.483 15.9291 100.375 16.1156 100.303 16.2164C100.231 16.3172 100.137 16.496 100.094 16.6137C99.9845 16.9146 99.7628 17.3467 99.7177 17.3467C99.6972 17.3467 99.6037 17.5597 99.5103 17.8199C99.4168 18.0805 99.3061 18.3345 99.264 18.385C99.1529 18.5181 98.9484 18.9865 98.8718 19.2834C98.8352 19.4245 98.7681 19.5773 98.7223 19.6231C98.5914 19.7543 98.4056 20.1593 98.3243 20.4925C98.2466 20.8099 98.1124 21.0118 97.979 21.0118C97.9365 21.0118 97.8757 21.1009 97.8434 21.2101C97.8115 21.3193 97.7496 21.5323 97.706 21.6836C97.5498 22.2253 97.3995 22.1363 97.3875 21.4941C97.3798 21.1042 97.4047 20.9876 97.5681 20.6449C97.6906 20.3887 97.7833 20.064 97.8302 19.729C97.8778 19.3867 97.9713 19.0638 98.104 18.782C98.2147 18.547 98.325 18.2307 98.3484 18.0797C98.4071 17.7085 98.5196 17.3804 98.7237 16.9886C98.992 16.4726 98.9327 15.7033 98.6167 15.6029C98.5519 15.5823 98.4518 15.5171 98.3943 15.4581C97.633 14.6767 96.9748 14.618 96.6284 15.3001C96.5771 15.4009 96.488 15.5248 96.4305 15.575C96.3726 15.6256 96.2483 15.8455 96.1541 16.0639C96.0603 16.282 95.9328 16.5166 95.8712 16.5844C95.8096 16.6522 95.6898 16.8926 95.6048 17.1184C95.5197 17.3441 95.3702 17.6396 95.272 17.7748C95.1741 17.91 95.0627 18.1516 95.0242 18.3114C94.9861 18.4712 94.8618 18.7193 94.7486 18.8622C94.6291 19.0132 94.5243 19.2298 94.4993 19.3775C94.4499 19.6704 94.3846 19.8027 94.1537 20.0787C94.0632 20.1872 93.9701 20.3796 93.947 20.5064C93.8459 21.0646 93.5647 21.3556 93.4244 21.0474C93.3272 20.8344 93.4537 19.8441 93.6183 19.5282C93.7916 19.1954 93.8997 18.8578 93.9833 18.3891C94.0218 18.1725 94.1207 17.8631 94.2028 17.7011C94.7482 16.6247 94.7123 15.3917 94.1354 15.3917C94.1083 15.3917 93.9969 15.3239 93.8877 15.2407C93.3547 14.8343 92.6485 14.7262 92.382 15.0102ZM43.3195 15.0051C42.7484 15.1407 42.2064 15.7333 42.4604 15.9441C43.1457 16.5125 43.1872 19.4263 42.5234 20.3756C42.4787 20.4401 42.4087 20.6574 42.368 20.859C42.2595 21.3989 42.1228 21.8581 41.9674 22.203C41.8915 22.3708 41.8102 22.6318 41.7864 22.7832C41.724 23.179 41.5258 23.8827 41.4514 23.9725C41.171 24.3104 41.0324 26.5487 41.2597 27.0695C41.6016 27.8524 42.8375 28.3083 43.5735 27.9231C43.6317 27.8927 43.8304 27.8362 44.0151 27.7978C44.3277 27.7329 44.883 27.5438 45.1293 27.4184C45.4335 27.2638 45.5248 27.7204 45.2693 28.1196C45.2235 28.1914 45.1531 28.3739 45.1132 28.5253C44.9882 29.0003 44.7778 29.3235 44.1984 29.933C43.7487 30.4062 43.557 30.6668 43.557 30.8053C43.557 31.2334 45.0263 31.1993 45.6703 30.7566C45.8425 30.6378 46.0115 30.5411 46.0459 30.5411C46.1097 30.5411 46.5766 30.0745 46.9362 29.6516C47.1429 29.4082 47.302 29.1377 47.446 28.7848C47.4904 28.6755 47.5446 28.5861 47.5659 28.5861C47.6208 28.5861 47.8455 28.0045 47.9313 27.6394C47.9709 27.4716 48.0229 27.3066 48.0467 27.2729C48.164 27.1076 48.3682 26.3687 48.4748 25.7226C48.5159 25.4748 48.6174 25.1178 48.7006 24.9294C48.7838 24.7411 48.8919 24.3529 48.9403 24.067C49.0308 23.5356 49.2386 22.8022 49.331 22.6904C49.3592 22.6563 49.4145 22.4364 49.4541 22.2019C49.5476 21.6473 49.8049 20.6435 49.8749 20.5588C49.9049 20.5222 49.9606 20.3136 49.9988 20.0955C50.0981 19.5212 50.3081 18.6713 50.3682 18.5987C50.4283 18.5265 50.638 17.6766 50.7376 17.1023C50.7754 16.8838 50.8282 16.6778 50.8546 16.6441C50.9568 16.5136 51.1621 15.8308 51.1621 15.6197C51.1621 15.0776 50.8326 14.9028 49.8089 14.9036C48.7548 14.9039 48.3773 15.1957 48.2685 16.0943C48.2483 16.2622 48.1651 16.6089 48.0837 16.8644C48.0024 17.1198 47.9166 17.4911 47.8928 17.689C47.8539 18.0174 47.7781 18.3271 47.4317 19.5718C47.3668 19.8045 47.2705 20.244 47.2177 20.5482C47.1649 20.8524 47.0975 21.1309 47.0674 21.1668C46.9868 21.264 46.8233 21.8874 46.7236 22.4779C46.6752 22.7634 46.5532 23.2384 46.452 23.5334C46.3512 23.8281 46.227 24.3093 46.1761 24.6021C45.9294 26.0224 45.4529 26.4897 44.5205 26.2254C44.0554 26.0935 43.9378 25.9187 43.973 25.411C44.0074 24.9122 44.1108 24.4519 44.228 24.2727C44.309 24.1491 44.6261 22.9646 44.6261 22.7861C44.6261 22.7465 44.691 22.5717 44.7701 22.3976C44.964 21.9699 45.0311 21.7441 45.1429 21.1394C45.1953 20.8568 45.2675 20.5903 45.3038 20.5467C45.4551 20.3642 45.5977 19.6953 45.8557 17.9573C45.9151 17.5556 45.8832 16.9578 45.7894 16.7156C45.7612 16.6426 45.7066 16.4656 45.6681 16.3223C45.5845 16.0115 45.3492 15.7304 44.8625 15.3602C44.5352 15.1114 44.3552 15.0403 43.8014 14.9417C43.7344 14.9296 43.5174 14.9582 43.3195 15.0051ZM65.9196 16.3535C65.854 16.4194 65.8192 16.3274 65.865 16.2102C65.9086 16.0998 65.9115 16.0998 65.9332 16.2061C65.9456 16.2673 65.9394 16.334 65.9196 16.3535ZM60.3948 16.5364L60.3666 16.7662L60.3164 16.5829C60.2885 16.4821 60.2819 16.348 60.3021 16.2849C60.3604 16.0998 60.4263 16.2783 60.3948 16.5364ZM73.9209 17.1884C73.9308 17.608 74.1606 18.2018 74.3127 18.2018C74.5073 18.2018 74.4835 19.1771 74.2742 19.7899C74.1661 20.1069 74.0455 20.6376 73.9136 21.3783C73.8626 21.6638 73.7703 22.0073 73.7079 22.1418C73.5482 22.487 73.4184 22.8909 73.3664 23.2054C73.3422 23.3538 73.2421 23.6287 73.1443 23.8164C73.0464 24.004 72.9265 24.2903 72.8782 24.4526C72.7774 24.7902 72.5399 25.2875 72.4798 25.2875C72.4574 25.2875 72.4032 25.3971 72.3592 25.5309C72.2122 25.9755 71.6262 26.5897 71.2289 26.7151L70.8851 26.8232L70.6183 26.6048C70.1806 26.246 70.1092 25.4532 70.4039 24.2188C70.468 23.9498 70.5512 23.51 70.5886 23.2413C70.6641 22.7011 70.8759 21.9167 70.9606 21.8632C70.9906 21.8445 71.0676 21.588 71.1321 21.2937C71.1963 20.9994 71.3476 20.5592 71.4678 20.3154C71.5884 20.0717 71.6866 19.8335 71.6866 19.7855C71.687 19.6488 71.9219 19.0653 72.0499 18.8846C72.1133 18.7948 72.2283 18.5434 72.3053 18.3264C72.3826 18.1094 72.4937 17.8837 72.5527 17.8246C72.6113 17.7656 72.7404 17.5446 72.8393 17.3332C72.9606 17.074 73.1058 16.8801 73.2846 16.7383C73.4305 16.6229 73.5738 16.4891 73.6031 16.4411C73.7145 16.2582 73.9095 16.7167 73.9209 17.1884ZM29.3899 17.3507C29.4661 17.4222 29.5632 17.5674 29.6061 17.6733C29.649 17.7792 29.7106 17.884 29.7428 17.906C29.8513 17.98 29.8652 18.6035 29.763 18.8087C29.7109 18.9132 29.6373 19.2112 29.5992 19.4706C29.4885 20.2282 29.3474 20.9037 29.2513 21.1339C29.1564 21.3618 29.0443 21.868 28.8951 22.7417C28.8445 23.0379 28.7525 23.3817 28.6906 23.5052C28.6283 23.6287 28.5037 23.9707 28.4128 24.2646C28.3222 24.5585 28.2255 24.799 28.198 24.799C28.1705 24.799 28.0503 24.9844 27.9304 25.2113C27.7223 25.6053 27.1791 26.1983 26.8665 26.3724C26.3874 26.6388 25.8267 26.0774 25.7713 25.2754C25.735 24.7477 25.8373 23.6635 25.9344 23.5462C25.9652 23.5092 26.0312 23.2468 26.0814 22.9631C26.2335 22.1018 26.3724 21.4733 26.4248 21.408C26.5065 21.3069 26.7133 20.6992 26.7836 20.3543C26.8199 20.1773 26.935 19.8628 27.0398 19.6554C27.1446 19.4479 27.2714 19.1389 27.3217 18.9689C27.3719 18.7988 27.5031 18.536 27.6127 18.385C27.7223 18.2337 27.8307 18.05 27.8535 17.9767C28.0382 17.3768 29.0006 16.985 29.3899 17.3507ZM87.0944 19.6433C87.1079 19.835 87.0196 20.1029 86.9562 20.0637C86.8895 20.0226 86.8763 19.6704 86.9357 19.5161C86.9822 19.3948 87.0826 19.4758 87.0944 19.6433ZM82.6167 19.7748C82.6083 20.1032 82.5079 20.2114 82.5031 19.8969C82.5009 19.7375 82.5262 19.6066 82.5599 19.6066C82.5936 19.6066 82.6189 19.6825 82.6167 19.7748ZM93.1887 21.6495C93.1887 21.8324 93.1612 21.9988 93.1275 22.0197C93.0894 22.0432 93.0667 21.9186 93.0667 21.6873C93.0667 21.4813 93.0938 21.3171 93.1275 21.3171C93.1612 21.3171 93.1887 21.4667 93.1887 21.6495ZM104.913 30.905C105.061 30.9846 105.213 31.3481 105.112 31.3819C105.072 31.3954 105.039 31.4398 105.039 31.4808C105.039 31.5571 104.336 32.2772 104.062 32.4829C103.506 32.8981 102.342 32.9612 101.878 32.6009C101.761 32.51 101.782 31.9815 101.909 31.8385C102.165 31.5486 102.916 31.2015 103.481 31.1114C103.784 31.063 104.183 30.9864 104.367 30.9409C104.797 30.835 104.784 30.8361 104.913 30.905Z" fill="#8A8A8F"/>
</svg>
