<svg width="22" height="24" viewBox="0 0 22 24" fill="none" xmlns="http://www.w3.org/2000/svg">
    <path fill-rule="evenodd" clip-rule="evenodd" d="M15.7268 7.9071C16.1232 8.29157 16.133 8.92466 15.7485 9.32115L9.71457 15.5436L7.01839 12.4952C6.65251 12.0815 6.69126 11.4495 7.10496 11.0836C7.51865 10.7177 8.15063 10.7565 8.51652 11.1702L9.78206 12.6011L14.3127 7.92885C14.6972 7.53237 15.3303 7.52263 15.7268 7.9071Z" fill="#0086CC"/>
    <path fill-rule="evenodd" clip-rule="evenodd" d="M11.0402 21.8809C11.2582 21.7976 11.5336 21.6828 11.8513 21.5298C12.7345 21.1046 13.9288 20.3929 15.1265 19.2614C17.3393 17.1709 19.7147 13.5088 19.9762 7.13736L11.0521 2.27492L2.02574 7.14231C2.29637 13.2576 4.65497 16.9244 6.89086 19.0882C8.10077 20.2591 9.30856 21.0209 10.2036 21.4861C10.5322 21.6568 10.8164 21.7865 11.0402 21.8809ZM0 5.96242L11.057 0L22 5.96242C22 21.2532 11 24 11 24C11 24 0 20.7468 0 5.96242Z" fill="#0086CC"/>
</svg>
