<svg width="36" height="44" viewBox="0 0 36 44" fill="none" xmlns="http://www.w3.org/2000/svg">
    <path d="M20.377 16.1732L16.958 14.0482C16.6482 13.8603 16.3981 13.5903 16.2194 13.2615L13.1101 7.63772C12.717 6.93328 12.0379 6.5928 11.347 6.58105C11.347 6.58105 11.2993 6.58105 11.2636 6.58105C11.2398 6.58105 11.2159 6.58105 11.1802 6.58105C10.5012 6.5928 9.82213 6.93328 9.42901 7.63772L6.31974 13.2615C6.14104 13.5903 5.89087 13.8603 5.58114 14.0482L2.16213 16.1732C1.49501 16.5841 1.16145 17.3003 1.14954 18.0165C1.16145 18.7327 1.49501 19.4489 2.16213 19.8598L5.58114 21.9849C5.89087 22.1727 6.14104 22.4428 6.31974 22.7715L9.42901 28.3953C9.82213 29.1115 10.5012 29.4402 11.1802 29.452C11.1802 29.452 11.2279 29.452 11.2636 29.452C11.2874 29.452 11.3112 29.452 11.347 29.452C12.026 29.4402 12.7051 29.0998 13.0982 28.3953L16.2074 22.7715C16.3861 22.4428 16.6363 22.1727 16.946 21.9849L20.3651 19.8598C21.0322 19.4489 21.3657 18.7327 21.3777 18.0165C21.3657 17.3003 21.0322 16.5841 20.3651 16.1732H20.377Z" fill="#FEC138"/>
    <path d="M34.4772 24.6501L32.4878 23.4173C32.3091 23.3116 32.1661 23.1473 32.0589 22.9594L30.2482 19.6955C30.0218 19.2846 29.6287 19.085 29.2236 19.085C29.2236 19.085 29.1879 19.085 29.176 19.085C29.1641 19.085 29.1403 19.085 29.1283 19.085C28.7352 19.085 28.3421 19.2846 28.1038 19.6955L26.2931 22.9594C26.1859 23.1473 26.0429 23.2999 25.8642 23.4173L23.8747 24.6501C23.4935 24.8849 23.291 25.3075 23.291 25.7185C23.291 26.1411 23.4935 26.5521 23.8747 26.7869L25.8642 28.0197C26.0429 28.1253 26.1859 28.2897 26.2931 28.4775L28.1038 31.7415C28.3302 32.1524 28.7233 32.352 29.1283 32.352C29.1283 32.352 29.1641 32.352 29.176 32.352C29.1879 32.352 29.2117 32.352 29.2236 32.352C29.6168 32.352 30.0099 32.1524 30.2482 31.7415L32.0589 28.4775C32.1661 28.2897 32.3091 28.1371 32.4878 28.0197L34.4772 26.7869C34.8584 26.5521 35.061 26.1294 35.061 25.7185C35.061 25.2958 34.8584 24.8849 34.4772 24.6501Z" fill="#FF0064"/>
    <path d="M21.6943 37.2455L20.061 36.2335C19.9143 36.1467 19.7969 36.0118 19.7089 35.8576L18.2223 33.178C18.0365 32.8406 17.7138 32.6768 17.3812 32.6768C17.3812 32.6768 17.3519 32.6768 17.3421 32.6768C17.3323 32.6768 17.3128 32.6768 17.303 32.6768C16.9803 32.6768 16.6575 32.8406 16.4619 33.178L14.9753 35.8576C14.8873 36.0118 14.77 36.1371 14.6233 36.2335L12.99 37.2455C12.677 37.4383 12.5107 37.7853 12.5107 38.1227C12.5107 38.4697 12.677 38.807 12.99 38.9998L14.6233 40.0119C14.77 40.0986 14.8873 40.2336 14.9753 40.3878L16.4619 43.0674C16.6477 43.4047 16.9705 43.5686 17.303 43.5686C17.303 43.5686 17.3323 43.5686 17.3421 43.5686C17.3519 43.5686 17.3715 43.5686 17.3812 43.5686C17.704 43.5686 18.0267 43.4047 18.2223 43.0674L19.7089 40.3878C19.7969 40.2336 19.9143 40.1083 20.061 40.0119L21.6943 38.9998C22.0072 38.807 22.1735 38.46 22.1735 38.1227C22.1735 37.7757 22.0072 37.4383 21.6943 37.2455Z" fill="#F45201"/>
</svg>
