<svg width="149" height="24" viewBox="0 0 149 24" fill="none" xmlns="http://www.w3.org/2000/svg">
<path d="M0 22.6769C0 22.282 0.0096768 21.8908 0.0297216 21.5019C0.634752 9.52436 10.4422 0 22.4504 0C34.5411 0 44.3997 9.65376 44.8817 21.7467C44.8946 22.0546 44.9004 22.3651 44.9004 22.6769H39.0807C39.0807 22.3281 39.0699 21.983 39.0484 21.6404C38.5169 12.8586 31.2747 5.87916 22.4504 5.87916C13.6595 5.87916 6.43968 12.8054 5.85976 21.5387C5.83373 21.9145 5.82083 22.2941 5.82083 22.6769H0Z" fill="#8A8A8F"/>
<path fill-rule="evenodd" clip-rule="evenodd" d="M81.0574 3.62902C82.3492 4.12589 83.4797 4.82805 84.4175 5.71555C85.3553 6.60421 86.1011 7.68216 86.6337 8.91969C87.1666 10.1582 87.4368 11.537 87.4368 13.0178C87.4368 14.4994 87.1666 15.8777 86.6337 17.1157C86.1011 18.3535 85.3555 19.4317 84.4175 20.3199C83.4809 21.2072 82.3503 21.9086 81.0574 22.4066C79.7656 22.9033 78.3512 23.1552 76.8531 23.1552C75.3352 23.1552 73.9157 22.9033 72.6342 22.4062C71.3518 21.9093 70.2213 21.2076 69.2746 20.3203C68.3269 19.4321 67.5757 18.3542 67.0428 17.1157C66.5102 15.8775 66.24 14.4989 66.24 13.0178C66.24 11.5374 66.5102 10.1584 67.0428 8.91969C67.5757 7.68169 68.3269 6.60351 69.2746 5.71532C70.2227 4.82735 71.353 4.12566 72.6345 3.62925C73.9164 3.13215 75.3357 2.88 76.8531 2.88C78.3505 2.88 79.7653 3.13215 81.0574 3.62902ZM76.8531 18.5667C77.6439 18.5667 78.373 18.4217 79.0191 18.1362C79.6653 17.8499 80.2224 17.4542 80.6745 16.9596C81.1275 16.4644 81.4846 15.8743 81.736 15.2064C81.9872 14.5367 82.1147 13.8007 82.1147 13.0178C82.1147 12.2352 81.9872 11.4992 81.736 10.829C81.4851 10.1614 81.1278 9.57175 80.6745 9.07581C80.2217 8.58079 79.6644 8.18459 79.0191 7.89928C78.373 7.61349 77.6444 7.46851 76.8531 7.46851C76.0418 7.46851 75.3035 7.61349 74.658 7.89928C74.0119 8.18459 73.4549 8.58033 73.0021 9.07581C72.5485 9.57175 72.1913 10.1614 71.9406 10.829C71.6894 11.4975 71.5621 12.234 71.5621 13.0178C71.5621 13.8019 71.6894 14.5386 71.9406 15.2064C72.1917 15.8743 72.5488 16.4644 73.0021 16.9596C73.454 17.4542 74.011 17.8504 74.658 18.1362C75.3035 18.4217 76.0423 18.5667 76.8531 18.5667Z" fill="#8A8A8F"/>
<path d="M55.2431 8.31212H49.92V3.84H65.5872V8.31212H60.2922V23.1936H55.2431V8.31212Z" fill="#8A8A8F"/>
<path fill-rule="evenodd" clip-rule="evenodd" d="M105.738 6.42153C104.823 5.59369 103.72 4.94928 102.461 4.50617C101.203 4.06396 99.8034 3.84 98.3015 3.84H90.24V23.1936H98.3299C99.815 23.1936 101.205 22.9696 102.461 22.5274C103.719 22.085 104.822 21.4358 105.738 20.5976C106.655 19.7586 107.381 18.7333 107.895 17.5492C108.411 16.3636 108.672 15.0022 108.672 13.5025C108.672 12.0023 108.411 10.6413 107.895 9.45603C107.381 8.27164 106.655 7.25075 105.738 6.42153ZM103.521 13.5025C103.521 14.1996 103.402 14.8728 103.169 15.5044C102.935 16.1355 102.594 16.6932 102.156 17.1628C101.718 17.6325 101.169 18.0138 100.525 18.2959C99.8814 18.5788 99.137 18.7219 98.3138 18.7219H95.3058V8.3124H98.3422C99.2038 8.3124 99.9677 8.44613 100.613 8.70903C101.255 8.97261 101.798 9.34359 102.227 9.81282C102.656 10.282 102.982 10.8351 103.197 11.4554C103.412 12.0779 103.521 12.7667 103.521 13.5025Z" fill="#8A8A8F"/>
<path fill-rule="evenodd" clip-rule="evenodd" d="M116.82 3.84H123.228L123.247 3.88992L130.637 23.1936H124.78L123.818 20.4305H116.259L115.297 23.1936H109.44L116.82 3.84ZM117.654 15.9582H122.394L120.024 9.0511L117.654 15.9582Z" fill="#8A8A8F"/>
<path d="M142.696 3.84L138.599 10.9591L134.467 3.87887L134.444 3.84H128.64L136.031 15.5839V23.5085H141.168V15.5839L148.529 3.84H142.696Z" fill="#8A8A8F"/>
<path d="M7.71178 21.4534C7.69021 21.7748 7.68 22.3501 7.68 22.6769H13.4149C13.4149 22.3237 13.4351 21.7249 13.475 21.3821C13.9937 16.9034 17.8103 13.4144 22.4258 13.4144C27.0659 13.4144 30.8983 16.9395 31.3846 21.4513C31.4206 21.7721 31.4372 22.3469 31.4372 22.6769H37.1712C37.1712 22.3614 37.1617 21.7982 37.1426 21.4876C36.6591 13.7808 30.2552 7.68 22.4258 7.68C14.6078 7.68 8.21254 13.7636 7.71178 21.4534Z" fill="#8A8A8F"/>
<path d="M15.36 22.7328C15.36 22.255 15.4052 21.7887 15.4926 21.3368C16.1438 17.9325 19.1382 15.36 22.7327 15.36C26.4496 15.36 29.5222 18.1085 30.0309 21.6841C30.0802 22.0264 30.1056 22.3764 30.1056 22.7328H15.36Z" fill="#8A8A8F"/>
</svg>
