<svg width="80" height="80" viewBox="0 0 80 80" fill="none" xmlns="http://www.w3.org/2000/svg">
<path d="M2.22217 34.4445C2.22217 16.6486 16.6485 2.22223 34.4444 2.22223C52.2402 2.22223 66.6666 16.6486 66.6666 34.4445C66.6666 38.7656 65.8154 42.8907 64.2705 46.6592L62.2144 45.8163C63.6515 42.3107 64.4444 38.4716 64.4444 34.4445C64.4444 17.8759 51.0129 4.44445 34.4444 4.44445C17.8758 4.44445 4.44439 17.8759 4.44439 34.4445C4.44439 51.013 17.8758 64.4445 34.4444 64.4445C42.885 64.4445 50.5098 60.9601 55.9624 55.3485L55.9775 55.3631C56.0589 55.2509 56.1521 55.1447 56.257 55.0463C57.1519 54.2064 58.5582 54.251 59.3981 55.1459L77.3778 74.3035C78.2177 75.1984 78.1731 76.6048 77.2782 77.4446C76.3833 78.2845 74.977 78.2399 74.1371 77.345L56.1903 58.2225C50.4598 63.466 42.8251 66.6667 34.4444 66.6667C16.6485 66.6667 2.22217 52.2403 2.22217 34.4445Z" fill="#05070F"/>
<path fill-rule="evenodd" clip-rule="evenodd" d="M34.4444 24.4445C29.6966 24.4445 25.3431 25.4684 22.1364 27.1787C18.9775 28.8634 16.6666 31.3797 16.6666 34.4445C16.6666 37.5092 18.9775 40.0255 22.1364 41.7102C25.3431 43.4205 29.6966 44.4445 34.4444 44.4445C39.1922 44.4445 43.5457 43.4205 46.7524 41.7102C49.9113 40.0255 52.2222 37.5092 52.2222 34.4445C52.2222 31.3797 49.9113 28.8634 46.7524 27.1787C43.5457 25.4684 39.1922 24.4445 34.4444 24.4445ZM18.8888 34.4445C18.8888 32.6 20.309 30.6718 23.1822 29.1395C26.0076 27.6325 29.9875 26.6667 34.4444 26.6667C38.9013 26.6667 42.8812 27.6325 45.7066 29.1395C48.5798 30.6718 49.9999 32.6 49.9999 34.4445C49.9999 36.2889 48.5798 38.2171 45.7066 39.7495C42.8812 41.2564 38.9013 42.2222 34.4444 42.2222C29.9875 42.2222 26.0076 41.2564 23.1822 39.7495C20.309 38.2171 18.8888 36.2889 18.8888 34.4445Z" fill="#05070F"/>
<path fill-rule="evenodd" clip-rule="evenodd" d="M34.4444 32.2222C33.2171 32.2222 32.2222 33.2171 32.2222 34.4444C32.2222 35.6717 33.2171 36.6667 34.4444 36.6667C35.6717 36.6667 36.6667 35.6717 36.6667 34.4444C36.6667 33.2171 35.6717 32.2222 34.4444 32.2222ZM30 34.4444C30 31.9898 31.9898 30 34.4444 30C36.899 30 38.8889 31.9898 38.8889 34.4444C38.8889 36.899 36.899 38.8889 34.4444 38.8889C31.9898 38.8889 30 36.899 30 34.4444Z" fill="#FF0064"/>
</svg>
