<svg width="179" height="27" viewBox="0 0 179 27" fill="none" xmlns="http://www.w3.org/2000/svg">
<path fill-rule="evenodd" clip-rule="evenodd" d="M3.54355 10.1364C3.8948 9.17531 4.37986 8.41658 4.99874 7.86019C5.08154 7.82542 5.16884 7.80271 5.25799 7.79275C5.34162 7.78432 5.55907 7.77589 5.90196 7.77589C6.09431 7.77589 6.26157 7.79275 6.40374 7.81804C6.56069 7.84666 6.71276 7.89775 6.85535 7.96978C7.04264 8.06572 7.22415 8.17269 7.39896 8.29013L4.76457 10.3977L5.38344 10.9035V17.9259C4.71294 17.5957 4.1564 17.0699 3.78608 16.4169C3.26756 15.5148 3.01667 14.3093 3.01667 12.7919C3.01667 11.9741 3.18393 11.089 3.54355 10.1279V10.1364ZM3.29265 7.43868C3.49263 7.44345 3.6916 7.46887 3.88644 7.51455L4.55549 7.66629C3.10866 8.30699 1.99637 9.37763 1.21023 10.8698C0.524417 12.1847 0.171084 13.6499 0.181562 15.1355C0.181562 17.0407 0.850614 18.6762 2.15526 20.025C2.77126 20.6844 3.51733 21.2066 4.34552 21.558C5.17371 21.9093 6.06568 22.0821 6.96408 22.0651C8.78724 22.0651 10.3261 21.3654 11.5805 19.9576C12.8161 18.6068 13.4897 16.8293 13.4622 14.9922C13.3157 15.3513 13.1216 15.6888 12.8852 15.9954C12.6111 16.3251 12.3058 16.6272 11.9736 16.8974C11.76 17.0895 11.5274 17.259 11.2795 17.4032C11.0179 17.5423 10.75 17.6689 10.4766 17.7826V8.42501C10.8948 8.25641 11.2293 8.07094 11.4802 7.89391C11.7311 7.71688 11.9987 7.44711 12.2914 7.10147C13.1277 6.25844 13.4622 5.30583 13.5459 4.26891C13.081 4.58869 12.585 4.85986 12.0656 5.07821C11.6307 5.24682 11.1289 5.36484 10.5853 5.41542C10.5017 5.41542 10.3762 5.42385 10.2257 5.44071C9.29408 5.35848 8.38328 5.11612 7.53277 4.72414C6.33684 4.24362 5.3918 4.00757 4.70603 4.00757C3.3512 4.00757 2.25562 4.64827 1.42767 5.92967C0.691714 7.07618 0.315372 8.43344 0.315372 10.0099C0.43858 9.49175 0.698679 9.0169 1.06806 8.63577C1.35952 8.30879 1.69778 8.02749 2.07163 7.80118C2.44798 7.54827 2.86613 7.43868 3.30938 7.43868H3.29265ZM15.8541 21.9387L18.0954 19.4096L16.958 18.2125V11.4515L17.602 11.0131L19.4084 12.3872V21.3148C19.4084 21.8207 19.375 22.2422 19.3248 22.6047C19.2708 22.9404 19.1326 23.2567 18.9234 23.5236L18.2878 24.316C18.0034 24.6701 17.6438 24.9483 17.2173 25.159C18.0787 25.0747 18.7812 24.8808 19.3332 24.5689C19.8851 24.257 20.4538 23.7849 21.0393 23.1358C21.435 22.7027 21.7622 22.2108 22.0094 21.6773C22.2277 21.1817 22.3714 20.6561 22.4359 20.1177V10.1448L21.6665 10.1954L19.1575 8.5599L17.4849 10.0183L16.9162 9.70641V4.76629L16.3977 3.64507L14.1062 5.90437V18.7183L13.4121 19.5614L15.8541 21.9387ZM23.5482 19.1061L27.7047 21.7532L31.6521 17.5718L29.5111 19.1061L26.8767 17.2093V15.439L31.5601 11.8983L28.5661 7.85176L23.7991 11.207V18.5413L23.5482 19.1061ZM37.3474 6.03926V10.9035C37.0616 10.927 36.7803 10.9894 36.5111 11.089C36.2936 11.1733 36.0678 11.325 35.8253 11.5273C35.1395 12.0669 34.7966 12.7582 34.7966 13.6096C34.7903 13.8746 34.8242 14.1389 34.897 14.3936C35.1479 14.1829 35.3737 14.0564 35.6079 13.9721C35.8889 13.8978 36.1788 13.8637 36.4693 13.8709C36.6365 13.8709 36.7787 13.8878 36.8874 13.9215C36.9961 13.9552 37.1383 14.0227 37.3558 14.1323V18.9122L40.9185 22.5372L44.1968 19.182L48.1442 22.5372L53.8981 16.9227V7.31222L50.3354 4.55554L47.701 6.94972L44.1048 4.55554L40.9017 7.25321V5.66833C40.9017 5.14565 40.5338 4.55554 39.7894 3.89798L39.1538 3.41746C38.9531 3.24885 38.836 3.02124 38.8026 2.71775C38.7724 2.47157 38.7557 2.22391 38.7524 1.97589C38.7524 1.38577 38.9531 0.922107 39.3378 0.568037C39.1915 0.540479 39.0433 0.523575 38.8946 0.517456C38.1252 0.517456 37.4394 0.837805 36.8456 1.49536C36.2518 2.15292 35.9591 2.86949 35.9591 3.67036C35.9591 3.78839 35.9758 3.95699 36.0093 4.17618C36.0691 4.57271 36.2186 4.95005 36.4463 5.27897C36.674 5.6079 36.9737 5.87958 37.3223 6.07298L37.3474 6.03926ZM54.5755 19.2494L57.7786 21.5087L60.0952 19.2916L62.855 21.2305L65.2301 18.6593H64.3938L63.3401 17.5634V9.94246L62.7714 10.0436L60.0952 7.78432L55.0104 11.325V18.7858L54.5755 19.2494ZM69.9637 8.31542C69.638 8.15873 69.3319 7.96346 69.0521 7.73374L64.8454 10.7265V15.7677L65.2301 16.0797H67.7391L64.4774 21.7701C64.9792 21.3486 65.3639 21.0535 65.6483 20.9102C66.0413 20.7166 66.4738 20.6184 66.9111 20.6236C67.4631 20.6236 67.9147 20.691 68.2492 20.8175C68.5837 20.9439 68.9434 21.18 69.3113 21.5087L73.4344 18.2378V13.1122L73.1249 12.8003H70.3651V12.5474L72.8155 8.20583C72.5646 8.37443 72.3472 8.45874 72.1966 8.4756C71.9499 8.5079 71.7011 8.52198 71.4523 8.51775H70.9087C70.5834 8.52355 70.2608 8.45736 69.9637 8.32385V8.31542ZM76.5037 21.593L78.7617 19.0471L77.6243 17.85V11.089L78.2432 10.6506L80.0831 12.05V20.9439C80.0893 21.3757 80.0585 21.8073 79.9911 22.2337C79.9325 22.5709 79.7904 22.8829 79.5729 23.1611L79.0042 23.9198C78.6939 24.2847 78.3161 24.5853 77.8919 24.805C78.623 24.7535 79.3366 24.5557 79.9911 24.2233C80.6468 23.8655 81.2287 23.3848 81.7055 22.807C82.0986 22.3349 82.408 21.8544 82.6255 21.3401C82.8429 20.8259 82.9935 20.3032 83.0604 19.7637V9.76542L82.3077 9.84972L79.8573 8.21426L78.1846 9.6474L77.616 9.33548V4.42065L77.1142 3.27414L74.7892 5.53344V18.3643L74.0951 19.1651L76.5037 21.593ZM88.9146 6.22472L86.5896 4.32792L84.7079 6.41019L86.6649 8.20583L88.9146 6.22472ZM85.2766 12.1006V19.182L84.7748 19.9407H85.6529L87.6601 21.6521L89.776 19.7131L92.4856 21.9218L94.8608 19.2747L94.1081 18.3137V11.6791L94.727 11.3672L96.0985 12.8846V19.3759L98.4987 21.4834L100.824 18.8279H99.7365L99.1176 17.8163V10.7349L99.427 10.0858L98.8082 10.2122L96.3578 8.29856L94.0328 10.718L91.3232 8.5599L89.0818 11.089H89.96L90.7126 11.9741V18.4654L89.2073 18.9881L88.2539 18.2294V10.9457L88.5633 10.5073L85.8871 8.50932L83.696 10.8529L84.4486 11.089L85.2766 12.1006ZM131.659 18.9291L130.906 17.968V11.3419L131.525 11.03L132.896 12.5474V19.0724L135.297 21.1547L137.613 18.4991H136.526L135.907 17.4875V10.4061L136.217 9.78228L135.598 9.88344L133.223 7.98664L130.906 10.4061L128.196 8.24798L125.955 10.7771H126.833L127.586 11.6622V18.1872L126.666 19.4349L129.526 21.3317L131.659 18.9291ZM101.325 18.9797C101.645 18.9749 101.963 19.0175 102.271 19.1061C102.575 19.2046 102.858 19.359 103.107 19.5614C103.383 19.7805 103.584 19.9829 103.709 20.1852C103.834 20.3875 103.943 20.6573 104.044 21.0029L102.705 22.748L101.284 24.6701C101.569 24.4908 101.883 24.3625 102.212 24.2907C102.463 24.2486 102.848 24.2233 103.349 24.2233C103.871 24.2546 104.381 24.3953 104.846 24.6364C105.293 24.8882 105.68 25.2331 105.984 25.648C106.82 25.3361 107.765 24.6364 108.861 23.5657C109.956 22.4951 110.5 21.6099 110.5 20.9102C110.416 20.5262 110.29 20.1529 110.124 19.7974C109.872 19.1679 109.744 18.495 109.747 17.8163V9.72327L106.151 7.46397L101.635 10.6927V18.3895L101.325 18.9797ZM110.224 10.0858H111.729V19.1061L111.37 19.8058H112.248L114.129 21.2643L116.638 18.4823H115.585L114.891 17.7236V10.2712L116.413 8.37443H114.891V3.4006L111.821 6.28374V8.25641L110.224 10.0858ZM116.747 18.9797L119.942 21.2558L125.512 17.3273V9.68112L124.943 9.80757L122.267 7.53141L117.19 11.0721V18.5329L116.747 18.9797ZM142.924 6.08141V8.50089C142.54 8.49238 142.157 8.54066 141.786 8.6442C141.477 8.7285 141.184 8.9224 140.9 9.2006C140.616 9.47879 140.448 9.79071 140.398 10.1616C140.348 10.5326 140.314 11.0047 140.314 11.5948C140.314 11.8477 140.306 11.9994 140.289 12.1006C140.666 11.4936 141.193 11.2407 141.862 11.3419C142.313 11.4093 142.665 11.5948 142.915 11.9151V15.9448C142.131 16.3542 141.43 16.909 140.85 17.5802C140.197 18.3643 139.763 19.1651 139.537 19.9997C139.828 19.768 140.139 19.5621 140.465 19.3843C140.716 19.2579 141.084 19.1314 141.552 18.9797L142.138 18.8111C142.363 18.7521 142.623 18.7268 142.915 18.7268V26.4994L146.294 23.7175L147.432 24.5605V20.1346L148.878 20.6404L153.754 17.2346V5.77792L150.635 3.24885L147.432 5.94653V4.51339L146.813 3.99071V6.26688L146.294 6.62937V4.23519L143.66 2.21193L140.54 5.30583C140.791 5.13722 141.067 5.06978 141.335 5.06978C141.561 5.06978 141.77 5.1035 141.979 5.17095C142.447 5.33955 142.748 5.64304 142.899 6.05612L142.924 6.08141ZM154.197 19.2326L157.4 21.4919L163.004 17.5634V9.94246L162.435 10.0436L159.725 7.78432L154.641 11.325V18.7858L154.197 19.2326ZM169 8.18897C168.668 8.0235 168.349 7.83182 168.047 7.61571L163.865 10.5832V15.6244L164.225 15.9364H166.734L163.472 21.6268C163.832 21.3148 164.141 21.0788 164.375 20.927C164.836 20.6294 165.375 20.4768 165.922 20.4887C166.458 20.4887 166.893 20.5561 167.235 20.6826C167.578 20.809 167.93 21.0451 168.289 21.3739L172.412 18.1029V12.9689L172.103 12.657H169.343V12.4041L171.793 8.06251C171.542 8.21426 171.325 8.31542 171.174 8.33228C170.928 8.36523 170.679 8.37932 170.43 8.37443H169.887C169.552 8.37443 169.243 8.31542 168.983 8.18897H169ZM172.513 10.2122H174.018V19.2326L173.658 19.9323H174.536L176.393 21.3907L178.844 18.6087H177.79L177.096 17.85V10.3893L178.601 8.49246H177.096V3.51862L174.026 6.40176V8.37443L172.513 10.2122ZM58.088 10.4483L60.0952 11.9657V18.0355L59.4512 18.7352L58.0796 17.5381V10.4567L58.088 10.4483ZM108.016 21.1125C108.434 21.4076 108.635 21.7869 108.635 22.2337C108.635 22.4445 108.618 22.5962 108.585 22.6974C108.484 22.8491 108.401 22.9503 108.351 23.0093C108.211 23.151 108.028 23.2427 107.832 23.2707C107.606 23.3044 107.313 23.1864 106.954 22.9503C106.594 22.7143 106.051 22.5709 105.331 22.5709C104.863 22.5709 104.445 22.6131 104.077 22.6974C103.665 22.7976 103.266 22.9476 102.889 23.1442L106.653 18.4654V19.0555C106.647 19.345 106.678 19.634 106.745 19.9154C106.803 20.143 106.937 20.3538 107.146 20.5646L108.024 21.1125H108.016ZM104.687 10.1364L106.644 11.5948V17.4707L106.076 18.0945L104.687 16.6866V10.1364ZM26.8684 14.6887V10.8951L28.7501 13.2893L26.8684 14.6887ZM71.0509 10.3893L69.3783 13.5337H68.0652V10.1279C68.5837 10.4651 69.1357 10.6337 69.7379 10.6337C70.2229 10.6337 70.6829 10.5494 71.1345 10.3977L71.0509 10.3893ZM120.243 10.1785L122.25 11.7128V17.7826L121.606 18.4823L120.235 17.2599V10.1785H120.243ZM68.3914 15.4305H70.2731V18.7858C70.0086 18.6921 69.7374 18.6188 69.4619 18.5666C69.0892 18.5356 68.7151 18.5244 68.3412 18.5329C68.0122 18.5277 67.6838 18.5616 67.3627 18.634C67.0867 18.7015 66.7606 18.8195 66.3843 18.9712L68.3914 15.4305ZM146.21 8.34914L146.729 7.91077V22.748L146.21 22.4361V8.34914ZM147.348 7.50612L148.92 6.49449L150.058 7.33751V17.1166L149.179 16.6108L148.611 16.4253C148.189 16.3242 147.768 16.2203 147.348 16.1134V7.51455V7.50612ZM9.5232 8.65263C9.69046 8.65263 9.83264 8.63577 9.94136 8.60205V18.1114C9.29156 18.4368 8.57614 18.607 7.85057 18.6087C7.43241 18.6087 6.98916 18.5582 6.56264 18.457C6.13612 18.3558 5.79323 18.2041 5.55907 18.0355L8.50289 15.068V8.57676C8.6257 8.64721 8.7632 8.68764 8.90433 8.69478L9.2054 8.70321L9.5232 8.65263ZM157.609 10.423L159.617 11.9404V18.0102L158.998 18.7099L157.601 17.5128L157.609 10.423ZM40.9101 7.99507L41.8635 7.23635L43.8456 9.25961V18.5919L43.0427 19.4349L40.9017 17.3526V7.99507H40.9101ZM169.418 10.4651C169.644 10.4314 169.853 10.3808 170.062 10.2797L168.39 13.4241H167.077V10.0183C167.587 10.3433 168.179 10.5158 168.783 10.5157C169.023 10.5172 169.264 10.5003 169.502 10.4651H169.418ZM167.495 15.3294H169.376V18.6846C169.113 18.5885 168.841 18.5152 168.565 18.4654C168.381 18.4401 168.013 18.4233 167.445 18.4233C167.116 18.4173 166.787 18.4512 166.466 18.5244C166.14 18.6115 165.821 18.7242 165.513 18.8616L167.495 15.3294ZM47.6842 7.99507L48.6042 7.23635L50.6114 9.25961V18.5919L49.775 19.4349L47.6592 17.3526L47.6842 7.99507Z" fill="#8A8A8F"/>
</svg>
