<svg width="103" height="103" viewBox="0 0 103 103" fill="none" xmlns="http://www.w3.org/2000/svg">
<path d="M90.4094 48.7038C92.6526 48.7038 94.5167 47.7717 95.7489 46.6659V41.3579H90.2514V42.7007H94.3114V46.0182C93.3951 46.7607 91.9891 47.3452 90.4726 47.3452C87.2341 47.3452 85.1962 44.9914 85.1962 41.8161V41.7845C85.1962 38.8145 87.3131 36.3185 90.2514 36.3185C92.1313 36.3185 93.2687 36.9504 94.2956 37.8351L95.2592 36.6977C93.9322 35.576 92.542 34.9283 90.2988 34.9283C86.302 34.9283 83.6164 38.1668 83.6164 41.8161V41.8477C83.6322 45.6707 86.223 48.7038 90.4094 48.7038ZM70.4097 48.4826H71.8789V37.5665L80.4727 48.4826H81.6733V35.1653H80.2042V45.8286L71.8157 35.1653H70.4097V48.4826ZM65.465 48.4826H66.9658V35.1653H65.465V48.4826ZM52.1161 48.4826H53.6169V44.9124L56.4446 42.0372L61.5631 48.4826H63.443L57.5031 40.9946L63.206 35.1811H61.2629L53.6169 43.1273V35.1811H52.1161V48.4826ZM40.3312 41.9583V36.5555H44.4385C46.587 36.5555 47.8508 37.5507 47.8508 39.1779V39.2095C47.8508 40.9156 46.429 41.9425 44.4227 41.9425H40.3312V41.9583ZM38.8146 48.4826H40.3153V43.3168H44.1226L47.9772 48.4826H49.8255L45.7339 43.0483C47.8192 42.6691 49.3516 41.3737 49.3516 39.1621V39.1305C49.3516 38.0879 48.9724 37.1558 48.3247 36.5081C47.4874 35.6708 46.1762 35.1811 44.5333 35.1811H38.8146V48.4826ZM29.9048 47.3294C26.8558 47.3294 24.66 44.8492 24.66 41.8319V41.8003C24.66 38.7829 26.8242 36.3343 29.8732 36.3343C32.9221 36.3343 35.118 38.8145 35.118 41.8319V41.8635C35.118 44.8808 32.9379 47.3294 29.9048 47.3294ZM29.8574 48.7038C33.9015 48.7038 36.6661 45.4969 36.6661 41.8161V41.7845C36.6661 38.1194 33.9489 34.9441 29.889 34.9441C25.829 34.9441 23.0802 38.151 23.0802 41.8319V41.8635C23.096 45.5285 25.8132 48.7038 29.8574 48.7038ZM8.13574 48.5774H9.38375L13.0488 37.7719L16.698 48.5774H17.9776L22.7327 35.1653H21.1529L17.3457 46.2552L13.6965 35.1337H12.4801L8.83083 46.2552L5.02362 35.1653H3.38068L8.13574 48.5774Z" fill="#8A8A8F"/>
<path d="M90.4094 48.7038C92.6526 48.7038 94.5167 47.7717 95.7489 46.6659V41.3579H90.2514V42.7007H94.3114V46.0182C93.3951 46.7607 91.9891 47.3452 90.4726 47.3452C87.2341 47.3452 85.1962 44.9914 85.1962 41.8161V41.7845C85.1962 38.8145 87.3131 36.3185 90.2514 36.3185C92.1313 36.3185 93.2687 36.9504 94.2956 37.8351L95.2592 36.6977C93.9322 35.576 92.542 34.9283 90.2988 34.9283C86.302 34.9283 83.6164 38.1668 83.6164 41.8161V41.8477C83.6322 45.6707 86.223 48.7038 90.4094 48.7038ZM70.4097 48.4826H71.8789V37.5665L80.4727 48.4826H81.6733V35.1653H80.2042V45.8286L71.8157 35.1653H70.4097V48.4826ZM65.465 48.4826H66.9658V35.1653H65.465V48.4826ZM52.1161 48.4826H53.6169V44.9124L56.4446 42.0372L61.5631 48.4826H63.443L57.5031 40.9946L63.206 35.1811H61.2629L53.6169 43.1273V35.1811H52.1161V48.4826ZM40.3312 41.9583V36.5555H44.4385C46.587 36.5555 47.8508 37.5507 47.8508 39.1779V39.2095C47.8508 40.9156 46.429 41.9425 44.4227 41.9425H40.3312V41.9583ZM38.8146 48.4826H40.3153V43.3168H44.1226L47.9772 48.4826H49.8255L45.7339 43.0483C47.8192 42.6691 49.3516 41.3737 49.3516 39.1621V39.1305C49.3516 38.0879 48.9724 37.1558 48.3247 36.5081C47.4874 35.6708 46.1762 35.1811 44.5333 35.1811H38.8146V48.4826ZM29.9048 47.3294C26.8558 47.3294 24.66 44.8492 24.66 41.8319V41.8003C24.66 38.7829 26.8242 36.3343 29.8732 36.3343C32.9221 36.3343 35.118 38.8145 35.118 41.8319V41.8635C35.118 44.8808 32.9379 47.3294 29.9048 47.3294ZM29.8574 48.7038C33.9015 48.7038 36.6661 45.4969 36.6661 41.8161V41.7845C36.6661 38.1194 33.9489 34.9441 29.889 34.9441C25.829 34.9441 23.0802 38.151 23.0802 41.8319V41.8635C23.096 45.5285 25.8132 48.7038 29.8574 48.7038ZM8.13574 48.5774H9.38375L13.0488 37.7719L16.698 48.5774H17.9776L22.7327 35.1653H21.1529L17.3457 46.2552L13.6965 35.1337H12.4801L8.83083 46.2552L5.02362 35.1653H3.38068L8.13574 48.5774Z" fill="#8A8A8F"/>
<path d="M86.302 58.1508V51.4052H91.4362C94.1217 51.4052 95.6857 52.6374 95.6857 54.6753V54.7227C95.6857 56.8554 93.9006 58.135 91.4204 58.135H86.302V58.1508ZM84.4221 66.3023H86.302V59.8411H91.0412L95.8595 66.3023H98.1659L93.0633 59.5094C95.6699 59.0354 97.5656 57.4241 97.5656 54.6753V54.6279C97.5656 53.3167 97.0917 52.1635 96.286 51.3578C95.2434 50.3152 93.6004 49.6991 91.5625 49.6991H84.4221V66.3023ZM70.5202 66.3023H82.6527V64.5962H72.4001V58.7669H81.4679V57.0607H72.4001V51.3894H82.5422V49.6833H70.536V66.3023H70.5202ZM54.4699 66.3023H56.3498V58.8301H65.9389V66.3023H67.8188V49.6833H65.9389V57.0607H56.3498V49.6833H54.4699V66.3023ZM45.4811 66.3023H47.3768V51.421H52.9534V49.6833H39.9046V51.421H45.4811V66.3023ZM31.3739 64.8489C27.5825 64.8489 24.8179 61.7684 24.8179 57.9928V57.9454C24.8179 54.1698 27.5193 51.1367 31.3265 51.1367C35.1179 51.1367 37.8825 54.2172 37.8825 57.9928V58.0402C37.8825 61.8158 35.1811 64.8489 31.3739 64.8489ZM31.3265 66.5867C36.3817 66.5867 39.8256 62.5741 39.8256 57.9928V57.9454C39.8256 53.3641 36.4291 49.3989 31.3739 49.3989C26.3187 49.3989 22.8748 53.4115 22.8748 57.9928V58.0402C22.8906 62.6215 26.2713 66.5867 31.3265 66.5867ZM5.24478 66.3023H7.0773V52.8744L13.1278 61.7526H13.2225L19.273 52.8586V66.3181H21.1529V49.6833H19.2572L13.2067 58.7511L7.15628 49.6833H5.26058V66.3023H5.24478Z" fill="#8A8A8F"/>
</svg>
